# Pug Magazine body | length 4 | nose -X up +Y
mtllib bob_pug.mtl
g mag_body
v -0.643092 -0.618868 -0.339361
v -0.617491 -0.575988 -0.327364
v -0.603841 -0.636020 -0.365070
v -0.581655 -0.594855 -0.347930
v -0.607255 -0.522817 -0.327364
v -0.568004 -0.541684 -0.344504
v -0.549233 -0.493662 -0.342788
v -0.603841 -0.476509 -0.329077
v -0.602135 -0.401039 -0.334220
v 0.418343 -0.706341 0.342788
v 0.418343 -0.702913 0.342788
v 0.418343 -0.706341 0.341075
v 0.418343 -0.701199 0.339362
v 0.428583 -0.685761 0.335933
v 0.430289 -0.687475 0.346217
v 0.428583 -0.701199 0.347930
v 0.426877 -0.701199 0.339362
v 0.455889 -0.714919 0.229669
v 0.457594 -0.714919 0.227953
v 0.455889 -0.720065 0.231382
v 0.457594 -0.720065 0.227953
v 0.469540 -0.699481 0.226240
v 0.462715 -0.697767 0.231382
v 0.464420 -0.713205 0.234812
v 0.469540 -0.714919 0.231382
v 0.418343 -0.701199 -0.339362
v 0.418343 -0.702913 -0.342788
v 0.418343 -0.706341 -0.341075
v 0.418343 -0.706341 -0.342788
v 0.426877 -0.701199 -0.339362
v 0.428583 -0.685760 -0.335933
v 0.430289 -0.687474 -0.346217
v 0.428583 -0.701199 -0.347930
v 0.479780 -0.704628 0.394208
v 0.479780 -0.697767 0.392491
v 0.478071 -0.704628 0.394208
v 0.476365 -0.699481 0.390778
v 0.481485 -0.682332 0.389066
v 0.486606 -0.682332 0.394208
v 0.490017 -0.699481 0.395921
v 0.481485 -0.699481 0.390778
v 0.420052 -0.704628 0.286228
v 0.420052 -0.708059 0.287942
v 0.420052 -0.704628 0.289658
v 0.420052 -0.708059 0.291371
v 0.431998 -0.702913 0.284515
v 0.433703 -0.689193 0.279373
v 0.428583 -0.690907 0.286228
v 0.430289 -0.702913 0.291371
v 0.455889 -0.714919 -0.229669
v 0.455889 -0.720065 -0.231382
v 0.457594 -0.714919 -0.227953
v 0.457594 -0.720065 -0.227953
v 0.469539 -0.714919 -0.231382
v 0.469539 -0.699481 -0.226240
v 0.462714 -0.697767 -0.231382
v 0.464419 -0.713205 -0.234812
v -0.733532 -0.718348 0.246806
v -0.735241 -0.718348 0.251949
v -0.735241 -0.709773 0.241667
v -0.735241 -0.709773 0.248523
v -0.728416 -0.694335 0.246806
v -0.723296 -0.713205 0.255377
v -0.721587 -0.714919 0.243380
v -0.723296 -0.696053 0.234812
v -0.767663 -0.714919 0.293084
v -0.765957 -0.708059 0.293084
v -0.764252 -0.714919 0.289658
v -0.764252 -0.706341 0.286228
v -0.748892 -0.692621 0.293084
v -0.748892 -0.709773 0.294797
v -0.748892 -0.708059 0.284515
v -0.750597 -0.690907 0.279373
v 0.479780 -0.704628 -0.394208
v 0.478071 -0.704628 -0.394208
v 0.479780 -0.697767 -0.392491
v 0.476365 -0.699481 -0.390778
v 0.481485 -0.682332 -0.389066
v 0.486605 -0.682332 -0.394208
v 0.490016 -0.699481 -0.395921
v 0.481485 -0.699481 -0.390778
v 0.431998 -0.702913 -0.284515
v 0.433703 -0.689192 -0.279373
v 0.420052 -0.708059 -0.287942
v 0.420052 -0.704627 -0.286228
v 0.428583 -0.690906 -0.286228
v 0.420052 -0.704627 -0.289658
v 0.420052 -0.708059 -0.291371
v 0.430289 -0.702913 -0.291371
v -0.709641 -0.716634 0.385636
v -0.707935 -0.709773 0.387352
v -0.714761 -0.716634 0.385636
v -0.709641 -0.709773 0.382210
v -0.699405 -0.690907 0.383923
v -0.694284 -0.692621 0.394208
v -0.694284 -0.711487 0.390778
v -0.701110 -0.709773 0.380493
v -0.757423 -0.711488 0.335933
v -0.759132 -0.718348 0.337645
v -0.755717 -0.711488 0.342788
v -0.755717 -0.718348 0.342788
v -0.742066 -0.713205 0.334220
v -0.742066 -0.696053 0.334220
v -0.736947 -0.696053 0.347930
v -0.738652 -0.713205 0.346217
v -0.733532 -0.718347 -0.246806
v -0.735241 -0.709773 -0.241667
v -0.735241 -0.718347 -0.251949
v -0.735241 -0.709773 -0.248523
v -0.728416 -0.694335 -0.246806
v -0.723296 -0.713205 -0.255378
v -0.721587 -0.714919 -0.243380
v -0.723296 -0.696053 -0.234812
v -0.701110 -0.709773 -0.380493
v -0.699405 -0.690906 -0.383923
v -0.714761 -0.716633 -0.385636
v -0.709641 -0.709773 -0.382210
v -0.694284 -0.692620 -0.394208
v -0.707935 -0.709773 -0.387352
v -0.709641 -0.716633 -0.385636
v -0.694284 -0.711487 -0.390778
v -0.764252 -0.706341 -0.286228
v -0.765957 -0.708059 -0.293084
v -0.764252 -0.714919 -0.289658
v -0.767663 -0.714919 -0.293084
v -0.748892 -0.708059 -0.284515
v -0.750597 -0.690906 -0.279373
v -0.748892 -0.692620 -0.293084
v -0.748892 -0.709773 -0.294797
v -0.755717 -0.718347 -0.342788
v -0.759132 -0.718347 -0.337645
v -0.755717 -0.711487 -0.342788
v -0.757423 -0.711487 -0.335933
v -0.736947 -0.696053 -0.347930
v -0.738652 -0.713205 -0.346217
v -0.742066 -0.713205 -0.334220
v -0.742066 -0.696053 -0.334220
v -0.469029 -0.612008 -0.214243
v -0.462204 -0.615440 -0.219385
v -0.462204 -0.608576 -0.209100
v -0.455378 -0.612008 -0.214243
v -0.463909 -0.594855 -0.209100
v -0.475854 -0.600002 -0.210816
v -0.480974 -0.603434 -0.219385
v -0.469029 -0.605148 -0.227953
v -0.457083 -0.603434 -0.224527
v -0.453669 -0.596569 -0.215955
v -0.678925 -0.680614 -0.402776
v -0.689164 -0.675468 -0.392491
v -0.655037 -0.666893 -0.401064
v -0.673808 -0.649741 -0.387352
v -0.695990 -0.680614 -0.375355
v -0.689164 -0.656601 -0.363357
v -0.699405 -0.682332 -0.366783
v -0.704525 -0.714919 -0.354785
v -0.636262 -0.709773 -0.377068
v -0.675514 -0.713205 -0.383923
v -0.694284 -0.692620 -0.394208
v -0.699405 -0.690906 -0.383923
v -0.701110 -0.709773 -0.380493
v -0.695990 -0.709773 -0.375355
v -0.685754 -0.725211 -0.315366
v -0.636262 -0.709773 -0.377068
v -0.634557 -0.726925 -0.310224
v -0.568004 -0.718347 -0.310224
v -0.583364 -0.702913 -0.359928
v -0.694284 -0.711487 -0.390778
v 0.650428 -0.418192 -0.224527
v 0.640188 -0.526249 -0.238238
v 0.698210 -0.419909 -0.227953
v 0.677730 -0.534824 -0.236525
v 0.624828 -0.596570 -0.236525
v 0.599232 -0.519389 -0.258804
v 0.585581 -0.586281 -0.260520
v 0.698210 -0.419909 -0.227953
v 0.677730 -0.534824 -0.236525
v 0.727218 -0.418192 -0.251949
v 0.705036 -0.539970 -0.262234
v 0.662374 -0.612008 -0.233096
v 0.694795 -0.629160 -0.269089
v 0.638483 -0.658319 -0.229669
v 0.670904 -0.677186 -0.251949
v 0.681145 -0.670326 -0.303369
v 0.672610 -0.617154 -0.335933
v 0.580461 -0.517675 -0.291371
v 0.585581 -0.414763 -0.275944
v 0.566809 -0.581135 -0.293084
v 0.597526 -0.521103 -0.322222
v 0.585581 -0.582849 -0.327364
v 0.641893 -0.529681 -0.332506
v 0.631657 -0.594855 -0.351359
v 0.686265 -0.538255 -0.311937
v 0.711861 -0.418192 -0.293084
v 0.604352 -0.414763 -0.308511
v 0.658959 -0.418192 -0.313650
v 0.619711 -0.684046 -0.359928
v 0.636773 -0.708059 -0.315366
v 0.559983 -0.697767 -0.373638
v 0.655544 -0.654888 -0.349643
v 0.681145 -0.670326 -0.303369
v 0.670904 -0.677186 -0.251949
v 0.490017 -0.697767 0.380493
v 0.481485 -0.699481 0.390778
v 0.486606 -0.665180 0.380493
v 0.481485 -0.704628 0.354785
v 0.513908 -0.702913 0.385636
v 0.517322 -0.718348 0.317080
v 0.559984 -0.697767 0.373638
v 0.575341 -0.720065 0.320509
v 0.636773 -0.708059 0.315366
v 0.619711 -0.684046 0.359928
v 0.655544 -0.654888 0.349643
v 0.681145 -0.670326 0.303368
v 0.670904 -0.677186 0.251949
v 0.628243 -0.708059 0.262233
v 0.563395 -0.716634 0.262233
v 0.501962 -0.718348 0.248523
v 0.471245 -0.711488 0.279373
v 0.472951 -0.709773 0.248523
v 0.490017 -0.699481 0.395921
v 0.486606 -0.682332 0.394208
v 0.662374 -0.612008 0.233096
v 0.694795 -0.629160 0.269089
v 0.638483 -0.658319 0.229669
v 0.670904 -0.677186 0.251949
v 0.681145 -0.670326 0.303368
v 0.672610 -0.617154 0.335933
v 0.655544 -0.654888 0.349643
v 0.677730 -0.534824 0.236525
v 0.705036 -0.539970 0.262233
v 0.686265 -0.538256 0.311937
v 0.631657 -0.594856 0.351359
v 0.614592 -0.629160 0.356498
v 0.619711 -0.684046 0.359928
v 0.583875 -0.648027 0.373638
v 0.559984 -0.697767 0.373638
v 0.532679 -0.660034 0.389066
v 0.501962 -0.670326 0.394208
v 0.491726 -0.663462 0.389066
v 0.481485 -0.682332 0.389066
v 0.510496 -0.644595 0.382210
v 0.559984 -0.629160 0.365070
v 0.568515 -0.615440 0.332506
v 0.537799 -0.624014 0.346217
v 0.490017 -0.642881 0.363357
v 0.478071 -0.668608 0.366783
v 0.525853 -0.615440 0.322221
v 0.585581 -0.582849 0.327364
v 0.566810 -0.581135 0.293084
v 0.546330 -0.610294 0.298227
v 0.512202 -0.617154 0.299940
v 0.474660 -0.632589 0.330790
v 0.450769 -0.668608 0.354785
v 0.447354 -0.699481 0.351359
v 0.464420 -0.708059 0.315366
v 0.428583 -0.701199 0.347930
v 0.440529 -0.699481 0.334220
v 0.440529 -0.666894 0.323935
v 0.449060 -0.670326 0.306795
v 0.464420 -0.637735 0.301656
v 0.440529 -0.670326 0.291371
v 0.467835 -0.636021 0.274231
v 0.443944 -0.665180 0.277660
v 0.449060 -0.672040 0.267375
v 0.433703 -0.689193 0.279373
v 0.431998 -0.702913 0.284515
v 0.447354 -0.702913 0.281086
v 0.430289 -0.702913 0.291371
v 0.443943 -0.701199 0.294797
v 0.428583 -0.690907 0.286228
v 0.464420 -0.675468 0.257091
v 0.474660 -0.649741 0.253665
v 0.466125 -0.675468 0.241667
v 0.495136 -0.649741 0.233096
v 0.478071 -0.677186 0.227953
v 0.515613 -0.663462 0.221098
v 0.498551 -0.685761 0.221098
v 0.541213 -0.687475 0.222814
v 0.558275 -0.649741 0.229669
v 0.537799 -0.632589 0.239951
v 0.519027 -0.627446 0.255378
v 0.464420 -0.713205 0.234812
v 0.462715 -0.697767 0.231382
v 0.469540 -0.714919 0.231382
v 0.469540 -0.699481 0.226240
v 0.563395 -0.716634 0.262233
v 0.592406 -0.682332 0.229669
v 0.595820 -0.630875 0.238237
v 0.558275 -0.618868 0.262233
v 0.513908 -0.617154 0.275944
v 0.638483 -0.658319 0.229669
v 0.628243 -0.708059 0.262233
v 0.670904 -0.677186 0.251949
v 0.428583 -0.685761 0.335933
v 0.430289 -0.687475 0.346217
v 0.442234 -0.665180 0.337645
v 0.426877 -0.701199 0.339362
v 0.677730 -0.534824 0.236525
v 0.640188 -0.526249 0.238237
v 0.698210 -0.419909 0.227953
v 0.624828 -0.596570 0.236525
v 0.662374 -0.612008 0.233096
v 0.585581 -0.586281 0.260520
v 0.727218 -0.418192 0.251949
v 0.711861 -0.418192 0.293084
v 0.641893 -0.529681 0.332506
v 0.597526 -0.521103 0.322221
v 0.580461 -0.517675 0.291371
v 0.599232 -0.519389 0.258804
v 0.650428 -0.418192 0.224527
v 0.658959 -0.418192 0.313650
v 0.585581 -0.414763 0.275944
v 0.604352 -0.414763 0.308511
v 0.698210 -0.419909 0.227953
v -0.463909 -0.594856 0.209100
v -0.462204 -0.608577 0.209100
v -0.475854 -0.600002 0.210816
v -0.455378 -0.612008 0.214242
v -0.453669 -0.596570 0.215955
v -0.457083 -0.603434 0.224527
v -0.462204 -0.615440 0.219385
v -0.469029 -0.612008 0.214242
v -0.480974 -0.603434 0.219385
v -0.469029 -0.605148 0.227953
v -0.554353 -0.603434 0.234812
v -0.520222 -0.629160 0.272518
v -0.590190 -0.644595 0.231382
v -0.549233 -0.675468 0.258804
v -0.532168 -0.680614 0.303368
v -0.540702 -0.629160 0.327364
v -0.554353 -0.672040 0.344504
v -0.581655 -0.594855 0.347930
v -0.568004 -0.541684 0.344504
v -0.607255 -0.522817 0.327364
v -0.549233 -0.493662 0.342788
v -0.603841 -0.476509 0.329077
v -0.602135 -0.401039 0.334220
v -0.487800 -0.567414 0.272518
v -0.491211 -0.596570 0.248523
v -0.515102 -0.589709 0.227953
v -0.469029 -0.582849 0.248523
v -0.467324 -0.562268 0.234812
v -0.503156 -0.522817 0.318792
v -0.521931 -0.562268 0.322221
v -0.480974 -0.529681 0.263946
v -0.494626 -0.553690 0.217671
v -0.457083 -0.582849 0.219385
v -0.460494 -0.593141 0.234812
v -0.477560 -0.598287 0.238237
v -0.494626 -0.594856 0.222814
v -0.489506 -0.587995 0.210816
v -0.511691 -0.574275 0.214242
v -0.470734 -0.581135 0.209100
v -0.463909 -0.594856 0.209100
v -0.453669 -0.596570 0.215955
v -0.475854 -0.600002 0.210816
v -0.480974 -0.603434 0.219385
v -0.469029 -0.605148 0.227953
v -0.457083 -0.603434 0.224527
v -0.557764 -0.548548 0.226240
v -0.556058 -0.486798 0.229669
v -0.506571 -0.498805 0.236525
v -0.489506 -0.488516 0.270801
v -0.513396 -0.402757 0.241667
v -0.487800 -0.399325 0.272518
v -0.503156 -0.486798 0.318792
v -0.547528 -0.399325 0.341075
v -0.617491 -0.575989 0.327364
v -0.632852 -0.572560 0.294797
v -0.624317 -0.521103 0.291371
v -0.622612 -0.473077 0.293084
v -0.605546 -0.476509 0.253665
v -0.605546 -0.402757 0.258804
v -0.556058 -0.486798 0.229669
v -0.557764 -0.404471 0.243380
v -0.506571 -0.498805 0.236525
v -0.600426 -0.586281 0.234812
v -0.627732 -0.575989 0.260520
v -0.557764 -0.548548 0.226240
v -0.612371 -0.522817 0.253665
v -0.668688 -0.613722 0.299939
v -0.643092 -0.618868 0.339361
v -0.680634 -0.622300 0.325647
v -0.663568 -0.629160 0.349643
v -0.689164 -0.656602 0.363357
v -0.673808 -0.649741 0.387352
v -0.695990 -0.680614 0.375355
v -0.689164 -0.675468 0.392491
v -0.655037 -0.666894 0.401063
v -0.678925 -0.680614 0.402776
v -0.603841 -0.636021 0.365070
v -0.583364 -0.702913 0.359928
v -0.617491 -0.654888 0.382210
v -0.636262 -0.709773 0.377068
v -0.643092 -0.630875 0.370212
v -0.694284 -0.711487 0.390778
v -0.675514 -0.713205 0.383923
v -0.694284 -0.692621 0.394208
v -0.695990 -0.709773 0.375355
v -0.701110 -0.709773 0.380493
v -0.699405 -0.690907 0.383923
v -0.719881 -0.680614 0.356498
v -0.699405 -0.682332 0.366783
v -0.704525 -0.714919 0.354785
v -0.685754 -0.725212 0.315366
v -0.636262 -0.709773 0.377068
v -0.634557 -0.726926 0.310224
v -0.568004 -0.718348 0.310224
v -0.583364 -0.702913 0.359928
v -0.554353 -0.672040 0.344504
v -0.532168 -0.680614 0.303368
v -0.549233 -0.675468 0.258804
v -0.585070 -0.704628 0.255378
v -0.651623 -0.714919 0.243380
v -0.699405 -0.718348 0.245093
v -0.742066 -0.696053 0.334220
v -0.736947 -0.696053 0.347930
v -0.731826 -0.675468 0.341075
v -0.725001 -0.709773 0.351359
v -0.738652 -0.713205 0.346217
v -0.731826 -0.709773 0.330790
v -0.742066 -0.713205 0.334220
v -0.731826 -0.680614 0.320508
v -0.713055 -0.642881 0.335933
v -0.719881 -0.714919 0.315366
v -0.694284 -0.625729 0.301656
v -0.721587 -0.651456 0.305082
v -0.728416 -0.682332 0.308511
v -0.719881 -0.714919 0.279373
v -0.738652 -0.706341 0.281086
v -0.736947 -0.706341 0.298226
v -0.735241 -0.678900 0.299939
v -0.731826 -0.639453 0.281086
v -0.699405 -0.620582 0.279373
v -0.665273 -0.615440 0.262233
v -0.634557 -0.622300 0.234812
v -0.590190 -0.644595 0.231382
v -0.554353 -0.603434 0.234812
v -0.723296 -0.713205 0.255377
v -0.718175 -0.711487 0.260520
v -0.728416 -0.694335 0.246806
v -0.748892 -0.692621 0.293084
v -0.748892 -0.709773 0.294797
v -0.748892 -0.708059 0.284515
v -0.740361 -0.677186 0.269089
v -0.728416 -0.680614 0.262233
v -0.728416 -0.678900 0.251949
v -0.725001 -0.677186 0.234812
v -0.723296 -0.696053 0.234812
v -0.707935 -0.684046 0.222814
v -0.721587 -0.714919 0.243380
v -0.750597 -0.690907 0.279373
v -0.711350 -0.646313 0.234812
v -0.747187 -0.672040 0.282799
v -0.725001 -0.649741 0.257090
v -0.694284 -0.625729 0.257090
v -0.692579 -0.654888 0.219385
v -0.656742 -0.637735 0.226240
v -0.670393 -0.680614 0.217671
v -0.677219 -0.625729 0.239951
v -0.651623 -0.714919 0.243380
v -0.622612 -0.668608 0.224527
v -0.585070 -0.704628 0.255378
v -0.549233 -0.675468 0.258804
v 0.519027 -0.627446 -0.255378
v 0.537798 -0.632589 -0.239951
v 0.558274 -0.618868 -0.262234
v 0.513907 -0.617154 -0.275944
v 0.546329 -0.610294 -0.298227
v 0.512201 -0.617154 -0.299940
v 0.525853 -0.615440 -0.322222
v 0.474659 -0.632589 -0.330790
v 0.490016 -0.642881 -0.363357
v 0.450768 -0.668608 -0.354785
v 0.478071 -0.668608 -0.366783
v 0.447354 -0.699481 -0.351359
v 0.481485 -0.704628 -0.354785
v 0.464419 -0.708059 -0.315366
v 0.517321 -0.718348 -0.317080
v 0.471245 -0.711487 -0.279373
v 0.501962 -0.718348 -0.248523
v 0.472951 -0.709773 -0.248523
v 0.464419 -0.713205 -0.234812
v 0.462714 -0.697767 -0.231382
v 0.563394 -0.716633 -0.262234
v 0.575340 -0.720065 -0.320509
v 0.628243 -0.708059 -0.262234
v 0.490016 -0.699481 -0.395921
v 0.486605 -0.682332 -0.394208
v 0.513907 -0.702913 -0.385636
v 0.490016 -0.697767 -0.380494
v 0.481485 -0.699481 -0.390778
v 0.655544 -0.654888 -0.349643
v 0.619711 -0.684046 -0.359928
v 0.614592 -0.629160 -0.356498
v 0.583875 -0.648027 -0.373638
v 0.559983 -0.697767 -0.373638
v 0.532678 -0.660033 -0.389066
v 0.501962 -0.670326 -0.394208
v 0.491725 -0.663462 -0.389066
v 0.481485 -0.682332 -0.389066
v 0.486605 -0.665179 -0.380494
v 0.510496 -0.644595 -0.382211
v 0.559983 -0.629160 -0.365070
v 0.537798 -0.624014 -0.346217
v 0.568515 -0.615440 -0.332506
v 0.670904 -0.677186 -0.251949
v 0.638483 -0.658319 -0.229669
v 0.628243 -0.708059 -0.262234
v 0.592406 -0.682332 -0.229669
v 0.563394 -0.716633 -0.262234
v 0.541212 -0.687474 -0.222814
v 0.558274 -0.649741 -0.229669
v 0.595820 -0.630875 -0.238238
v 0.662374 -0.612008 -0.233096
v 0.515613 -0.663462 -0.221098
v 0.498550 -0.685760 -0.221098
v 0.469539 -0.714919 -0.231382
v 0.469539 -0.699481 -0.226240
v 0.478071 -0.677186 -0.227953
v 0.495136 -0.649741 -0.233096
v 0.442234 -0.665179 -0.337645
v 0.428583 -0.685760 -0.335933
v 0.426877 -0.701199 -0.339362
v 0.440528 -0.666894 -0.323935
v 0.440528 -0.699481 -0.334220
v 0.428583 -0.701199 -0.347930
v 0.430289 -0.687474 -0.346217
v 0.464419 -0.637735 -0.301656
v 0.467834 -0.636021 -0.274231
v 0.474659 -0.649741 -0.253665
v 0.466125 -0.675468 -0.241667
v 0.433703 -0.689192 -0.279373
v 0.431998 -0.702913 -0.284515
v 0.449060 -0.672040 -0.267375
v 0.464419 -0.675468 -0.257091
v 0.443943 -0.665179 -0.277660
v 0.440528 -0.670326 -0.291371
v 0.428583 -0.690906 -0.286228
v 0.443943 -0.701199 -0.294797
v 0.430289 -0.702913 -0.291371
v 0.447354 -0.702913 -0.281086
v 0.449060 -0.670326 -0.306795
v -0.736947 -0.696053 -0.347930
v -0.742066 -0.696053 -0.334220
v -0.731826 -0.675468 -0.341075
v -0.731826 -0.680614 -0.320508
v -0.742066 -0.713205 -0.334220
v -0.731826 -0.709773 -0.330790
v -0.719881 -0.714919 -0.315366
v -0.725001 -0.709773 -0.351359
v -0.750597 -0.690906 -0.279373
v -0.740361 -0.677186 -0.269089
v -0.747187 -0.672040 -0.282799
v -0.748892 -0.708059 -0.284515
v -0.738652 -0.706341 -0.281086
v -0.748892 -0.709773 -0.294797
v -0.736947 -0.706341 -0.298226
v -0.748892 -0.692620 -0.293084
v -0.735241 -0.678900 -0.299939
v -0.728416 -0.682332 -0.308511
v -0.721587 -0.651456 -0.305082
v -0.713055 -0.642881 -0.335933
v -0.719881 -0.680614 -0.356498
v -0.738652 -0.713205 -0.346217
v -0.719881 -0.714919 -0.279373
v -0.728416 -0.680614 -0.262233
v -0.725001 -0.649741 -0.257090
v -0.731826 -0.639452 -0.281086
v -0.554353 -0.672040 -0.344504
v -0.532168 -0.680614 -0.303368
v -0.549233 -0.675468 -0.258804
v -0.585070 -0.704627 -0.255378
v -0.651623 -0.714919 -0.243380
v -0.699405 -0.718347 -0.245093
v -0.718175 -0.711487 -0.260520
v -0.728416 -0.678900 -0.251949
v -0.711350 -0.646313 -0.234812
v -0.694284 -0.625728 -0.257090
v -0.699405 -0.620582 -0.279373
v -0.694284 -0.625728 -0.301656
v -0.728416 -0.694335 -0.246806
v -0.723296 -0.696053 -0.234812
v -0.725001 -0.677186 -0.234812
v -0.707935 -0.684046 -0.222814
v -0.721587 -0.714919 -0.243380
v -0.665273 -0.615440 -0.262233
v -0.677219 -0.625728 -0.239951
v -0.692579 -0.654888 -0.219385
v -0.723296 -0.713205 -0.255378
v -0.670393 -0.680614 -0.217671
v -0.656742 -0.637735 -0.226240
v -0.634557 -0.622300 -0.234812
v -0.556058 -0.486798 -0.229669
v -0.506571 -0.498804 -0.236525
v -0.557764 -0.404471 -0.243380
v -0.622612 -0.668608 -0.224527
v -0.549233 -0.675468 -0.258804
v -0.590190 -0.644595 -0.231382
v -0.585070 -0.704627 -0.255378
v -0.554353 -0.603434 -0.234812
v -0.600426 -0.586281 -0.234812
v -0.557764 -0.548548 -0.226240
v -0.651623 -0.714919 -0.243380
v -0.627732 -0.575989 -0.260520
v -0.612371 -0.522817 -0.253665
v -0.605546 -0.476509 -0.253665
v -0.605546 -0.402757 -0.258804
v -0.622612 -0.473077 -0.293084
v -0.624317 -0.521103 -0.291371
v -0.632852 -0.572560 -0.294797
v -0.668688 -0.613722 -0.299939
v -0.643092 -0.630874 -0.370212
v -0.617491 -0.654888 -0.382211
v -0.663568 -0.629160 -0.349643
v -0.680634 -0.622300 -0.325647
v -0.554353 -0.672040 -0.344504
v -0.583364 -0.702913 -0.359928
v -0.469029 -0.605148 -0.227953
v -0.480974 -0.603434 -0.219385
v -0.477560 -0.598287 -0.238237
v -0.494626 -0.594855 -0.222814
v -0.475854 -0.600002 -0.210816
v -0.489506 -0.587995 -0.210816
v -0.463909 -0.594855 -0.209100
v -0.470734 -0.581135 -0.209100
v -0.453669 -0.596569 -0.215955
v -0.457083 -0.582849 -0.219385
v -0.457083 -0.603434 -0.224527
v -0.460494 -0.593141 -0.234812
v -0.469029 -0.582849 -0.248523
v -0.491211 -0.596569 -0.248523
v -0.487800 -0.567414 -0.272518
v -0.520222 -0.629160 -0.272518
v -0.540702 -0.629160 -0.327364
v -0.532168 -0.680614 -0.303368
v -0.515102 -0.589709 -0.227953
v -0.511691 -0.574274 -0.214243
v -0.467324 -0.562268 -0.234812
v -0.480974 -0.529681 -0.263946
v -0.494626 -0.553690 -0.217671
v -0.506571 -0.498804 -0.236525
v -0.557764 -0.548548 -0.226240
v -0.556058 -0.486798 -0.229669
v -0.489506 -0.488516 -0.270801
v -0.513396 -0.402757 -0.241667
v -0.503156 -0.522817 -0.318792
v -0.521931 -0.562268 -0.322221
v -0.554353 -0.603434 -0.234812
v -0.590190 -0.644595 -0.231382
v -0.549233 -0.675468 -0.258804
v -0.547528 -0.399325 -0.341075
v -0.503156 -0.486798 -0.318792
v -0.487800 -0.399325 -0.272518
vt 0.82317 0.16499
vt 0.82571 0.19489
vt 0.80597 0.16225
vt 0.80562 0.19167
vt 0.82765 0.23964
vt 0.8049 0.22734
vt 0.80232 0.26286
vt 0.82785 0.27057
vt 0.8257 0.31633
vt 1.06175 0.07176
vt 1.05835 0.06921
vt 1.06114 0.07384
vt 1.0569 0.07585
vt 1.0452 0.08341
vt 1.04369 0.0609
vt 1.06517 0.06464
vt 1.06401 0.07742
vt 1.05164 0.10725
vt 1.0542 0.11311
vt 1.05919 0.10765
vt 1.05942 0.10963
vt 1.04611 0.12305
vt 1.04286 0.09831
vt 1.06297 0.1064
vt 1.06311 0.1131
vt 0.05806 0.07397
vt 0.0576 0.06631
vt 0.06859 0.07019
vt 0.05869 0.06854
vt 0.06549 0.07854
vt 0.04405 0.08542
vt 0.0464 0.06238
vt 0.06346 0.06773
vt 1.06297 0.03709
vt 1.05798 0.03273
vt 1.0629 0.03853
vt 1.05635 0.04195
vt 1.04532 0.04388
vt 1.04451 0.02713
vt 1.06627 0.02808
vt 1.06439 0.04157
vt 1.05194 0.14706
vt 1.05659 0.14392
vt 1.04961 0.13927
vt 1.0578 0.14104
vt 1.06104 0.14644
vt 1.04471 0.15546
vt 1.04269 0.12807
vt 1.06216 0.13635
vt 0.05351 0.10541
vt 0.05966 0.10805
vt 0.05763 0.11482
vt 0.06683 0.10547
vt 0.06325 0.11414
vt 0.04304 0.12523
vt 0.0434 0.10013
vt 0.05969 0.1066
vt 1.0211 0.04697
vt 1.02144 0.04076
vt 1.01326 0.047
vt 1.01398 0.03946
vt 1.0061 0.03325
vt 1.02553 0.03777
vt 1.02544 0.05098
vt 1.00395 0.05791
vt 1.02216 0.0985
vt 1.01588 0.09885
vt 1.02318 0.10364
vt 1.01559 0.10384
vt 1.00923 0.09282
vt 1.02531 0.09557
vt 1.02696 0.10841
vt 1.00748 0.1134
vt 0.05719 0.03015
vt 0.06654 0.03578
vt 0.0578 0.03378
vt 0.05522 0.03777
vt 0.04425 0.04747
vt 0.04749 0.02539
vt 0.06514 0.03233
vt 0.06873 0.04259
vt 0.06201 0.14935
vt 0.04201 0.15326
vt 0.06291 0.14121
vt 0.05403 0.14709
vt 0.04277 0.13442
vt 0.05231 0.13722
vt 0.05701 0.1386
vt 0.05901 0.1367
vt 1.026 0.07033
vt 1.01869 0.06914
vt 1.02629 0.07703
vt 1.01808 0.07759
vt 1.00555 0.08353
vt 1.00287 0.06305
vt 1.02823 0.06577
vt 1.02869 0.08191
vt 1.01543 0.0157
vt 1.02301 0.0163
vt 1.01476 0.0089
vt 1.02222 0.00932
vt 1.02518 0.02083
vt 1.00526 0.02264
vt 1.0065 0.00375
vt 1.02646 0.00636
vt 1.01207 0.13718
vt 1.01643 0.1346
vt 1.01241 0.14311
vt 1.01744 0.14336
vt 1.00731 0.15601
vt 1.00031 0.14104
vt 1.00471 0.12703
vt 1.02136 0.12528
vt 1.02722 0.13786
vt 1.02075 0.15379
vt 0.79701 0.12383
vt 0.8016 0.11821
vt 0.8022 0.136
vt 0.80887 0.13336
vt 0.80643 0.11261
vt 0.81497 0.12918
vt 0.80971 0.10941
vt 0.80418 0.0883
vt 0.78506 0.12259
vt 0.77834 0.09337
vt 0.79675 0.11255
vt 0.80011 0.10945
vt 0.79691 0.10378
vt 0.79669 0.09367
vt 0.82677 0.07753
vt 0.77963 0.07365
vt 0.82747 0.062
vt 0.82642 0.0276
vt 0.78798 0.037
vt 0.79317 0.10786
vt 0.18778 0.26407
vt 0.17473 0.216
vt 0.20979 0.26183
vt 0.19281 0.21286
vt 0.16992 0.18782
vt 0.15099 0.21764
vt 0.14677 0.18973
vt 0.00206 0.28992
vt 0.00278 0.22319
vt 0.03465 0.28452
vt 0.03429 0.22058
vt 0.00353 0.19695
vt 0.04082 0.19032
vt 0.00484 0.17224
vt 0.05283 0.17305
vt 0.05928 0.17206
vt 0.06741 0.18961
vt 0.12851 0.21783
vt 0.14044 0.26497
vt 0.12643 0.19089
vt 0.10678 0.21877
vt 0.10501 0.19374
vt 0.08102 0.21985
vt 0.08139 0.192
vt 0.05859 0.21909
vt 0.05438 0.27896
vt 0.11616 0.26587
vt 0.08586 0.26886
vt 0.08136 0.04018
vt 0.11461 0.03966
vt 0.08102 0.07681
vt 0.08083 0.01131
vt 0.12244 0.01036
vt 0.15602 0.01028
vt 1.09015 0.11177
vt 1.08843 0.11975
vt 1.09529 0.12697
vt 1.09671 0.10593
vt 1.0789 0.114
vt 1.11591 0.08377
vt 1.0809 0.07707
vt 1.11632 0.0768
vt 1.11446 0.03986
vt 1.08144 0.03995
vt 1.08176 0.01047
vt 1.12184 0.01039
vt 1.15611 0.01027
vt 1.15578 0.03964
vt 1.15553 0.07671
vt 1.1619 0.10269
vt 1.13812 0.09973
vt 1.14358 0.09982
vt 1.08685 0.12288
vt 1.08699 0.12701
vt 1.00297 0.19699
vt 1.04108 0.19049
vt 1.00417 0.17152
vt 1.05315 0.1725
vt 1.05905 0.17209
vt 1.06766 0.18953
vt 1.06867 0.17059
vt 1.00261 0.2231
vt 1.03421 0.22063
vt 1.05849 0.2191
vt 1.08153 0.19212
vt 1.08208 0.17819
vt 1.06455 0.15933
vt 1.08432 0.16414
vt 1.06697 0.13493
vt 1.08533 0.14319
vt 1.08624 0.13384
vt 1.09132 0.13182
vt 1.08995 0.1234
vt 1.09444 0.14215
vt 1.09599 0.16708
vt 1.10465 0.18233
vt 1.10539 0.16733
vt 1.10246 0.1395
vt 1.09834 0.12396
vt 1.11455 0.16618
vt 1.10495 0.19379
vt 1.12616 0.19089
vt 1.12408 0.17712
vt 1.12204 0.16199
vt 1.11433 0.1387
vt 1.10365 0.12177
vt 1.1004 0.10977
vt 1.11761 0.09966
vt 1.10614 0.11188
vt 1.11447 0.1051
vt 1.11671 0.11714
vt 1.11992 0.11568
vt 1.12201 0.13522
vt 1.12273 0.1161
vt 1.12904 0.13496
vt 1.12827 0.11845
vt 1.13303 0.11682
vt 1.13026 0.11321
vt 1.13077 0.10622
vt 1.13417 0.10364
vt 1.12639 0.10709
vt 1.1239 0.1024
vt 1.1259 0.11191
vt 1.13677 0.11624
vt 1.13756 0.13118
vt 1.14113 0.11787
vt 1.14682 0.13422
vt 1.14941 0.12036
vt 1.15682 0.13327
vt 1.15799 0.12082
vt 1.16826 0.12964
vt 1.15944 0.1528
vt 1.14868 0.15608
vt 1.13966 0.15532
vt 1.14873 0.10983
vt 1.14703 0.11288
vt 1.153 0.11092
vt 1.15088 0.11266
vt 1.18706 0.12067
vt 1.17751 0.14777
vt 1.16269 0.17238
vt 1.14294 0.17392
vt 1.13045 0.1595
vt 1.18085 0.16643
vt 1.19856 0.14839
vt 1.19664 0.172
vt 1.11165 0.11221
vt 1.1068 0.11388
vt 1.11093 0.11999
vt 1.11198 0.10933
vt 1.19308 0.21286
vt 1.17471 0.21603
vt 1.20979 0.26183
vt 1.16992 0.18782
vt 1.18857 0.18199
vt 1.14662 0.1897
vt 1.03458 0.28433
vt 1.05434 0.27924
vt 1.08101 0.21971
vt 1.10677 0.21872
vt 1.12839 0.21782
vt 1.15091 0.21764
vt 1.18774 0.26408
vt 1.08581 0.26888
vt 1.14031 0.26498
vt 1.11614 0.26588
vt 1.00174 0.28993
vt 1.72198 0.18652
vt 1.77011 0.1889
vt 1.72482 0.16225
vt 1.77101 0.15688
vt 1.78091 0.15637
vt 1.7894 0.17944
vt 1.78998 0.15595
vt 1.80562 0.19167
vt 1.8049 0.22734
vt 1.82765 0.23964
vt 1.80232 0.26286
vt 1.82785 0.27057
vt 1.8257 0.31633
vt 1.76764 0.22942
vt 1.76186 0.20046
vt 1.72832 0.19499
vt 1.76074 0.22057
vt 1.75111 0.23999
vt 1.7813 0.25548
vt 1.78288 0.22006
vt 1.75774 0.25946
vt 1.73976 0.24017
vt 1.75034 0.22697
vt 1.7572 0.21663
vt 1.75346 0.20459
vt 1.73816 0.20232
vt 1.73679 0.21606
vt 1.7318 0.21964
vt 1.7433 0.2252
vt 1.74492 0.21758
vt 1.74983 0.21849
vt 1.74208 0.21204
vt 1.74336 0.20674
vt 1.74982 0.20769
vt 1.7515 0.21323
vt 1.72545 0.24347
vt 1.72388 0.27727
vt 1.74022 0.28189
vt 1.75612 0.27461
vt 1.73831 0.32184
vt 1.7509 0.32494
vt 1.78053 0.27183
vt 1.8013 0.32362
vt 1.82571 0.19489
vt 1.84308 0.19479
vt 1.84672 0.24158
vt 1.84732 0.27322
vt 1.8665 0.26717
vt 1.86153 0.32053
vt 1.88442 0.27309
vt 1.88159 0.32251
vt 1.90234 0.26897
vt 1.87619 0.19814
vt 1.85992 0.19757
vt 1.88409 0.23421
vt 1.86473 0.24086
vt 1.83827 0.16077
vt 1.82317 0.16499
vt 1.83037 0.14778
vt 1.82202 0.15376
vt 1.81497 0.12918
vt 1.80887 0.13336
vt 1.80643 0.11261
vt 1.8016 0.11821
vt 1.8022 0.136
vt 1.79701 0.12383
vt 1.80597 0.16225
vt 1.78522 0.14262
vt 1.8049 0.15157
vt 1.78507 0.12259
vt 1.81601 0.15202
vt 1.79317 0.10786
vt 1.77834 0.09337
vt 1.79675 0.11255
vt 1.79669 0.09367
vt 1.79691 0.10378
vt 1.80011 0.10945
vt 1.81184 0.10852
vt 1.80971 0.10941
vt 1.80418 0.0883
vt 1.82677 0.07753
vt 1.77963 0.07365
vt 1.82747 0.062
vt 1.82642 0.0276
vt 1.78798 0.037
vt 1.78635 0.01411
vt 1.8284 0.00546
vt 1.86255 0.01057
vt 1.86418 0.03091
vt 1.86763 0.06584
vt 1.86708 0.08412
vt 1.82187 0.10054
vt 1.81534 0.10207
vt 1.81905 0.10574
vt 1.80742 0.0928
vt 1.81345 0.09535
vt 1.82411 0.08907
vt 1.82037 0.09341
vt 1.82694 0.10298
vt 1.82509 0.12855
vt 1.82797 0.08311
vt 1.83618 0.14795
vt 1.83212 0.12325
vt 1.82968 0.10173
vt 1.84796 0.08627
vt 1.84369 0.09036
vt 1.83339 0.08777
vt 1.83289 0.10274
vt 1.83971 0.12692
vt 1.84227 0.14362
vt 1.85217 0.16217
vt 1.86649 0.16692
vt 1.87733 0.16788
vt 1.88919 0.19827
vt 1.85629 0.09792
vt 1.85208 0.08775
vt 1.85516 0.10353
vt 1.83524 0.09998
vt 1.83489 0.09228
vt 1.83966 0.09299
vt 1.84206 0.10515
vt 1.84477 0.10559
vt 1.84926 0.1089
vt 1.85777 0.11169
vt 1.86056 0.10603
vt 1.86592 0.1145
vt 1.86061 0.10022
vt 1.83937 0.10114
vt 1.85378 0.13181
vt 1.83743 0.10394
vt 1.84715 0.12668
vt 1.84967 0.14737
vt 1.86139 0.13254
vt 1.86177 0.15085
vt 1.87103 0.12993
vt 1.85439 0.14807
vt 1.87891 0.11874
vt 1.87466 0.14932
vt 1.88817 0.14075
vt 1.88976 0.15419
vt 0.13969 0.15533
vt 0.1487 0.15611
vt 0.14298 0.174
vt 0.13043 0.1595
vt 0.12402 0.17708
vt 0.12206 0.16197
vt 0.11462 0.16615
vt 0.11432 0.13873
vt 0.10249 0.13942
vt 0.1039 0.12181
vt 0.09843 0.12383
vt 0.10042 0.10945
vt 0.09709 0.10623
vt 0.11781 0.09947
vt 0.11589 0.08371
vt 0.13827 0.09936
vt 0.16252 0.10278
vt 0.14363 0.10068
vt 0.14993 0.10774
vt 0.14615 0.11223
vt 0.15559 0.07672
vt 0.11626 0.0769
vt 0.15565 0.03963
vt 0.0861 0.1225
vt 0.08621 0.12714
vt 0.07997 0.11415
vt 0.09004 0.11115
vt 0.08701 0.12051
vt 0.06866 0.1709
vt 0.06406 0.15964
vt 0.08235 0.17818
vt 0.08433 0.16403
vt 0.06686 0.13486
vt 0.08556 0.14279
vt 0.08629 0.13396
vt 0.09117 0.13194
vt 0.08993 0.12347
vt 0.0957 0.12678
vt 0.09439 0.1424
vt 0.09605 0.16696
vt 0.10541 0.16733
vt 0.10455 0.18221
vt 0.19673 0.172
vt 0.18033 0.16621
vt 0.19852 0.14829
vt 0.17741 0.14789
vt 0.18718 0.1208
vt 0.16869 0.12979
vt 0.15947 0.15286
vt 0.16293 0.17246
vt 0.18857 0.18207
vt 0.15674 0.13315
vt 0.15808 0.12091
vt 0.15187 0.10962
vt 0.15114 0.11275
vt 0.14938 0.12039
vt 0.14667 0.13405
vt 0.11093 0.11999
vt 0.11186 0.11226
vt 0.11041 0.10899
vt 0.11691 0.11717
vt 0.11458 0.10506
vt 0.10559 0.11189
vt 0.10588 0.11372
vt 0.12201 0.13527
vt 0.12897 0.13481
vt 0.13757 0.1312
vt 0.1413 0.11775
vt 0.13066 0.11276
vt 0.12943 0.10585
vt 0.13344 0.11691
vt 0.13699 0.11647
vt 0.12802 0.11839
vt 0.12299 0.11603
vt 0.12431 0.11229
vt 0.12386 0.10283
vt 0.12581 0.10587
vt 0.13437 0.10373
vt 0.12022 0.11577
vt 0.81534 0.10207
vt 0.82187 0.10054
vt 0.81905 0.10574
vt 0.82693 0.10298
vt 0.82037 0.09341
vt 0.82411 0.08907
vt 0.82797 0.08311
vt 0.80742 0.0928
vt 0.83937 0.10114
vt 0.84206 0.10515
vt 0.83743 0.10394
vt 0.83966 0.09299
vt 0.84369 0.09036
vt 0.83489 0.09228
vt 0.83339 0.08777
vt 0.83524 0.09998
vt 0.83289 0.10274
vt 0.82968 0.10173
vt 0.83212 0.12325
vt 0.82509 0.12855
vt 0.81184 0.10852
vt 0.81345 0.09535
vt 0.84796 0.08627
vt 0.84477 0.10559
vt 0.84715 0.12668
vt 0.83971 0.12692
vt 0.78635 0.01411
vt 0.8284 0.00546
vt 0.86255 0.01057
vt 0.86418 0.03091
vt 0.86763 0.06584
vt 0.86708 0.08412
vt 0.85208 0.08775
vt 0.84926 0.1089
vt 0.85378 0.13181
vt 0.84967 0.14737
vt 0.84227 0.14362
vt 0.83618 0.14795
vt 0.85516 0.10353
vt 0.86057 0.10603
vt 0.85777 0.11169
vt 0.86592 0.1145
vt 0.86061 0.10022
vt 0.85217 0.16217
vt 0.85439 0.14807
vt 0.86139 0.13254
vt 0.85629 0.09792
vt 0.87103 0.12993
vt 0.86177 0.15085
vt 0.86649 0.16692
vt 0.88441 0.27309
vt 0.90234 0.26897
vt 0.88159 0.32251
vt 0.87466 0.14932
vt 0.88976 0.15419
vt 0.87734 0.16788
vt 0.88817 0.14075
vt 0.88919 0.19827
vt 0.87619 0.19814
vt 0.88409 0.23421
vt 0.87891 0.11874
vt 0.85992 0.19757
vt 0.86473 0.24086
vt 0.8665 0.26717
vt 0.86153 0.32053
vt 0.84732 0.27322
vt 0.84672 0.24158
vt 0.84308 0.19479
vt 0.83827 0.16077
vt 0.81601 0.15202
vt 0.8049 0.15157
vt 0.82202 0.15376
vt 0.83037 0.14778
vt 0.78998 0.15595
vt 0.78522 0.14262
vt 0.74982 0.20769
vt 0.74336 0.20674
vt 0.75346 0.20459
vt 0.73816 0.20232
vt 0.74208 0.21204
vt 0.73679 0.21606
vt 0.74492 0.21758
vt 0.7433 0.2252
vt 0.74983 0.21849
vt 0.75034 0.22697
vt 0.7515 0.21323
vt 0.7572 0.21663
vt 0.76074 0.22057
vt 0.76186 0.20046
vt 0.76764 0.22942
vt 0.77011 0.1889
vt 0.7894 0.17944
vt 0.78091 0.15637
vt 0.72832 0.19499
vt 0.7318 0.21964
vt 0.75111 0.23999
vt 0.75774 0.25946
vt 0.73976 0.24017
vt 0.74022 0.28189
vt 0.72545 0.24347
vt 0.72388 0.27727
vt 0.75612 0.27461
vt 0.73831 0.32184
vt 0.7813 0.25548
vt 0.78288 0.22006
vt 0.72198 0.18652
vt 0.72482 0.16225
vt 0.77101 0.15688
vt 0.8013 0.32362
vt 0.78053 0.27183
vt 0.7509 0.32494
vn -0.8084 -0.3450 -0.4770
vn -0.3653 -0.5705 -0.7356
vn -0.4528 0.2119 -0.8661
vn -0.1724 0.0707 -0.9825
vn -0.1171 -0.6188 -0.7768
vn -0.0193 0.1319 -0.9911
vn 0.0116 0.1099 -0.9939
vn 0.0002 -0.7264 -0.6873
vn 0.0820 -0.5602 -0.8243
vn 0.8601 -0.1808 0.4769
vn -0.1711 -0.8280 0.5340
vn 0.5117 -0.5113 -0.6905
vn -0.3348 -0.9199 -0.2041
vn -0.2650 -0.7519 -0.6037
vn -0.3819 -0.6850 0.6205
vn 0.6987 -0.0677 0.7122
vn 0.7610 0.0745 -0.6444
vn -0.0667 -0.9672 0.2452
vn 0.0429 -0.6599 -0.7501
vn 0.7890 -0.5513 0.2710
vn 0.6520 0.0412 -0.7571
vn 0.0073 -0.1432 -0.9897
vn -0.2917 -0.9409 -0.1719
vn 0.5391 -0.4434 0.7161
vn 0.8723 0.2715 -0.4067
vn -0.3352 -0.9197 0.2042
vn -0.1710 -0.8280 -0.5340
vn 0.5119 -0.5108 0.6907
vn 0.8602 -0.1808 -0.4769
vn 0.7610 0.0744 0.6445
vn -0.2649 -0.7519 0.6037
vn -0.3815 -0.6852 -0.6205
vn 0.6989 -0.0674 -0.7120
vn 0.8137 0.0727 0.5767
vn -0.2419 -0.4276 0.8710
vn 0.5628 -0.4763 -0.6756
vn -0.2691 -0.6005 0.7530
vn -0.2175 -0.9709 -0.0999
vn -0.1866 -0.2856 0.9400
vn 0.7061 0.1020 0.7007
vn 0.6172 -0.2598 -0.7427
vn -0.1612 -0.8267 -0.5391
vn 0.5889 -0.4213 -0.6897
vn -0.2189 -0.9129 0.3444
vn 0.9302 -0.1208 0.3467
vn 0.8089 0.0390 -0.5867
vn -0.1242 -0.6851 -0.7178
vn -0.4977 -0.7357 0.4593
vn 0.5766 -0.0116 0.8169
vn -0.0666 -0.9672 -0.2452
vn 0.7892 -0.5509 -0.2715
vn 0.0424 -0.6602 0.7499
vn 0.6522 0.0413 0.7569
vn 0.8722 0.2715 0.4068
vn 0.0074 -0.1432 0.9897
vn -0.2917 -0.9409 0.1719
vn 0.5391 -0.4434 -0.7161
vn 0.6993 -0.2702 -0.6618
vn 0.7227 -0.6390 0.2633
vn 0.0136 -0.9058 -0.4235
vn -0.2610 -0.8524 0.4530
vn -0.1982 -0.9658 0.1674
vn 0.5185 -0.3519 0.7793
vn 0.8802 0.0192 -0.4742
vn 0.1874 -0.5412 -0.8197
vn 0.9571 -0.2212 0.1873
vn -0.3159 -0.8492 0.4231
vn 0.4044 -0.5354 -0.7415
vn -0.3772 -0.8773 -0.2968
vn -0.3866 -0.6666 0.6373
vn 0.6752 0.0161 0.7375
vn 0.7893 -0.0118 -0.6139
vn -0.0736 -0.7522 -0.6548
vn 0.8140 0.0715 -0.5765
vn 0.5626 -0.4764 0.6756
vn -0.2418 -0.4276 -0.8710
vn -0.2692 -0.6005 -0.7530
vn -0.2172 -0.9710 0.0999
vn -0.1864 -0.2857 -0.9400
vn 0.7061 0.1016 -0.7008
vn 0.6173 -0.2599 0.7426
vn 0.8089 0.0389 0.5867
vn -0.1242 -0.6851 0.7178
vn 0.5891 -0.4207 0.6899
vn -0.1614 -0.8265 0.5393
vn -0.4978 -0.7357 -0.4593
vn -0.2187 -0.9129 -0.3447
vn 0.9302 -0.1208 -0.3467
vn 0.5767 -0.0118 -0.8168
vn 0.9078 0.0471 0.4167
vn -0.1403 -0.5047 0.8518
vn 0.6683 -0.6236 -0.4056
vn -0.4479 -0.6651 0.5975
vn -0.3029 -0.9519 0.0467
vn -0.0812 -0.5443 0.8350
vn 0.8100 0.0004 0.5865
vn 0.4964 -0.4385 -0.7492
vn -0.5685 -0.8206 -0.0575
vn 0.3518 -0.7141 -0.6052
vn -0.2413 -0.6653 0.7066
vn 0.8193 -0.2162 0.5310
vn 0.7421 -0.0892 -0.6643
vn -0.3044 -0.8187 -0.4868
vn -0.3198 -0.6266 0.7107
vn 0.7543 0.0042 0.6565
vn 0.6993 -0.2702 0.6618
vn 0.0136 -0.9059 0.4233
vn 0.7223 -0.6395 -0.2633
vn -0.2611 -0.8524 -0.4530
vn -0.1986 -0.9657 -0.1675
vn 0.5185 -0.3518 -0.7793
vn 0.8801 0.0194 0.4743
vn 0.1873 -0.5413 0.8197
vn 0.4961 -0.4382 0.7496
vn -0.3028 -0.9519 -0.0467
vn 0.6685 -0.6235 0.4053
vn -0.4475 -0.6653 -0.5976
vn -0.0811 -0.5442 -0.8350
vn -0.1399 -0.5050 -0.8517
vn 0.9078 0.0477 -0.4167
vn 0.8100 0.0006 -0.5865
vn -0.3782 -0.8768 0.2971
vn -0.3162 -0.8491 -0.4232
vn 0.4042 -0.5362 0.7410
vn 0.9569 -0.2208 -0.1885
vn 0.7893 -0.0118 0.6139
vn -0.0734 -0.7523 0.6548
vn -0.3866 -0.6674 -0.6365
vn 0.6752 0.0161 -0.7375
vn 0.8192 -0.2160 -0.5312
vn 0.3518 -0.7142 0.6051
vn -0.2413 -0.6653 -0.7065
vn -0.5685 -0.8207 0.0575
vn -0.3198 -0.6270 -0.7104
vn 0.7542 0.0042 -0.6566
vn 0.7421 -0.0893 0.6643
vn -0.3041 -0.8188 0.4868
vn 0.8150 -0.4695 0.3397
vn 0.9697 0.1901 -0.1537
vn 0.4716 0.0520 0.8803
vn 0.4160 0.8135 0.4064
vn -0.0193 0.2230 0.9746
vn 0.4085 -0.4340 0.8030
vn 0.8006 -0.5963 0.0581
vn 0.7978 -0.0979 -0.5948
vn 0.3280 0.7706 -0.5464
vn -0.1594 0.8988 0.4084
vn 0.0161 -0.2152 -0.9765
vn -0.4448 -0.6937 -0.5665
vn -0.2076 0.0943 -0.9737
vn -0.6632 -0.5346 -0.5238
vn -0.2646 -0.9562 -0.1252
vn -0.5680 -0.6098 -0.5528
vn -0.0396 -0.6474 -0.7611
vn 0.7306 -0.5345 -0.4249
vn 0.7664 0.2434 -0.5944
vn 0.7873 0.0315 -0.6158
vn -0.0810 -0.5441 -0.8351
vn -0.3028 -0.9519 -0.0467
vn 0.4961 -0.4382 0.7496
vn 0.7944 -0.6070 0.0228
vn 0.9942 -0.0982 -0.0430
vn 0.7664 0.2434 -0.5944
vn 0.9963 0.0785 0.0352
vn 0.8549 0.5129 -0.0780
vn 0.3292 0.5639 -0.7574
vn 0.8100 0.0007 -0.5864
vn 0.1598 -0.2345 0.9589
vn 0.0194 -0.2001 0.9796
vn 0.1873 0.2405 0.9524
vn 0.0780 0.3255 0.9423
vn -0.1136 -0.2474 0.9622
vn -0.0234 -0.6453 0.7636
vn -0.3081 -0.6780 0.6674
vn 0.1873 0.2406 0.9524
vn 0.0780 0.3255 0.9423
vn 0.2412 0.9033 0.3547
vn 0.1595 0.9653 0.2067
vn 0.0855 0.4229 0.9021
vn 0.1753 0.9590 0.2228
vn 0.1671 0.2272 0.9594
vn 0.5845 0.6879 0.4304
vn 0.4242 0.8672 -0.2608
vn -0.0080 0.7730 -0.6343
vn -0.1396 -0.9830 0.1195
vn 0.0037 -0.9960 -0.0897
vn -0.3859 -0.9051 -0.1787
vn -0.1599 -0.6921 -0.7038
vn -0.3162 -0.5216 -0.7924
vn -0.1600 0.0590 -0.9853
vn -0.2191 0.1408 -0.9655
vn -0.0236 0.7459 -0.6656
vn 0.0622 0.6770 -0.7334
vn -0.1286 -0.4694 -0.8736
vn -0.0938 0.0748 -0.9928
vn 0.2856 0.4038 -0.8691
vn 0.8189 0.4892 -0.3003
vn 0.6537 0.2322 -0.7202
vn 0.1907 0.5403 -0.8196
vn 0.4242 0.8672 -0.2609
vn 0.5845 0.6878 0.4304
vn 0.8331 -0.5525 -0.0267
vn 0.6172 -0.2598 -0.7426
vn -0.2540 -0.9353 0.2465
vn 0.7773 -0.4446 0.4452
vn 0.6917 0.1020 0.7149
vn 0.9883 -0.0748 0.1330
vn 0.6538 0.2321 0.7202
vn 0.9874 0.0863 0.1328
vn 0.8188 0.4892 0.3003
vn 0.2857 0.4033 0.8693
vn 0.1906 0.5404 0.8195
vn 0.4242 0.8672 0.2609
vn 0.5845 0.6879 -0.4303
vn 0.8485 0.2790 -0.4497
vn 0.9208 0.0941 -0.3785
vn 0.9651 -0.0468 -0.2577
vn 0.8409 -0.4699 -0.2685
vn 0.4794 -0.8501 0.2180
vn 0.7061 0.1020 0.7007
vn -0.1866 -0.2855 0.9400
vn 0.0856 0.4229 -0.9021
vn 0.1754 0.9589 -0.2229
vn 0.1672 0.2271 -0.9594
vn 0.5845 0.6879 -0.4303
vn 0.4242 0.8672 0.2608
vn -0.0080 0.7730 0.6344
vn 0.1906 0.5404 0.8196
vn 0.0780 0.3255 -0.9423
vn 0.1595 0.9653 -0.2068
vn -0.0236 0.7459 0.6656
vn -0.2187 0.1405 0.9656
vn -0.3746 0.0556 0.9255
vn 0.2857 0.4033 0.8693
vn -0.1914 0.2630 0.9456
vn 0.6538 0.2321 0.7202
vn -0.2306 0.1493 0.9615
vn -0.1173 -0.0002 0.9931
vn -0.4891 -0.4245 0.7620
vn -0.2175 -0.9709 -0.0999
vn -0.7297 -0.2587 0.6330
vn -0.7610 0.0313 0.6480
vn -0.8111 -0.3167 0.4918
vn -0.9099 -0.1687 0.3791
vn -0.7192 -0.4474 0.5316
vn -0.0274 -0.5839 0.8114
vn -0.9475 -0.1842 0.2614
vn -0.3159 -0.5218 0.7924
vn -0.3855 -0.9052 0.1787
vn -0.9040 -0.4230 -0.0621
vn -0.9564 -0.2904 0.0311
vn -0.8232 -0.5172 0.2342
vn -0.3973 -0.5364 0.7446
vn 0.6102 -0.2629 0.7473
vn 0.8722 -0.4887 0.0194
vn 0.6987 -0.0677 0.7122
vn 0.8865 -0.2524 -0.3878
vn -0.1841 -0.8626 -0.4713
vn -0.0582 -0.9873 0.1479
vn -0.7473 -0.6645 -0.0078
vn -0.4318 -0.8753 0.2176
vn -0.7094 -0.6067 -0.3587
vn -0.4710 -0.8175 -0.3313
vn 0.0343 -0.5454 -0.8375
vn -0.1242 -0.6851 -0.7178
vn 0.8089 0.0389 -0.5866
vn 0.9112 -0.1999 -0.3602
vn 0.5766 -0.0116 0.8169
vn 0.4070 -0.6029 0.6862
vn -0.4977 -0.7357 0.4593
vn 0.0973 -0.9022 -0.4202
vn -0.5386 -0.6310 -0.5582
vn -0.2958 -0.9017 -0.3154
vn -0.6173 -0.4081 -0.6726
vn -0.3357 -0.4552 -0.8247
vn -0.2809 -0.0744 -0.9568
vn 0.2070 -0.0277 -0.9780
vn 0.3672 0.1217 -0.9221
vn -0.2772 0.0863 -0.9569
vn -0.7140 -0.0864 -0.6948
vn -0.8285 -0.2591 -0.4965
vn 0.5391 -0.4434 0.7161
vn -0.2917 -0.9410 -0.1718
vn 0.8723 0.2714 -0.4067
vn 0.0074 -0.1432 -0.9897
vn 0.9208 0.0941 -0.3786
vn 0.2935 0.1298 -0.9471
vn -0.3636 -0.1530 -0.9189
vn -0.8087 -0.2671 -0.5240
vn -0.9466 -0.2435 -0.2114
vn 0.1672 0.2271 -0.9594
vn 0.8485 0.2790 -0.4497
vn 0.5845 0.6879 -0.4303
vn -0.2649 -0.7520 -0.6036
vn -0.3818 -0.6850 0.6205
vn -0.6201 -0.7524 0.2225
vn 0.7611 0.0744 -0.6444
vn 0.0780 0.3255 -0.9423
vn 0.0195 -0.2001 -0.9796
vn 0.1875 0.2405 -0.9524
vn -0.1134 -0.2475 -0.9622
vn 0.0856 0.4229 -0.9021
vn -0.3082 -0.6779 -0.6674
vn 0.2411 0.9034 -0.3545
vn 0.0621 0.6770 0.7334
vn -0.1600 0.0590 0.9853
vn -0.1599 -0.6921 0.7039
vn -0.1396 -0.9830 -0.1195
vn -0.0233 -0.6453 -0.7636
vn 0.1598 -0.2346 -0.9589
vn -0.0939 0.0748 0.9928
vn 0.0038 -0.9960 0.0896
vn -0.1286 -0.4694 0.8736
vn 0.1875 0.2406 -0.9524
vn -0.0194 0.2230 -0.9746
vn 0.4721 0.0524 -0.8800
vn 0.4085 -0.4340 -0.8030
vn 0.4158 0.8139 -0.4059
vn -0.1593 0.8988 -0.4085
vn 0.3280 0.7706 0.5464
vn 0.9695 0.1905 0.1541
vn 0.8151 -0.4694 -0.3396
vn 0.8005 -0.5964 -0.0582
vn 0.7978 -0.0980 0.5949
vn 0.2963 0.1174 -0.9478
vn 0.5162 0.7853 -0.3419
vn 0.1208 0.2748 -0.9539
vn 0.4746 0.6444 -0.5995
vn 0.4049 0.9029 0.1441
vn 0.1011 0.7427 0.6620
vn 0.1517 0.6743 0.7227
vn -0.1724 0.0707 0.9825
vn -0.0195 0.1316 0.9911
vn -0.1169 -0.6188 0.7768
vn 0.0117 0.1099 0.9939
vn 0.0003 -0.7264 0.6873
vn 0.0823 -0.5603 0.8242
vn 0.2177 0.8203 0.5289
vn 0.9217 0.3234 0.2140
vn 0.7093 -0.1763 -0.6825
vn 0.2224 0.7266 0.6501
vn -0.4214 0.9029 0.0843
vn 0.0816 0.7863 0.6125
vn 0.1518 0.6498 0.7448
vn -0.1596 0.9857 0.0544
vn -0.4918 0.3477 -0.7983
vn -0.3632 0.9279 -0.0838
vn 0.3671 0.6633 0.6522
vn 0.8678 -0.0151 0.4966
vn 0.8700 -0.4079 -0.2770
vn 0.3785 -0.3018 -0.8750
vn 0.1209 -0.2784 -0.9528
vn -0.2809 0.2510 -0.9263
vn -0.0195 0.2230 -0.9746
vn -0.1593 0.8988 -0.4084
vn 0.4085 -0.4340 -0.8030
vn 0.8006 -0.5964 -0.0583
vn 0.7978 -0.0980 0.5949
vn 0.3279 0.7707 0.5464
vn -0.0355 -0.2472 -0.9683
vn -0.0899 -0.2115 -0.9732
vn -0.2029 0.4472 -0.8711
vn -0.0815 0.9873 -0.1363
vn 0.0351 0.4619 -0.8862
vn 0.0583 0.9848 -0.1637
vn -0.0078 0.7660 0.6428
vn 0.0510 0.1759 0.9831
vn -0.3653 -0.5705 0.7356
vn -0.4089 -0.8769 0.2525
vn -0.1281 -0.9870 0.0973
vn -0.0429 -0.9980 -0.0471
vn -0.0625 -0.7522 -0.6560
vn -0.0040 -0.6618 -0.7497
vn -0.0899 -0.2115 -0.9732
vn -0.0038 -0.1727 -0.9850
vn -0.2028 0.4471 -0.8712
vn -0.1834 -0.2360 -0.9543
vn -0.4290 -0.7364 -0.5231
vn -0.0355 -0.2472 -0.9683
vn -0.1012 -0.7314 -0.6744
vn -0.8675 -0.4833 0.1175
vn -0.8082 -0.3452 0.4771
vn -0.8658 -0.3488 0.3589
vn -0.8298 -0.3914 0.3977
vn -0.5678 -0.6098 0.5528
vn -0.6632 -0.5345 0.5239
vn -0.2647 -0.9562 0.1252
vn -0.4449 -0.6936 0.5665
vn -0.2074 0.0944 0.9737
vn 0.0161 -0.2152 0.9765
vn -0.4528 0.2120 0.8660
vn 0.3292 0.5638 0.7574
vn -0.2070 0.4155 0.8857
vn 0.7664 0.2434 0.5944
vn -0.7961 -0.0121 0.6051
vn 0.8100 0.0005 0.5864
vn 0.7873 0.0315 0.6158
vn -0.0811 -0.5442 0.8350
vn 0.7943 -0.6071 -0.0231
vn 0.4965 -0.4386 -0.7491
vn -0.3029 -0.9519 0.0466
vn -0.2414 -0.5282 0.8141
vn -0.0394 -0.6475 0.7610
vn 0.7305 -0.5345 0.4250
vn 0.9942 -0.0982 0.0430
vn 0.7664 0.2434 0.5944
vn 0.9963 0.0784 -0.0352
vn 0.8549 0.5130 0.0779
vn 0.3292 0.5638 0.7574
vn 0.1518 0.6743 0.7227
vn 0.4050 0.9029 0.1441
vn 0.4747 0.6444 -0.5995
vn 0.6875 0.3492 -0.6367
vn 0.8277 0.1256 -0.5468
vn 0.9300 -0.1366 -0.3413
vn -0.3044 -0.8187 -0.4868
vn -0.3197 -0.6266 0.7107
vn -0.4558 -0.8378 0.3005
vn 0.6404 -0.3176 0.6994
vn 0.7543 0.0042 0.6565
vn 0.8868 -0.2331 -0.3992
vn 0.7422 -0.0893 -0.6642
vn -0.1014 -0.9211 -0.3760
vn -0.6502 -0.6799 0.3391
vn 0.8083 -0.5879 0.0313
vn -0.8297 -0.5050 0.2379
vn -0.4559 -0.8420 0.2886
vn -0.0194 -0.9448 0.3271
vn 0.7991 -0.5077 -0.3221
vn 0.9052 -0.2040 -0.3727
vn 0.3989 -0.5757 0.7137
vn -0.2139 -0.7189 0.6614
vn -0.6286 -0.7522 0.1976
vn -0.9027 -0.4160 -0.1096
vn -0.8692 -0.3801 -0.3162
vn -0.4679 -0.1762 -0.8660
vn 0.1208 0.2748 -0.9539
vn 0.2962 0.1173 -0.9479
vn 0.5185 -0.3519 0.7793
vn 0.5110 -0.8282 0.2301
vn -0.1981 -0.9658 0.1674
vn -0.3865 -0.6666 0.6373
vn 0.6753 0.0161 0.7374
vn 0.7894 -0.0119 -0.6138
vn 0.1516 -0.5854 -0.7964
vn 0.2378 -0.8960 -0.3750
vn -0.0544 -0.9960 -0.0703
vn -0.1400 -0.8483 -0.5107
vn 0.1874 -0.5412 -0.8197
vn 0.1875 -0.3293 -0.9254
vn 0.8803 0.0191 -0.4741
vn -0.0736 -0.7522 -0.6548
vn -0.5029 -0.6536 -0.5657
vn -0.3625 -0.9319 0.0079
vn -0.4367 -0.7909 -0.4287
vn -0.8400 -0.4514 -0.3010
vn -0.3351 -0.2193 -0.9163
vn -0.3786 0.0235 -0.9253
vn 0.2497 0.0431 -0.9674
vn -0.7856 -0.2474 -0.5671
vn 0.8277 0.1256 -0.5469
vn 0.1172 0.2197 -0.9685
vn 0.6875 0.3492 -0.6367
vn 0.4746 0.6444 -0.5995
vn -0.8284 -0.2591 0.4965
vn -0.7140 -0.0863 0.6948
vn -0.8086 -0.2671 0.5242
vn -0.9466 -0.2436 0.2114
vn -0.9041 -0.4228 0.0622
vn -0.9564 -0.2904 -0.0312
vn -0.9475 -0.1841 -0.2614
vn -0.8232 -0.5172 -0.2342
vn -0.7193 -0.4473 -0.5315
vn -0.3973 -0.5364 -0.7446
vn -0.0274 -0.5838 -0.8114
vn 0.6102 -0.2631 -0.7473
vn 0.7774 -0.4447 -0.4448
vn 0.8723 -0.4886 -0.0194
vn 0.9883 -0.0747 -0.1329
vn 0.8409 -0.4699 0.2685
vn 0.9651 -0.0470 0.2578
vn 0.4794 -0.8501 -0.2179
vn 0.5391 -0.4435 -0.7160
vn -0.2916 -0.9410 0.1718
vn 0.9208 0.0942 0.3785
vn 0.9874 0.0863 -0.1328
vn 0.8485 0.2790 0.4497
vn 0.7061 0.1016 -0.7008
vn -0.1860 -0.2857 -0.9401
vn 0.6918 0.1019 -0.7149
vn 0.8330 -0.5526 0.0274
vn 0.6173 -0.2599 0.7425
vn 0.1906 0.5403 -0.8196
vn 0.2856 0.4038 -0.8691
vn -0.3747 0.0556 -0.9255
vn -0.1915 0.2631 -0.9456
vn 0.6537 0.2322 -0.7202
vn -0.2305 0.1492 -0.9616
vn -0.1172 -0.0002 -0.9931
vn -0.4892 -0.4244 -0.7620
vn -0.2173 -0.9710 0.0999
vn -0.2541 -0.9353 -0.2463
vn -0.7298 -0.2587 -0.6329
vn -0.7610 0.0313 -0.6480
vn -0.9099 -0.1687 -0.3791
vn -0.8110 -0.3170 -0.4918
vn 0.5845 0.6879 0.4304
vn 0.1671 0.2272 0.9594
vn 0.8485 0.2790 0.4497
vn 0.2935 0.1301 0.9471
vn 0.9208 0.0942 0.3786
vn 0.3672 0.1216 0.9222
vn -0.2772 0.0863 0.9569
vn -0.3636 -0.1532 0.9188
vn 0.0855 0.4229 0.9021
vn -0.2809 -0.0745 0.9568
vn 0.2071 -0.0277 0.9779
vn 0.8723 0.2714 0.4068
vn 0.0074 -0.1432 0.9897
vn -0.3357 -0.4552 0.8247
vn -0.6172 -0.4081 0.6726
vn -0.6201 -0.7524 -0.2225
vn -0.2649 -0.7520 0.6037
vn 0.7610 0.0743 0.6444
vn -0.1841 -0.8625 0.4713
vn 0.8865 -0.2524 0.3878
vn 0.6989 -0.0674 -0.7120
vn -0.3814 -0.6852 -0.6205
vn -0.7473 -0.6644 0.0079
vn -0.7095 -0.6066 0.3589
vn -0.5386 -0.6310 0.5583
vn -0.2958 -0.9017 0.3154
vn -0.1242 -0.6851 0.7178
vn 0.8089 0.0389 0.5866
vn 0.0344 -0.5454 0.8375
vn 0.0973 -0.9022 0.4202
vn -0.4710 -0.8175 0.3313
vn -0.4319 -0.8753 -0.2177
vn -0.4977 -0.7357 -0.4593
vn 0.4071 -0.6030 -0.6860
vn 0.5767 -0.0119 -0.8169
vn 0.9112 -0.1998 0.3603
vn -0.0582 -0.9873 -0.1479
vn -0.3197 -0.6270 -0.7104
vn -0.3041 -0.8189 0.4868
vn -0.4558 -0.8378 -0.3005
vn -0.1014 -0.9211 0.3760
vn 0.7421 -0.0893 0.6643
vn 0.8867 -0.2326 0.3995
vn 0.8082 -0.5880 -0.0313
vn 0.6404 -0.3176 -0.6993
vn -0.0733 -0.7522 0.6548
vn 0.1519 -0.5856 0.7963
vn -0.3625 -0.9320 -0.0080
vn 0.7893 -0.0118 0.6138
vn 0.9051 -0.2047 0.3727
vn 0.6752 0.0160 -0.7375
vn 0.3988 -0.5762 -0.7134
vn -0.3866 -0.6666 -0.6373
vn -0.2139 -0.7189 -0.6614
vn -0.0194 -0.9448 -0.3270
vn -0.4559 -0.8420 -0.2885
vn -0.6502 -0.6799 -0.3390
vn -0.2413 -0.5283 -0.8141
vn 0.7543 0.0042 -0.6565
vn 0.7990 -0.5078 0.3221
vn 0.2377 -0.8961 0.3749
vn -0.4367 -0.7909 0.4287
vn -0.6286 -0.7522 -0.1976
vn 0.1518 0.6744 -0.7226
vn 0.4050 0.9029 -0.1441
vn 0.4747 0.6444 0.5995
vn 0.6874 0.3494 0.6367
vn 0.8277 0.1255 0.5469
vn 0.9300 -0.1367 0.3411
vn 0.5110 -0.8282 -0.2300
vn -0.0544 -0.9960 0.0702
vn -0.5030 -0.6536 0.5655
vn -0.8400 -0.4514 0.3009
vn -0.9027 -0.4161 0.1096
vn -0.8297 -0.5050 -0.2378
vn -0.1985 -0.9657 -0.1676
vn 0.1874 -0.5413 0.8197
vn -0.1401 -0.8483 0.5107
vn 0.1875 -0.3291 0.9255
vn 0.8802 0.0193 0.4743
vn -0.8692 -0.3801 0.3161
vn -0.7856 -0.2474 0.5671
vn -0.3350 -0.2191 0.9164
vn 0.5185 -0.3518 -0.7793
vn 0.2497 0.0431 0.9674
vn -0.3785 0.0236 0.9253
vn -0.4679 -0.1760 0.8661
vn -0.0896 -0.2115 0.9733
vn -0.2029 0.4470 0.8712
vn -0.0039 -0.1727 0.9850
vn 0.1170 0.2198 0.9685
vn 0.4747 0.6444 0.5995
vn 0.1208 0.2748 0.9539
vn 0.6874 0.3494 0.6367
vn 0.2962 0.1174 0.9479
vn -0.1836 -0.2358 0.9543
vn -0.0393 -0.2472 0.9682
vn 0.8277 0.1256 0.5470
vn -0.4290 -0.7365 0.5230
vn -0.1012 -0.7313 0.6745
vn -0.0624 -0.7522 0.6560
vn -0.0039 -0.6620 0.7495
vn -0.0429 -0.9980 0.0468
vn -0.1281 -0.9870 -0.0972
vn -0.4089 -0.8769 -0.2525
vn -0.8676 -0.4833 -0.1175
vn -0.7961 -0.0120 -0.6051
vn -0.2069 0.4156 -0.8857
vn -0.8298 -0.3914 -0.3977
vn -0.8658 -0.3487 -0.3589
vn 0.1518 0.6743 -0.7227
vn 0.3292 0.5639 -0.7574
vn 0.7979 -0.0979 -0.5948
vn 0.8007 -0.5963 0.0581
vn 0.8680 -0.0151 -0.4964
vn 0.8700 -0.4079 0.2770
vn 0.4085 -0.4340 0.8030
vn 0.3785 -0.3020 0.8750
vn -0.0194 0.2230 0.9746
vn -0.2809 0.2511 0.9263
vn -0.1595 0.8988 0.4084
vn -0.3635 0.9278 0.0837
vn 0.3279 0.7707 -0.5464
vn 0.3669 0.6633 -0.6523
vn 0.2225 0.7265 -0.6502
vn 0.9216 0.3236 -0.2141
vn 0.2176 0.8203 -0.5289
vn 0.5163 0.7852 0.3418
vn 0.1010 0.7426 -0.6620
vn 0.4050 0.9029 -0.1441
vn 0.7093 -0.1762 0.6825
vn 0.1208 -0.2784 0.9528
vn -0.4211 0.9031 -0.0841
vn -0.1595 0.9857 -0.0543
vn -0.4918 0.3477 0.7983
vn -0.2030 0.4471 0.8712
vn -0.0393 -0.2472 0.9682
vn -0.0896 -0.2115 0.9733
vn -0.0814 0.9873 0.1363
vn 0.0351 0.4619 0.8862
vn 0.0816 0.7863 -0.6125
vn 0.1519 0.6497 -0.7449
vn 0.2963 0.1174 0.9479
vn 0.1208 0.2748 0.9539
vn 0.4746 0.6444 0.5995
vn 0.0506 0.1762 -0.9830
vn -0.0079 0.7659 -0.6429
vn 0.0583 0.9848 0.1638
usemtl mat0
f 1/1/1 2/2/2 3/3/3
f 4/4/4 3/3/3 2/2/2
f 2/2/2 5/5/5 4/4/4
f 6/6/6 4/4/4 5/5/5
f 6/6/6 5/5/5 7/7/7
f 8/8/8 7/7/7 5/5/5
f 8/8/8 9/9/9 7/7/7
f 10/10/10 11/11/11 12/12/12
f 13/13/13 12/12/12 11/11/11
f 13/13/13 14/14/14 12/12/12
f 14/14/14 13/13/13 15/15/15
f 11/11/11 15/15/15 13/13/13
f 15/15/15 11/11/11 16/16/16
f 10/10/10 16/16/16 11/11/11
f 16/16/16 10/10/10 17/17/17
f 12/12/12 17/17/17 10/10/10
f 17/17/17 12/12/12 14/14/14
f 18/18/18 19/19/19 20/20/20
f 21/21/21 20/20/20 19/19/19
f 19/19/19 22/22/22 21/21/21
f 22/22/22 19/19/19 23/23/23
f 18/18/18 23/23/23 19/19/19
f 23/23/23 18/18/18 24/24/24
f 20/20/20 24/24/24 18/18/18
f 24/24/24 20/20/20 25/25/25
f 21/21/21 25/25/25 20/20/20
f 25/25/25 21/21/21 22/22/22
f 26/26/26 27/27/27 28/28/28
f 29/29/29 28/28/28 27/27/27
f 28/28/28 29/29/29 30/30/30
f 30/30/30 31/31/31 28/28/28
f 26/26/26 28/28/28 31/31/31
f 31/31/31 32/32/32 26/26/26
f 27/27/27 26/26/26 32/32/32
f 32/32/32 33/33/33 27/27/27
f 29/29/29 27/27/27 33/33/33
f 33/33/33 30/30/30 29/29/29
f 34/34/34 35/35/35 36/36/36
f 37/37/37 36/36/36 35/35/35
f 37/37/37 38/38/38 36/36/36
f 38/38/38 37/37/37 39/39/39
f 35/35/35 39/39/39 37/37/37
f 39/39/39 35/35/35 40/40/40
f 34/34/34 40/40/40 35/35/35
f 40/40/40 34/34/34 41/41/41
f 36/36/36 41/41/41 34/34/34
f 41/41/41 36/36/36 38/38/38
f 42/42/42 43/43/43 44/44/44
f 45/45/45 44/44/44 43/43/43
f 43/43/43 46/46/46 45/45/45
f 46/46/46 43/43/43 47/47/47
f 42/42/42 47/47/47 43/43/43
f 47/47/47 42/42/42 48/48/48
f 44/44/44 48/48/48 42/42/42
f 48/48/48 44/44/44 49/49/49
f 45/45/45 49/49/49 44/44/44
f 49/49/49 45/45/45 46/46/46
f 50/50/50 51/51/51 52/52/52
f 53/53/53 52/52/52 51/51/51
f 53/53/53 51/51/51 54/54/54
f 54/54/54 55/55/55 53/53/53
f 52/52/52 53/53/53 55/55/55
f 55/55/55 56/56/56 52/52/52
f 50/50/50 52/52/52 56/56/56
f 56/56/56 57/57/57 50/50/50
f 51/51/51 50/50/50 57/57/57
f 57/57/57 54/54/54 51/51/51
f 58/58/58 59/59/59 60/60/60
f 61/61/61 60/60/60 59/59/59
f 61/61/61 62/62/62 60/60/60
f 62/62/62 61/61/61 63/63/63
f 59/59/59 63/63/63 61/61/61
f 63/63/63 59/59/59 64/64/64
f 58/58/58 64/64/64 59/59/59
f 64/64/64 58/58/58 65/65/65
f 60/60/60 65/65/65 58/58/58
f 65/65/65 60/60/60 62/62/62
f 66/66/66 67/67/67 68/68/68
f 69/69/69 68/68/68 67/67/67
f 67/67/67 70/70/70 69/69/69
f 70/70/70 67/67/67 71/71/71
f 66/66/66 71/71/71 67/67/67
f 71/71/71 66/66/66 72/72/72
f 68/68/68 72/72/72 66/66/66
f 72/72/72 68/68/68 73/73/73
f 69/69/69 73/73/73 68/68/68
f 73/73/73 69/69/69 70/70/70
f 74/74/74 75/75/75 76/76/76
f 77/77/77 76/76/76 75/75/75
f 77/77/77 75/75/75 78/78/78
f 78/78/78 79/79/79 77/77/77
f 76/76/76 77/77/77 79/79/79
f 79/79/79 80/80/80 76/76/76
f 74/74/74 76/76/76 80/80/80
f 80/80/80 81/81/81 74/74/74
f 75/75/75 74/74/74 81/81/81
f 81/81/81 78/78/78 75/75/75
f 82/82/82 83/83/83 84/84/84
f 85/85/85 84/84/84 83/83/83
f 83/83/83 86/86/86 85/85/85
f 87/87/87 85/85/85 86/86/86
f 85/85/85 87/87/87 84/84/84
f 88/88/88 84/84/84 87/87/87
f 84/84/84 88/88/88 82/82/82
f 89/89/89 82/82/82 88/88/88
f 88/88/88 87/87/87 89/89/89
f 86/86/86 89/89/89 87/87/87
f 90/90/90 91/91/91 92/92/92
f 93/93/93 92/92/92 91/91/91
f 93/93/93 94/94/94 92/92/92
f 94/94/94 93/93/93 95/95/95
f 91/91/91 95/95/95 93/93/93
f 95/95/95 91/91/91 96/96/96
f 90/90/90 96/96/96 91/91/91
f 96/96/96 90/90/90 97/97/97
f 92/92/92 97/97/97 90/90/90
f 97/97/97 92/92/92 94/94/94
f 98/98/98 99/99/99 100/100/100
f 101/101/101 100/100/100 99/99/99
f 99/99/99 102/102/102 101/101/101
f 102/102/102 99/99/99 103/103/103
f 98/98/98 103/103/103 99/99/99
f 103/103/103 98/98/98 104/104/104
f 100/100/100 104/104/104 98/98/98
f 104/104/104 100/100/100 105/105/105
f 101/101/101 105/105/105 100/100/100
f 105/105/105 101/101/101 102/102/102
f 106/58/106 107/60/107 108/59/108
f 109/61/109 108/59/108 107/60/107
f 109/61/109 107/60/107 110/62/110
f 110/62/110 111/63/111 109/61/109
f 108/59/108 109/61/109 111/63/111
f 111/63/111 112/64/112 108/59/108
f 106/58/106 108/59/108 112/64/112
f 112/64/112 113/65/113 106/58/106
f 107/60/107 106/58/106 113/65/113
f 113/65/113 110/62/110 107/60/107
f 114/97/114 115/94/115 116/92/116
f 117/93/117 116/92/116 115/94/115
f 115/94/115 118/95/118 117/93/117
f 119/91/119 117/93/117 118/95/118
f 117/93/117 119/91/119 116/92/116
f 120/90/120 116/92/116 119/91/119
f 116/92/116 120/90/120 114/97/114
f 121/96/121 114/97/114 120/90/120
f 120/90/120 119/91/119 121/96/121
f 118/95/118 121/96/121 119/91/119
f 122/69/122 123/67/123 124/68/124
f 125/66/125 124/68/124 123/67/123
f 124/68/124 125/66/125 126/72/126
f 126/72/126 127/73/127 124/68/124
f 122/69/122 124/68/124 127/73/127
f 127/73/127 128/70/128 122/69/122
f 123/67/123 122/69/122 128/70/128
f 128/70/128 129/71/129 123/67/123
f 125/66/125 123/67/123 129/71/129
f 129/71/129 126/72/126 125/66/125
f 130/101/130 131/99/131 132/100/132
f 133/98/133 132/100/132 131/99/131
f 132/100/132 133/98/133 134/104/134
f 134/104/134 135/105/135 132/100/132
f 130/101/130 132/100/132 135/105/135
f 135/105/135 136/102/136 130/101/130
f 131/99/131 130/101/130 136/102/136
f 136/102/136 137/103/137 131/99/131
f 133/98/133 131/99/131 137/103/137
f 137/103/137 134/104/134 133/98/133
f 138/106/138 139/107/139 140/108/140
f 141/109/141 140/108/140 139/107/139
f 140/108/140 141/109/141 142/110/142
f 140/108/140 142/110/142 143/111/143
f 138/106/138 140/108/140 143/111/143
f 138/106/138 143/111/143 144/112/144
f 144/112/144 145/113/145 138/106/138
f 139/107/139 138/106/138 145/113/145
f 139/107/139 145/113/145 146/114/146
f 141/109/141 139/107/139 146/114/146
f 141/109/141 146/114/146 147/115/147
f 147/115/147 142/110/142 141/109/141
f 148/116/148 149/117/149 150/118/150
f 151/119/151 150/118/150 149/117/149
f 149/117/149 152/120/152 151/119/151
f 153/121/153 151/119/151 152/120/152
f 153/121/153 152/120/152 154/122/154
f 154/122/154 152/120/152 155/123/155
f 156/124/156 157/125/157 150/118/150
f 148/116/148 150/118/150 157/125/157
f 148/116/148 157/125/157 158/126/158
f 158/126/158 149/117/149 148/116/148
f 158/126/158 159/127/159 149/117/149
f 159/127/159 152/120/152 149/117/149
f 159/127/159 160/128/160 152/120/152
f 161/129/161 152/120/152 160/128/160
f 161/129/161 155/123/155 152/120/152
f 161/129/161 157/125/157 155/123/155
f 162/130/162 155/123/155 157/125/157
f 157/125/157 163/131/163 162/130/162
f 164/132/164 162/130/162 163/131/163
f 164/132/164 163/131/163 165/133/165
f 166/134/166 165/133/165 163/131/163
f 167/135/167 158/126/158 157/125/157
f 157/125/157 161/129/161 167/135/167
f 160/128/160 167/135/167 161/129/161
f 168/136/168 169/137/169 170/138/170
f 171/139/171 170/138/170 169/137/169
f 169/137/169 172/140/172 171/139/171
f 169/137/169 173/141/173 172/140/172
f 174/142/174 172/140/172 173/141/173
f 169/137/169 168/136/168 173/141/173
f 175/143/175 176/144/176 177/145/177
f 178/146/178 177/145/177 176/144/176
f 176/144/176 179/147/179 178/146/178
f 180/148/180 178/146/178 179/147/179
f 179/147/179 181/149/181 180/148/180
f 182/150/182 180/148/180 181/149/181
f 180/148/180 182/150/182 183/151/183
f 184/152/184 180/148/180 183/151/183
f 185/153/185 173/141/173 186/154/186
f 173/141/173 185/153/185 174/142/174
f 187/155/187 174/142/174 185/153/185
f 185/153/185 188/156/188 187/155/187
f 189/157/189 187/155/187 188/156/188
f 188/156/188 190/158/190 189/157/189
f 191/159/191 189/157/189 190/158/190
f 190/158/190 192/160/192 191/159/191
f 184/152/184 191/159/191 192/160/192
f 184/152/184 192/160/192 180/148/180
f 178/146/178 180/148/180 192/160/192
f 192/160/192 193/161/193 178/146/178
f 177/145/177 178/146/178 193/161/193
f 185/153/185 186/154/186 188/156/188
f 188/156/188 194/162/194 190/158/190
f 192/160/192 190/158/190 193/161/193
f 195/163/195 193/161/193 190/158/190
f 195/163/195 190/158/190 194/162/194
f 196/164/196 197/165/197 198/166/198
f 196/164/196 199/167/199 197/165/197
f 200/168/200 197/165/197 199/167/199
f 200/168/200 201/169/201 197/165/197
f 202/170/202 203/171/203 204/172/204
f 202/170/202 204/172/204 205/173/205
f 202/170/202 205/173/205 206/174/206
f 207/175/207 206/174/206 205/173/205
f 206/174/206 207/175/207 208/176/208
f 209/177/209 208/176/208 207/175/207
f 209/177/209 210/178/210 208/176/208
f 211/179/211 208/176/208 210/178/210
f 211/179/211 210/178/210 212/180/212
f 213/181/213 212/180/212 210/178/210
f 213/181/213 210/178/210 214/182/214
f 215/183/215 214/182/214 210/178/210
f 210/178/210 209/177/209 215/183/215
f 216/184/216 215/183/215 209/177/209
f 209/177/209 207/175/207 216/184/216
f 217/185/217 216/184/216 207/175/207
f 207/175/207 218/186/218 217/185/217
f 219/187/219 217/185/217 218/186/218
f 203/171/203 202/170/202 220/188/220
f 206/174/206 220/188/220 202/170/202
f 220/188/220 206/174/206 221/189/221
f 222/190/222 223/191/223 224/192/224
f 225/193/225 224/192/224 223/191/223
f 225/193/225 223/191/223 226/194/226
f 223/191/223 227/195/227 226/194/226
f 228/196/228 226/194/226 227/195/227
f 229/197/229 230/198/230 222/190/222
f 223/191/223 222/190/222 230/198/230
f 230/198/230 231/199/231 223/191/223
f 227/195/227 223/191/223 231/199/231
f 227/195/227 231/199/231 232/200/232
f 227/195/227 232/200/232 228/196/228
f 233/201/233 228/196/228 232/200/232
f 228/196/228 233/201/233 234/202/234
f 235/203/235 234/202/234 233/201/233
f 234/202/234 235/203/235 236/204/236
f 237/205/237 236/204/236 235/203/235
f 236/204/236 237/205/237 206/174/206
f 238/206/238 206/174/206 237/205/237
f 238/206/238 221/189/221 206/174/206
f 239/207/239 221/189/221 238/206/238
f 240/208/240 221/189/221 239/207/239
f 204/172/204 240/208/240 239/207/239
f 240/208/240 204/172/204 203/171/203
f 238/206/238 237/205/237 239/207/239
f 239/207/239 241/209/241 204/172/204
f 241/209/241 239/207/239 237/205/237
f 241/209/241 237/205/237 242/210/242
f 235/203/235 242/210/242 237/205/237
f 233/201/233 242/210/242 235/203/235
f 243/211/243 242/210/242 233/201/233
f 244/212/244 242/210/242 243/211/243
f 242/210/242 244/212/244 241/209/241
f 245/213/245 241/209/241 244/212/244
f 245/213/245 204/172/204 241/209/241
f 204/172/204 245/213/245 246/214/246
f 246/214/246 205/173/205 204/172/204
f 244/212/244 247/215/247 245/213/245
f 247/215/247 244/212/244 243/211/243
f 232/200/232 248/216/248 233/201/233
f 243/211/243 233/201/233 248/216/248
f 248/216/248 249/217/249 243/211/243
f 250/218/250 243/211/243 249/217/249
f 250/218/250 247/215/247 243/211/243
f 251/219/251 247/215/247 250/218/250
f 247/215/247 251/219/251 252/220/252
f 252/220/252 245/213/245 247/215/247
f 245/213/245 252/220/252 253/221/253
f 253/221/253 246/214/246 245/213/245
f 253/221/253 254/222/254 246/214/246
f 205/173/205 246/214/246 254/222/254
f 205/173/205 254/222/254 255/223/255
f 255/223/255 207/175/207 205/173/205
f 207/175/207 255/223/255 218/186/218
f 254/222/254 256/224/256 257/225/257
f 257/225/257 255/223/255 254/222/254
f 257/225/257 258/226/258 255/223/255
f 259/227/259 255/223/255 258/226/258
f 258/226/258 260/228/260 259/227/259
f 261/229/261 259/227/259 260/228/260
f 260/228/260 262/230/262 261/229/261
f 263/231/263 261/229/261 262/230/262
f 263/231/263 262/230/262 264/232/264
f 264/232/264 265/233/265 263/231/263
f 265/233/265 264/232/264 266/234/266
f 267/235/267 266/234/266 264/232/264
f 266/234/266 267/235/267 268/236/268
f 269/237/269 268/236/268 267/235/267
f 268/236/268 269/237/269 270/238/270
f 261/229/261 270/238/270 269/237/269
f 270/238/270 261/229/261 265/233/265
f 263/231/263 265/233/265 261/229/261
f 261/229/261 269/237/269 259/227/259
f 255/223/255 259/227/259 269/237/269
f 269/237/269 267/235/267 255/223/255
f 218/186/218 255/223/255 267/235/267
f 267/235/267 264/232/264 218/186/218
f 271/239/271 218/186/218 264/232/264
f 218/186/218 271/239/271 219/187/219
f 264/232/264 272/240/272 271/239/271
f 273/241/273 271/239/271 272/240/272
f 272/240/272 274/242/274 273/241/273
f 275/243/275 273/241/273 274/242/274
f 274/242/274 276/244/276 275/243/275
f 277/245/277 275/243/275 276/244/276
f 278/246/278 277/245/277 276/244/276
f 276/244/276 279/247/279 278/246/278
f 279/247/279 276/244/276 280/248/280
f 274/242/274 280/248/280 276/244/276
f 280/248/280 274/242/274 281/249/281
f 272/240/272 281/249/281 274/242/274
f 272/240/272 262/230/262 281/249/281
f 272/240/272 264/232/264 262/230/262
f 282/250/282 219/187/219 283/251/283
f 219/187/219 282/250/282 217/185/217
f 284/252/284 217/185/217 282/250/282
f 273/241/273 219/187/219 271/239/271
f 273/241/273 283/251/283 219/187/219
f 275/243/275 283/251/283 273/241/273
f 285/253/285 283/251/283 275/243/275
f 277/245/277 285/253/285 275/243/275
f 285/253/285 277/245/277 284/252/284
f 217/185/217 284/252/284 277/245/277
f 277/245/277 278/246/278 217/185/217
f 286/254/286 217/185/217 278/246/278
f 278/246/278 287/255/287 286/254/286
f 287/255/287 278/246/278 279/247/279
f 279/247/279 288/256/288 287/255/287
f 279/247/279 280/248/280 288/256/288
f 288/256/288 280/248/280 289/257/289
f 280/248/280 281/249/281 289/257/289
f 281/249/281 290/258/290 289/257/289
f 290/258/290 281/249/281 262/230/262
f 262/230/262 260/228/260 290/258/290
f 291/259/291 287/255/287 288/256/288
f 287/255/287 291/259/291 292/260/292
f 292/260/292 286/254/286 287/255/287
f 293/261/293 292/260/292 291/259/291
f 294/262/294 295/263/295 296/264/296
f 258/226/258 294/262/294 296/264/296
f 294/262/294 258/226/258 297/265/297
f 257/225/257 297/265/297 258/226/258
f 297/265/297 257/225/257 256/224/256
f 298/266/298 299/267/299 300/268/300
f 299/267/299 298/266/298 301/269/301
f 302/270/302 301/269/301 298/266/298
f 302/270/302 291/259/291 301/269/301
f 288/256/288 301/269/301 291/259/291
f 301/269/301 288/256/288 303/271/303
f 289/257/289 303/271/303 288/256/288
f 289/257/289 250/218/250 303/271/303
f 289/257/289 290/258/290 250/218/250
f 290/258/290 251/219/251 250/218/250
f 251/219/251 290/258/290 260/228/260
f 260/228/260 252/220/252 251/219/251
f 260/228/260 258/226/258 252/220/252
f 296/264/296 252/220/252 258/226/258
f 296/264/296 253/221/253 252/220/252
f 296/264/296 295/263/295 253/221/253
f 253/221/253 295/263/295 254/222/254
f 256/224/256 254/222/254 295/263/295
f 249/217/249 303/271/303 250/218/250
f 304/272/304 305/273/305 230/198/230
f 231/199/231 230/198/230 305/273/305
f 231/199/231 305/273/305 306/274/306
f 306/274/306 232/200/232 231/199/231
f 232/200/232 306/274/306 248/216/248
f 307/275/307 248/216/248 306/274/306
f 248/216/248 307/275/307 249/217/249
f 308/276/308 249/217/249 307/275/307
f 249/217/249 308/276/308 303/271/303
f 309/277/309 303/271/303 308/276/308
f 303/271/303 309/277/309 301/269/301
f 299/267/299 301/269/301 309/277/309
f 299/267/299 309/277/309 310/278/310
f 311/279/311 306/274/306 305/273/305
f 308/276/308 312/280/312 309/277/309
f 308/276/308 307/275/307 312/280/312
f 307/275/307 306/274/306 313/281/313
f 311/279/311 313/281/313 306/274/306
f 314/282/314 304/272/304 229/197/229
f 230/198/230 229/197/229 304/272/304
f 310/278/310 300/268/300 299/267/299
f 315/110/315 316/108/316 317/111/317
f 316/108/316 315/110/315 318/109/318
f 319/115/319 318/109/318 315/110/315
f 320/114/320 318/109/318 319/115/319
f 321/107/321 318/109/318 320/114/320
f 318/109/318 321/107/321 316/108/316
f 322/106/322 316/108/316 321/107/321
f 316/108/316 322/106/322 317/111/317
f 317/111/317 322/106/322 323/112/323
f 323/112/323 322/106/322 324/113/324
f 324/113/324 321/107/321 320/114/320
f 321/107/321 324/113/324 322/106/322
f 325/283/325 326/284/326 327/285/327
f 328/286/328 327/285/327 326/284/326
f 328/286/328 326/284/326 329/287/329
f 326/284/326 330/288/330 329/287/329
f 331/289/331 329/287/329 330/288/330
f 330/288/330 332/290/332 331/289/331
f 332/290/332 330/288/330 333/291/333
f 333/291/333 334/292/334 332/290/332
f 333/291/333 335/293/335 334/292/334
f 336/294/336 334/292/334 335/293/335
f 336/294/336 335/293/335 337/295/337
f 326/284/326 338/296/338 330/288/330
f 339/297/339 326/284/326 340/298/340
f 326/284/326 339/297/339 338/296/338
f 341/299/341 338/296/338 339/297/339
f 341/299/341 342/300/342 338/296/338
f 343/301/343 344/302/344 345/303/345
f 343/301/343 335/293/335 344/302/344
f 333/291/333 344/302/344 335/293/335
f 344/302/344 333/291/333 330/288/330
f 344/302/344 330/288/330 338/296/338
f 338/296/338 345/303/345 344/302/344
f 338/296/338 342/300/342 345/303/345
f 342/300/342 346/304/346 345/303/345
f 342/300/342 347/305/347 346/304/346
f 342/300/342 341/299/341 347/305/347
f 348/306/348 347/305/347 341/299/341
f 348/306/348 341/299/341 349/307/349
f 339/297/339 349/307/349 341/299/341
f 349/307/349 339/297/339 350/308/350
f 340/298/340 350/308/350 339/297/339
f 350/308/350 340/298/340 351/309/351
f 352/310/352 351/309/351 340/298/340
f 351/309/351 352/310/352 353/311/353
f 354/312/354 353/311/353 355/313/355
f 353/311/353 354/312/354 351/309/351
f 356/314/356 351/309/351 354/312/354
f 351/309/351 356/314/356 350/308/350
f 357/315/357 350/308/350 356/314/356
f 350/308/350 357/315/357 349/307/349
f 358/316/358 349/307/349 357/315/357
f 349/307/349 358/316/358 348/306/348
f 359/317/359 348/306/348 358/316/358
f 348/306/348 359/317/359 347/305/347
f 355/313/355 347/305/347 359/317/359
f 347/305/347 355/313/355 353/311/353
f 353/311/353 346/304/346 347/305/347
f 346/304/346 353/311/353 352/310/352
f 346/304/346 352/310/352 360/318/360
f 352/310/352 340/298/340 360/318/360
f 325/283/325 360/318/360 340/298/340
f 325/283/325 340/298/340 326/284/326
f 361/319/361 362/320/362 360/318/360
f 346/304/346 360/318/360 362/320/362
f 362/320/362 345/303/345 346/304/346
f 345/303/345 362/320/362 363/321/363
f 362/320/362 364/322/364 363/321/363
f 363/321/363 365/323/365 366/324/366
f 345/303/345 363/321/363 343/301/343
f 366/324/366 343/301/343 363/321/363
f 343/301/343 366/324/366 335/293/335
f 335/293/335 366/324/366 367/325/367
f 368/326/368 334/292/334 369/327/369
f 370/328/370 369/327/369 334/292/334
f 334/292/334 336/294/336 370/328/370
f 371/329/371 370/328/370 336/294/336
f 372/330/372 373/331/373 374/332/374
f 374/332/374 375/333/375 376/334/376
f 377/335/377 378/336/378 379/337/379
f 380/338/380 379/337/379 378/336/378
f 379/337/379 380/338/380 374/332/374
f 372/330/372 374/332/374 380/338/380
f 372/330/372 380/338/380 371/329/371
f 370/328/370 371/329/371 380/338/380
f 380/338/380 378/336/378 370/328/370
f 369/327/369 370/328/370 378/336/378
f 369/327/369 378/336/378 381/339/381
f 381/339/381 382/340/382 369/327/369
f 381/339/381 383/341/383 382/340/382
f 383/341/383 384/342/384 382/340/382
f 384/342/384 383/341/383 385/343/385
f 385/343/385 386/344/386 384/342/384
f 385/343/385 387/345/387 386/344/386
f 388/346/388 386/344/386 387/345/387
f 386/344/386 388/346/388 389/347/389
f 390/348/390 389/347/389 388/346/388
f 368/326/368 332/290/332 334/292/334
f 332/290/332 368/326/368 391/349/391
f 391/349/391 331/289/331 332/290/332
f 331/289/331 391/349/391 392/350/392
f 393/351/393 392/350/392 391/349/391
f 392/350/392 393/351/393 394/352/394
f 384/342/384 395/353/395 382/340/382
f 395/353/395 384/342/384 386/344/386
f 386/344/386 389/347/389 395/353/395
f 396/354/396 397/355/397 398/356/398
f 397/355/397 396/354/396 399/357/399
f 400/358/400 399/357/399 396/354/396
f 399/357/399 400/358/400 387/345/387
f 401/359/401 387/345/387 400/358/400
f 387/345/387 401/359/401 388/346/388
f 401/359/401 398/356/398 388/346/388
f 388/346/388 398/356/398 390/348/390
f 390/348/390 398/356/398 397/355/397
f 390/348/390 397/355/397 389/347/389
f 394/352/394 389/347/389 397/355/397
f 389/347/389 394/352/394 393/351/393
f 393/351/393 395/353/395 389/347/389
f 391/349/391 395/353/395 393/351/393
f 382/340/382 395/353/395 391/349/391
f 382/340/382 391/349/391 368/326/368
f 368/326/368 369/327/369 382/340/382
f 402/360/402 403/361/403 385/343/385
f 387/345/387 385/343/385 403/361/403
f 403/361/403 404/362/404 387/345/387
f 399/357/399 387/345/387 404/362/404
f 399/357/399 404/362/404 397/355/397
f 405/363/405 397/355/397 404/362/404
f 397/355/397 405/363/405 406/364/406
f 407/365/407 406/364/406 405/363/405
f 407/365/407 408/366/408 406/364/406
f 409/367/409 406/364/406 408/366/408
f 409/367/409 408/366/408 410/368/410
f 411/369/411 410/368/410 408/366/408
f 411/369/411 408/366/408 412/370/412
f 413/371/413 412/370/412 408/366/408
f 408/366/408 407/365/407 413/371/413
f 414/372/414 413/371/413 407/365/407
f 407/365/407 405/363/405 414/372/414
f 415/373/415 414/372/414 405/363/405
f 416/374/416 417/375/417 418/376/418
f 418/376/418 417/375/417 402/360/402
f 402/360/402 417/375/417 419/377/419
f 420/378/420 419/377/419 417/375/417
f 419/377/419 420/378/420 421/379/421
f 422/380/422 421/379/421 420/378/420
f 421/379/421 422/380/422 423/381/423
f 416/374/416 423/381/423 422/380/422
f 423/381/423 416/374/416 418/376/418
f 418/376/418 424/382/424 423/381/423
f 418/376/418 402/360/402 424/382/424
f 385/343/385 424/382/424 402/360/402
f 425/383/425 405/363/405 404/362/404
f 404/362/404 419/377/419 425/383/425
f 404/362/404 403/361/403 419/377/419
f 402/360/402 419/377/419 403/361/403
f 424/382/424 385/343/385 383/341/383
f 426/384/426 383/341/383 381/339/381
f 383/341/383 426/384/426 424/382/424
f 427/385/427 424/382/424 426/384/426
f 427/385/427 423/381/423 424/382/424
f 423/381/423 427/385/427 428/386/428
f 428/386/428 425/383/425 423/381/423
f 421/379/421 423/381/423 425/383/425
f 421/379/421 425/383/425 419/377/419
f 405/363/405 429/387/429 415/373/415
f 405/363/405 425/383/425 429/387/429
f 429/387/429 425/383/425 430/388/430
f 431/389/431 430/388/430 425/383/425
f 425/383/425 428/386/428 431/389/431
f 432/390/432 431/389/431 428/386/428
f 432/390/432 428/386/428 427/385/427
f 427/385/427 433/391/433 432/390/432
f 427/385/427 426/384/426 433/391/433
f 434/392/434 433/391/433 426/384/426
f 434/392/434 426/384/426 381/339/381
f 435/393/435 434/392/434 381/339/381
f 435/393/435 381/339/381 378/336/378
f 435/393/435 378/336/378 436/394/436
f 377/335/377 436/394/436 378/336/378
f 436/394/436 377/335/377 437/395/437
f 438/396/438 437/395/437 377/335/377
f 438/396/438 377/335/377 379/337/379
f 439/397/439 440/398/440 441/399/441
f 432/390/432 442/400/442 431/389/431
f 443/401/443 431/389/431 442/400/442
f 431/389/431 443/401/443 430/388/430
f 444/402/444 430/388/430 443/401/443
f 430/388/430 444/402/444 445/403/445
f 430/388/430 445/403/445 429/387/429
f 446/404/446 429/387/429 445/403/445
f 429/387/429 446/404/446 440/398/440
f 447/405/447 440/398/440 446/404/446
f 447/405/447 441/399/441 440/398/440
f 448/406/448 441/399/441 447/405/447
f 449/407/449 441/399/441 448/406/448
f 450/408/450 449/407/449 448/406/448
f 449/407/449 450/408/450 451/409/451
f 415/373/415 451/409/451 450/408/450
f 451/409/451 415/373/415 439/397/439
f 440/398/440 439/397/439 415/373/415
f 440/398/440 415/373/415 429/387/429
f 452/410/452 445/403/445 444/402/444
f 448/406/448 447/405/447 453/411/453
f 448/406/448 453/411/453 450/408/450
f 452/410/452 442/400/442 454/412/454
f 445/403/445 452/410/452 454/412/454
f 445/403/445 454/412/454 455/413/455
f 445/403/445 455/413/455 446/404/446
f 447/405/447 446/404/446 455/413/455
f 455/413/455 453/411/453 447/405/447
f 455/413/455 456/414/456 453/411/453
f 457/415/457 458/416/458 459/417/459
f 458/416/458 457/415/457 460/418/460
f 460/418/460 453/411/453 456/414/456
f 453/411/453 460/418/460 457/415/457
f 457/415/457 450/408/450 453/411/453
f 459/417/459 450/408/450 457/415/457
f 450/408/450 459/417/459 415/373/415
f 461/419/461 415/373/415 459/417/459
f 459/417/459 462/420/462 461/419/461
f 462/420/462 459/417/459 458/416/458
f 458/416/458 436/394/436 462/420/462
f 458/416/458 460/418/460 436/394/436
f 436/394/436 460/418/460 435/393/435
f 460/418/460 456/414/456 435/393/435
f 456/414/456 434/392/434 435/393/435
f 456/414/456 455/413/455 434/392/434
f 433/391/433 434/392/434 455/413/455
f 433/391/433 455/413/455 454/412/454
f 454/412/454 432/390/432 433/391/433
f 454/412/454 442/400/442 432/390/432
f 437/395/437 462/420/462 436/394/436
f 462/420/462 437/395/437 463/421/463
f 463/421/463 461/419/461 462/420/462
f 464/422/464 463/421/463 437/395/437
f 465/423/465 466/424/466 467/425/467
f 468/426/468 465/423/465 467/425/467
f 468/426/468 467/425/467 469/427/469
f 470/428/470 468/426/468 469/427/469
f 471/429/471 470/428/470 469/427/469
f 471/429/471 472/430/472 470/428/470
f 472/430/472 471/429/471 473/431/473
f 473/431/473 474/432/474 472/430/472
f 475/433/475 474/432/474 473/431/473
f 474/432/474 475/433/475 476/434/476
f 477/435/477 476/434/476 475/433/475
f 477/435/477 478/436/478 476/434/476
f 479/437/479 478/436/478 477/435/477
f 478/436/478 479/437/479 480/438/480
f 479/437/479 481/439/481 480/438/480
f 482/440/482 480/438/480 481/439/481
f 482/440/482 481/439/481 483/441/483
f 483/441/483 484/442/484 482/440/482
f 481/439/481 479/437/479 485/443/485
f 486/444/486 485/443/485 479/437/479
f 485/443/485 486/444/486 487/445/487
f 488/446/488 489/447/489 490/448/490
f 490/448/490 491/449/491 488/446/488
f 492/450/492 488/446/488 491/449/491
f 493/451/493 494/452/494 495/453/495
f 496/454/496 495/453/495 494/452/494
f 494/452/494 497/455/497 496/454/496
f 498/456/498 496/454/496 497/455/497
f 497/455/497 490/448/490 498/456/498
f 499/457/499 498/456/498 490/448/490
f 499/457/499 490/448/490 489/447/489
f 489/447/489 500/458/500 499/457/499
f 489/447/489 501/459/501 500/458/500
f 501/459/501 502/460/502 500/458/500
f 501/459/501 492/450/492 502/460/502
f 491/449/491 502/460/502 492/450/492
f 491/449/491 477/435/477 502/460/502
f 491/449/491 490/448/490 477/435/477
f 479/437/479 477/435/477 490/448/490
f 490/448/490 198/166/198 479/437/479
f 486/444/486 479/437/479 198/166/198
f 486/444/486 198/166/198 197/165/197
f 197/165/197 487/445/487 486/444/486
f 487/445/487 197/165/197 201/169/201
f 499/457/499 500/458/500 498/456/498
f 503/461/503 498/456/498 500/458/500
f 500/458/500 502/460/502 503/461/503
f 473/431/473 503/461/503 502/460/502
f 473/431/473 502/460/502 475/433/475
f 475/433/475 502/460/502 477/435/477
f 504/462/504 503/461/503 505/463/505
f 473/431/473 505/463/505 503/461/503
f 505/463/505 473/431/473 471/429/471
f 505/463/505 471/429/471 506/464/506
f 504/462/504 505/463/505 506/464/506
f 504/462/504 506/464/506 495/453/495
f 504/462/504 495/453/495 496/454/496
f 496/454/496 498/456/498 504/462/504
f 503/461/503 504/462/504 498/456/498
f 507/465/507 508/466/508 509/467/509
f 510/468/510 509/467/509 508/466/508
f 509/467/509 510/468/510 511/469/511
f 511/469/511 512/470/512 481/439/481
f 512/470/512 511/469/511 510/468/510
f 510/468/510 513/471/513 512/470/512
f 513/471/513 510/468/510 514/472/514
f 508/466/508 514/472/514 510/468/510
f 514/472/514 508/466/508 172/140/172
f 515/473/515 172/140/172 508/466/508
f 515/473/515 171/139/171 172/140/172
f 172/140/172 174/142/174 514/472/514
f 471/429/471 469/427/469 506/464/506
f 183/151/183 493/451/493 184/152/184
f 184/152/184 493/451/493 191/159/191
f 495/453/495 191/159/191 493/451/493
f 191/159/191 495/453/495 189/157/189
f 506/464/506 189/157/189 495/453/495
f 189/157/189 506/464/506 187/155/187
f 469/427/469 187/155/187 506/464/506
f 187/155/187 469/427/469 174/142/174
f 467/425/467 174/142/174 469/427/469
f 467/425/467 514/472/514 174/142/174
f 466/424/466 514/472/514 467/425/467
f 466/424/466 513/471/513 514/472/514
f 513/471/513 466/424/466 516/474/516
f 516/474/516 512/470/512 513/471/513
f 517/475/517 512/470/512 516/474/516
f 517/475/517 481/439/481 512/470/512
f 481/439/481 517/475/517 518/476/518
f 518/476/518 483/441/483 481/439/481
f 519/477/519 518/476/518 517/475/517
f 519/477/519 517/475/517 520/478/520
f 517/475/517 516/474/516 520/478/520
f 521/479/521 520/478/520 516/474/516
f 521/479/521 516/474/516 466/424/466
f 466/424/466 465/423/465 521/479/521
f 484/442/484 519/477/519 520/478/520
f 522/480/522 472/430/472 474/432/474
f 523/481/523 524/482/524 525/483/525
f 526/484/526 525/483/525 524/482/524
f 524/482/524 527/485/527 526/484/526
f 476/434/476 526/484/526 527/485/527
f 527/485/527 528/486/528 476/434/476
f 474/432/474 476/434/476 528/486/528
f 528/486/528 522/480/522 474/432/474
f 528/486/528 523/481/523 522/480/522
f 523/481/523 525/483/525 522/480/522
f 522/480/522 525/483/525 472/430/472
f 529/487/529 472/430/472 525/483/525
f 529/487/529 470/428/470 472/430/472
f 470/428/470 529/487/529 468/426/468
f 530/488/530 468/426/468 529/487/529
f 468/426/468 530/488/530 465/423/465
f 531/489/531 465/423/465 530/488/530
f 531/489/531 521/479/521 465/423/465
f 531/489/531 532/490/532 521/479/521
f 520/478/520 521/479/521 532/490/532
f 484/442/484 520/478/520 532/490/532
f 532/490/532 482/440/482 484/442/484
f 533/491/533 534/492/534 535/493/535
f 531/489/531 535/493/535 536/494/536
f 531/489/531 530/488/530 535/493/535
f 537/495/537 535/493/535 530/488/530
f 533/491/533 535/493/535 537/495/537
f 537/495/537 538/496/538 533/491/533
f 539/497/539 533/491/533 538/496/538
f 538/496/538 540/498/540 539/497/539
f 541/499/541 539/497/539 540/498/540
f 540/498/540 542/500/542 541/499/541
f 534/492/534 541/499/541 542/500/542
f 542/500/542 535/493/535 534/492/534
f 542/500/542 480/438/480 535/493/535
f 536/494/536 535/493/535 480/438/480
f 480/438/480 482/440/482 536/494/536
f 532/490/532 536/494/536 482/440/482
f 536/494/536 532/490/532 531/489/531
f 537/495/537 530/488/530 538/496/538
f 529/487/529 538/496/538 530/488/530
f 543/501/543 538/496/538 529/487/529
f 529/487/529 525/483/525 543/501/543
f 543/501/543 525/483/525 478/436/478
f 526/484/526 478/436/478 525/483/525
f 526/484/526 476/434/476 478/436/478
f 538/496/538 543/501/543 540/498/540
f 478/436/478 540/498/540 543/501/543
f 540/498/540 478/436/478 542/500/542
f 480/438/480 542/500/542 478/436/478
f 544/502/544 545/503/545 546/504/546
f 545/503/545 547/505/547 546/504/546
f 545/503/545 548/506/548 547/505/547
f 549/507/549 547/505/547 548/506/548
f 549/507/549 550/508/550 547/505/547
f 549/507/549 551/509/551 550/508/550
f 552/510/552 553/511/553 554/512/554
f 552/510/552 555/513/555 553/511/553
f 556/514/556 553/511/553 555/513/555
f 555/513/555 557/515/557 556/514/556
f 558/516/558 556/514/556 557/515/557
f 557/515/557 559/517/559 558/516/558
f 560/518/560 558/516/558 559/517/559
f 560/518/560 561/519/561 558/516/558
f 561/519/561 560/518/560 562/520/562
f 562/520/562 547/505/547 561/519/561
f 562/520/562 563/521/563 547/505/547
f 546/504/546 547/505/547 563/521/563
f 546/504/546 563/521/563 564/522/564
f 544/502/544 546/504/546 564/522/564
f 564/522/564 551/509/551 544/502/544
f 565/523/565 544/502/544 551/509/551
f 551/509/551 549/507/549 565/523/565
f 548/506/548 565/523/565 549/507/549
f 561/519/561 547/505/547 550/508/550
f 550/508/550 558/516/558 561/519/561
f 558/516/558 550/508/550 556/514/556
f 153/121/153 564/522/564 563/521/563
f 154/122/154 564/522/564 153/121/153
f 564/522/564 154/122/154 551/509/551
f 155/123/155 551/509/551 154/122/154
f 155/123/155 550/508/550 551/509/551
f 162/130/162 550/508/550 155/123/155
f 550/508/550 162/130/162 566/524/566
f 566/524/566 556/514/556 550/508/550
f 556/514/556 566/524/566 553/511/553
f 567/525/567 553/511/553 566/524/566
f 568/526/568 553/511/553 567/525/567
f 553/511/553 568/526/568 554/512/554
f 569/527/569 554/512/554 568/526/568
f 166/134/166 570/528/570 165/133/165
f 571/529/571 165/133/165 570/528/570
f 571/529/571 572/530/572 165/133/165
f 573/531/573 165/133/165 572/530/572
f 165/133/165 573/531/573 164/132/164
f 574/532/574 164/132/164 573/531/573
f 164/132/164 574/532/574 162/130/162
f 575/533/575 162/130/162 574/532/574
f 162/130/162 575/533/575 566/524/566
f 576/534/576 566/524/566 575/533/575
f 566/524/566 576/534/576 567/525/567
f 577/535/577 567/525/567 576/534/576
f 567/525/567 577/535/577 568/526/568
f 568/526/568 577/535/577 578/536/578
f 568/526/568 578/536/578 579/537/579
f 579/537/579 580/538/580 568/526/568
f 569/527/569 568/526/568 580/538/580
f 580/538/580 581/539/581 569/527/569
f 582/540/582 583/541/583 584/542/584
f 583/541/583 585/543/585 584/542/584
f 583/541/583 586/544/586 585/543/585
f 580/538/580 579/537/579 587/545/587
f 579/537/579 588/546/588 587/545/587
f 588/546/588 579/537/579 578/536/578
f 578/536/578 589/547/589 588/546/588
f 589/547/589 578/536/578 585/543/585
f 584/542/584 585/543/585 578/536/578
f 584/542/584 578/536/578 577/535/577
f 582/540/582 584/542/584 577/535/577
f 577/535/577 576/534/576 582/540/582
f 590/548/590 582/540/582 576/534/576
f 576/534/576 575/533/575 590/548/590
f 586/544/586 590/548/590 575/533/575
f 575/533/575 585/543/585 586/544/586
f 585/543/585 575/533/575 591/549/591
f 585/543/585 591/549/591 589/547/589
f 589/547/589 591/549/591 592/550/592
f 592/550/592 588/546/588 589/547/589
f 588/546/588 592/550/592 593/551/593
f 594/552/594 595/553/595 596/554/596
f 597/555/597 592/550/592 591/549/591
f 592/550/592 597/555/597 593/551/593
f 598/556/598 599/557/599 600/558/600
f 601/559/601 602/560/602 599/557/599
f 602/560/602 601/559/601 603/561/603
f 604/562/604 591/549/591 575/533/575
f 591/549/591 604/562/604 597/555/597
f 600/558/600 597/555/597 604/562/604
f 597/555/597 600/558/600 599/557/599
f 599/557/599 593/551/593 597/555/597
f 593/551/593 599/557/599 602/560/602
f 602/560/602 605/563/605 593/551/593
f 602/560/602 603/561/603 605/563/605
f 606/564/606 605/563/605 603/561/603
f 603/561/603 594/552/594 606/564/606
f 607/565/607 606/564/606 594/552/594
f 607/565/607 594/552/594 608/566/608
f 609/567/609 8/8/8 610/568/610
f 5/5/5 610/568/610 8/8/8
f 610/568/610 5/5/5 611/569/611
f 2/2/2 611/569/611 5/5/5
f 607/565/607 609/567/609 606/564/606
f 610/568/610 606/564/606 609/567/609
f 606/564/606 610/568/610 605/563/605
f 611/569/611 605/563/605 610/568/610
f 588/546/588 593/551/593 587/545/587
f 587/545/587 593/551/593 605/563/605
f 587/545/587 605/563/605 612/570/612
f 611/569/611 612/570/612 605/563/605
f 612/570/612 611/569/611 1/1/1
f 2/2/2 1/1/1 611/569/611
f 613/571/613 3/3/3 614/572/614
f 613/571/613 1/1/1 3/3/3
f 613/571/613 615/573/615 1/1/1
f 615/573/615 616/574/616 1/1/1
f 616/574/616 612/570/612 1/1/1
f 616/574/616 581/539/581 612/570/612
f 581/539/581 580/538/580 612/570/612
f 580/538/580 587/545/587 612/570/612
f 3/3/3 4/4/4 617/575/617
f 617/575/617 618/576/618 3/3/3
f 614/572/614 3/3/3 618/576/618
f 618/576/618 156/124/156 614/572/614
f 150/118/150 614/572/614 156/124/156
f 614/572/614 150/118/150 613/571/613
f 151/119/151 613/571/613 150/118/150
f 613/571/613 151/119/151 615/573/615
f 153/121/153 615/573/615 151/119/151
f 615/573/615 153/121/153 616/574/616
f 563/521/563 616/574/616 153/121/153
f 616/574/616 563/521/563 581/539/581
f 562/520/562 581/539/581 563/521/563
f 562/520/562 569/527/569 581/539/581
f 562/520/562 560/518/560 569/527/569
f 554/512/554 569/527/569 560/518/560
f 559/517/559 554/512/554 560/518/560
f 559/517/559 552/510/552 554/512/554
f 619/577/619 620/578/620 621/579/621
f 622/580/622 621/579/621 620/578/620
f 620/578/620 623/581/623 622/580/622
f 624/582/624 622/580/622 623/581/623
f 623/581/623 625/583/625 624/582/624
f 626/584/626 624/582/624 625/583/625
f 625/583/625 627/585/627 626/584/626
f 628/586/628 626/584/626 627/585/627
f 627/585/627 629/587/629 628/586/628
f 630/588/630 628/586/628 629/587/629
f 629/587/629 619/577/619 630/588/630
f 621/579/621 630/588/630 619/577/619
f 630/588/630 621/579/621 631/589/631
f 632/590/632 631/589/631 621/579/621
f 631/589/631 632/590/632 633/591/633
f 634/592/634 633/591/633 632/590/632
f 634/592/634 635/593/635 633/591/633
f 635/593/635 634/592/634 636/594/636
f 636/594/636 617/575/617 635/593/635
f 621/579/621 622/580/622 632/590/632
f 632/590/632 637/595/637 634/592/634
f 637/595/637 632/590/632 622/580/622
f 622/580/622 624/582/624 637/595/637
f 638/596/638 637/595/637 624/582/624
f 624/582/624 626/584/626 638/596/638
f 630/588/630 631/589/631 628/586/628
f 639/597/639 640/598/640 641/599/641
f 642/600/642 641/599/641 640/598/640
f 641/599/641 642/600/642 643/601/643
f 644/602/644 643/601/643 642/600/642
f 642/600/642 645/603/645 646/604/646
f 642/600/642 640/598/640 645/603/645
f 640/598/640 647/605/647 645/603/645
f 647/605/647 640/598/640 648/606/648
f 633/591/633 648/606/648 640/598/640
f 639/597/639 633/591/633 640/598/640
f 639/597/639 631/589/631 633/591/633
f 639/597/639 628/586/628 631/589/631
f 639/597/639 641/599/641 628/586/628
f 626/584/626 628/586/628 641/599/641
f 641/599/641 638/596/638 626/584/626
f 638/596/638 641/599/641 643/601/643
f 638/596/638 643/601/643 637/595/637
f 649/607/649 637/595/637 643/601/643
f 649/607/649 634/592/634 637/595/637
f 649/607/649 650/608/650 634/592/634
f 651/609/651 634/592/634 650/608/650
f 634/592/634 651/609/651 636/594/636
f 7/7/7 652/610/652 653/611/653
f 648/606/648 633/591/633 635/593/635
f 645/603/645 653/611/653 654/612/654
f 653/611/653 645/603/645 647/605/647
f 653/611/653 647/605/647 7/7/7
f 647/605/647 648/606/648 7/7/7
f 6/6/6 7/7/7 648/606/648
f 648/606/648 635/593/635 6/6/6
f 4/4/4 6/6/6 635/593/635
f 635/593/635 617/575/617 4/4/4
