# Pug Lower | length 4 | nose -X up +Y
mtllib bob_pug.mtl
g lower
v -0.877135 -0.451039 -0.334220
v -0.878841 -0.526509 -0.329077
v -0.897612 -0.452757 -0.296513
v -0.912972 -0.344699 -0.301656
v -0.880546 -0.452757 -0.258804
v -0.885666 -0.341268 -0.255378
v -0.832764 -0.454471 -0.243380
v -0.843004 -0.336125 -0.227953
v -0.788396 -0.452757 -0.241667
v -0.778156 -0.322401 -0.229669
v -0.848124 -0.246934 -0.212530
v -0.778156 -0.222921 -0.222814
v -0.783276 -0.168036 -0.214243
v -0.981230 0.061800 0.359928
v -1.011947 0.152705 0.358214
v -1.018772 0.000053 0.282799
v -0.994881 -0.049689 0.287942
v -0.967579 -0.077130 0.214242
v -0.984641 -0.061696 0.203958
v -0.890786 -0.071985 0.185105
v -0.887371 -0.083991 0.195389
v -0.803756 -0.066839 0.207387
v -0.791811 -0.120011 0.209100
v -0.873721 -0.135449 0.202244
v -0.947099 -0.106290 0.227953
v -0.988055 -0.061696 0.289658
v -0.952219 -0.006810 0.359928
v -0.711607 -0.011952 0.243380
v -0.728669 -0.013670 0.267375
v -0.802048 -0.054833 0.197102
v -0.894200 -0.058264 0.173107
v -0.875425 -0.099429 0.101124
v -0.976110 -0.080563 0.107980
v -0.984641 -0.114864 -0.000000
v -1.049489 -0.027391 0.121690
v -1.061434 -0.053118 -0.000000
v -1.109216 0.053222 0.138830
v -1.127987 0.018920 -0.000000
v -1.170649 0.123546 0.111406
v -1.191129 0.096102 -0.000000
v -1.204780 0.223026 0.104550
v -0.872015 -0.145737 -0.000000
v -0.759386 -0.090851 0.104550
v -0.744028 -0.142309 -0.000000
v -0.627988 -0.152597 -0.000000
v -0.650170 -0.089137 0.111406
v -0.802048 -0.041112 0.186821
v -0.692832 -0.010238 0.221098
v 0.431741 -0.317255 0.203958
v 0.372013 -0.279522 0.209100
v 0.457337 -0.286382 0.219385
v 0.431741 -0.258941 0.224527
v 0.472697 -0.243503 0.243380
v 0.404435 -0.204055 0.221098
v 0.445392 -0.188617 0.251949
v 0.383959 -0.149169 0.221098
v 0.423210 -0.132017 0.263946
v 0.377134 -0.083991 0.221098
v 0.407850 -0.078845 0.277660
v 0.370308 -0.037683 0.212530
v 0.407850 -0.041112 0.275944
v 0.366893 -0.020531 0.197102
v 0.273038 -0.041112 0.167968
v 0.262799 0.006914 0.142256
v 0.288010 0.039501 0.127203
v 0.387374 0.012060 0.167968
v 0.288515 0.055265 0.110074
v 0.298635 -0.106290 0.191964
v 0.317406 -0.169750 0.207387
v 0.337882 -0.221208 0.214243
v 0.020477 0.070375 -0.173107
v -0.044370 0.044647 -0.185105
v -0.022185 0.144127 -0.243380
v 0.010237 0.142413 -0.214243
v 0.044368 0.084095 -0.161109
v 0.156800 0.089193 -0.109961
v 0.110722 0.066946 -0.111539
v 0.132381 0.050030 -0.088265
v 0.073376 0.042933 -0.109694
v 0.087620 0.026119 -0.071623
v -0.017065 0.012060 -0.090840
v 0.064956 0.011063 -0.044357
v 0.042083 0.003202 0.000025
v -0.052901 -0.005092 -0.000000
v -0.194539 -0.063410 -0.000000
v -0.182593 -0.041112 -0.109692
v -0.313994 -0.113150 -0.000000
v -0.315699 -0.077130 -0.118261
v -0.416384 -0.138877 -0.000000
v -0.423209 -0.097712 -0.114835
v -0.168942 0.003482 -0.203958
v -0.312288 -0.027391 -0.217671
v -0.440275 -0.032537 -0.217671
v -0.535838 -0.097712 -0.113122
v -0.566555 -0.020531 -0.219385
v -0.518773 -0.149169 -0.000000
v -0.627988 -0.152597 -0.000000
v -0.650170 -0.089137 -0.111406
v -0.692832 -0.010238 -0.221098
v -0.580206 0.077234 -0.296513
v -0.662115 0.087527 -0.310224
v -0.588737 0.217880 -0.361641
v -0.890786 -0.071985 -0.185105
v -0.802048 -0.054832 -0.197102
v -0.894200 -0.058264 -0.173107
v -0.984641 -0.061696 -0.203958
v -0.967579 -0.077130 -0.214243
v -1.018772 0.000054 -0.282799
v -0.994881 -0.049689 -0.287942
v -0.981230 0.061800 -0.359928
v -1.011947 0.152705 -0.358215
v -0.912972 0.188720 -0.431914
v 0.273038 -0.041112 -0.167968
v 0.167234 -0.023959 -0.179966
v 0.298635 -0.106290 -0.191964
v 0.209896 -0.109718 -0.203958
v 0.317406 -0.169750 -0.207387
v 0.076790 -0.025676 -0.251949
v 0.131398 0.051507 -0.162826
v 0.258753 0.009392 -0.145474
v 0.029011 0.077234 -0.246806
v 0.027303 0.090955 -0.342788
v 0.129692 0.085812 -0.154254
v 0.279374 0.039641 -0.135790
v 0.387374 0.012060 -0.167968
v 0.447098 0.097819 -0.258804
v 0.430036 0.066946 -0.138830
v 0.464163 0.205873 -0.221098
v 0.387374 0.178432 -0.341075
v 0.375428 0.063514 -0.366783
v 0.266213 0.216165 -0.380494
v 0.276450 0.090955 -0.401064
v 0.146757 0.096102 -0.392491
v 0.119452 0.212733 -0.385636
v -0.010240 0.176717 -0.337645
v 0.006826 0.133838 -0.243380
v 0.139932 0.097819 -0.140543
v 0.285307 0.058465 -0.120597
v 0.298335 0.064786 -0.092133
v 0.207422 0.050073 -0.072248
v 0.409141 0.099679 -0.069803
v 0.298335 0.064786 -0.092133
v 0.285307 0.058465 -0.120597
v 0.279374 0.039641 -0.135790
v 0.366893 -0.020531 -0.197103
v 0.419795 -0.003378 -0.272518
v 0.375428 -0.015385 -0.363357
v 0.295220 -0.010238 -0.397634
v 0.191125 -0.018817 -0.390778
v 0.472697 -0.243503 -0.243380
v 0.460752 -0.248648 -0.281087
v 0.445392 -0.188617 -0.251949
v 0.430036 -0.192049 -0.298227
v 0.423210 -0.132017 -0.263946
v 0.431741 -0.258941 -0.224527
v 0.404435 -0.204055 -0.221098
v 0.372013 -0.279522 -0.209100
v 0.337882 -0.221208 -0.214243
v 0.317406 -0.169750 -0.207387
v 0.383959 -0.149169 -0.221098
v 0.298635 -0.106290 -0.191964
v 0.377134 -0.083991 -0.221098
v 0.370308 -0.037683 -0.212530
v 0.273038 -0.041112 -0.167968
v 0.258753 0.009392 -0.145474
v 0.406145 -0.135449 -0.318792
v 0.387374 -0.080563 -0.342788
v 0.407850 -0.078845 -0.277660
v 0.407850 -0.041112 -0.275944
v 0.457337 -0.286382 -0.219385
v 0.431741 -0.317255 -0.203958
v 0.325940 -0.092569 -0.378781
v 0.353243 -0.156029 -0.351359
v 0.203071 -0.202341 -0.323935
v 0.186006 -0.200623 -0.267375
v 0.146757 -0.128588 -0.327364
v 0.238908 -0.113150 -0.380494
v 0.278158 -0.185189 -0.365071
v 0.085325 -0.030823 -0.334220
v 0.131397 -0.126870 -0.262233
v 0.238908 -0.185188 -0.219385
v 0.266213 -0.240074 -0.229669
v 0.230376 -0.252080 -0.263946
v 0.247442 -0.250366 -0.308511
v 0.307166 -0.234928 -0.337645
v 0.375428 -0.212630 -0.325647
v 0.407850 -0.267516 -0.303369
v 0.337882 -0.221208 -0.214243
v 0.298635 -0.294960 -0.226240
v 0.269624 -0.305249 -0.258804
v 0.290104 -0.301820 -0.293084
v 0.344711 -0.288100 -0.317080
v 0.453927 -0.310395 -0.299940
v 0.372013 -0.334408 -0.197103
v 0.431741 -0.317255 -0.203958
v 0.372013 -0.279522 -0.209100
v 0.433446 -0.387579 -0.210816
v 0.378839 -0.392725 -0.205674
v 0.423210 -0.469909 -0.227953
v 0.327646 -0.375573 -0.219385
v 0.493174 -0.282954 -0.275944
v 0.493174 -0.277807 -0.236525
v 0.493174 -0.315541 -0.272518
v 0.397610 -0.366999 -0.310224
v 0.322526 -0.379004 -0.296513
v 0.300341 -0.382433 -0.260520
v 0.329352 -0.464763 -0.243380
v 0.375428 -0.468192 -0.224527
v 0.324232 -0.569389 -0.258804
v 0.491468 -0.313827 -0.231382
v 0.474403 -0.380719 -0.238238
v 0.433446 -0.387579 -0.210816
v 0.452218 -0.468192 -0.251949
v 0.423210 -0.469909 -0.227953
v 0.436861 -0.468192 -0.293084
v 0.464163 -0.380719 -0.279373
v 0.329352 -0.464763 -0.308511
v 0.322526 -0.571103 -0.322222
v 0.310581 -0.464763 -0.275944
v 0.383959 -0.468192 -0.313650
v 0.001706 0.156133 0.231382
v 0.139932 0.097819 0.140543
v 0.006826 0.133838 0.243380
v 0.129692 0.085812 0.154253
v 0.288010 0.039501 0.127203
v 0.262799 0.006914 0.142256
v 0.131398 0.051507 0.162826
v 0.273038 -0.041112 0.167968
v 0.167234 -0.023959 0.179966
v 0.298635 -0.106290 0.191964
v 0.209897 -0.109718 0.203958
v 0.317406 -0.169750 0.207387
v 0.238908 -0.185188 0.219385
v 0.266213 -0.240074 0.229669
v 0.186006 -0.200623 0.267375
v 0.230376 -0.252080 0.263946
v 0.146758 0.096101 0.392491
v 0.276450 0.090955 0.401063
v 0.119452 0.212734 0.385636
v 0.295220 -0.010238 0.397634
v 0.191125 -0.018817 0.390778
v 0.325940 -0.092569 0.378781
v 0.238908 -0.113150 0.380493
v 0.146758 -0.128588 0.327364
v 0.203071 -0.202341 0.323935
v 0.131397 -0.126870 0.262233
v 0.076790 -0.025676 0.251949
v 0.085325 -0.030823 0.334220
v 0.027303 0.090955 0.342788
v -0.010240 0.176717 0.337645
v 0.029011 0.077234 0.246806
v 0.156998 0.089241 0.109692
v 0.010237 0.142413 0.214242
v 0.044368 0.084095 0.161109
v 0.110921 0.066946 0.111406
v 0.020477 0.070375 0.173107
v -0.022185 0.144127 0.243380
v 0.288515 0.055265 0.110074
v 0.300308 0.061474 0.088627
v 0.212943 0.044553 0.066665
v 0.144094 0.046700 0.079550
v 0.073379 0.042933 0.109692
v -0.044370 0.044647 0.185105
v -0.075087 0.125260 0.262233
v 0.097189 0.023314 0.067402
v -0.017065 0.012060 0.090840
v 0.069586 0.009083 0.043866
v 0.042083 0.003202 0.000025
v -0.052901 -0.005092 -0.000000
v -0.194539 -0.063410 -0.000000
v -0.182593 -0.041112 0.109692
v -0.168942 0.003482 0.203958
v -0.184302 0.087527 0.286228
v -0.237200 0.243610 0.325647
v -0.469286 0.065229 0.301656
v -0.501707 0.221311 0.346217
v -0.580206 0.077234 0.296513
v -0.566555 -0.020531 0.219385
v -0.692832 -0.010238 0.221098
v -0.650170 -0.089137 0.111406
v -0.535838 -0.097712 0.113122
v -0.627988 -0.152597 -0.000000
v -0.518773 -0.149169 -0.000000
v -0.423209 -0.097712 0.114835
v -0.416384 -0.138877 -0.000000
v -0.315699 -0.077130 0.118261
v -0.313994 -0.113150 -0.000000
v -0.312288 -0.027391 0.217671
v -0.331059 0.065228 0.298227
v -0.373722 0.229885 0.346217
v -0.440275 -0.032537 0.217671
v 0.152826 0.009092 -0.000679
v 0.139952 0.006500 -0.000606
v 0.136443 0.007148 -0.006320
v 0.160147 0.013292 -0.012889
v 0.182740 0.014020 -0.000740
v 0.197897 0.020029 -0.018004
v 0.225506 0.019126 -0.000539
v 0.249070 0.026636 -0.020952
v 0.273552 0.026928 0.000083
v 0.296359 0.035566 -0.018416
v 0.161199 0.010411 0.011305
v 0.199464 0.016368 0.016285
v 0.250834 0.023813 0.019981
v 0.297632 0.033555 0.019208
v 0.319996 0.036604 0.001033
v 0.348352 0.048873 -0.023959
v 0.289215 0.047770 -0.048329
v 0.209515 0.031628 -0.041371
v 0.160885 0.020725 -0.031727
v 0.130478 0.011835 -0.019969
v 0.116256 0.006353 -0.009220
v 0.207422 0.050073 -0.072248
v 0.152216 0.032314 -0.057606
v 0.132381 0.050030 -0.088265
v 0.087620 0.026119 -0.071623
v 0.115074 0.017714 -0.040685
v 0.064956 0.011063 -0.044357
v 0.094333 0.008002 -0.019058
v 0.042083 0.003202 0.000025
v 0.159044 0.027195 0.053077
v 0.212943 0.044553 0.066665
v 0.144094 0.046700 0.079550
v 0.097189 0.023314 0.067402
v 0.119764 0.013753 0.038367
v 0.069586 0.009083 0.043866
v 0.096216 0.005757 0.018135
v 0.097866 0.004049 -0.000365
v 0.298335 0.064786 -0.092133
v 0.213526 0.025667 0.038442
v 0.164149 0.015719 0.029298
v 0.132357 0.008324 0.018426
v 0.136980 0.006126 0.005102
v 0.116980 0.004448 0.008194
v 0.122826 0.004402 -0.000498
v 0.133935 0.005508 -0.000567
v 0.292079 0.043947 0.047507
v 0.300308 0.061474 0.088627
v 0.413725 0.092206 0.072321
v 0.350056 0.045613 0.026941
v 0.384808 0.052780 0.037191
v 0.373576 0.045866 0.021725
v 0.386439 0.045209 0.026519
v 0.382341 0.046521 0.016085
v 0.380760 0.048159 0.008297
v 0.373899 0.047103 0.010540
v 0.376520 0.048963 0.002386
v 0.366858 0.047811 0.002100
v 0.363247 0.046379 0.012599
v 0.351827 0.045675 0.001675
v 0.362447 0.048833 -0.008667
v 0.373196 0.050046 -0.005940
v 0.380223 0.050765 -0.003290
v 0.384129 0.050535 0.002579
v 0.386784 0.049189 0.009831
v 0.392122 0.049583 0.019278
v 0.394220 0.055431 0.002707
v 0.386093 0.052758 -0.004542
v 0.381098 0.052462 -0.010974
v 0.371992 0.051842 -0.017212
v 0.402531 0.071778 -0.018059
v 0.390625 0.056582 -0.013806
v 0.394531 0.063133 -0.031155
v 0.384277 0.054866 -0.021130
v 0.382404 0.057991 -0.032682
v 0.409141 0.099679 -0.069803
v 0.417778 0.109301 0.001238
v 0.405152 0.072420 0.002306
v 0.403867 0.069412 0.022590
v 0.396912 0.057592 0.036053
v 0.436861 -0.468192 0.293084
v 0.452218 -0.468192 0.251949
v 0.464163 -0.380719 0.279373
v 0.329352 -0.464763 0.243380
v 0.375428 -0.468192 0.224527
v 0.324232 -0.569389 0.258804
v 0.310581 -0.464763 0.275944
v 0.300341 -0.382433 0.260520
v 0.322526 -0.379004 0.296513
v 0.383959 -0.468192 0.313650
v 0.397610 -0.366998 0.310224
v 0.493174 -0.315541 0.272518
v 0.329352 -0.464763 0.308511
v 0.322526 -0.571103 0.322221
v 0.344711 -0.288100 0.317080
v 0.453927 -0.310395 0.299940
v 0.493174 -0.282954 0.275944
v 0.493174 -0.277807 0.236525
v 0.491468 -0.313827 0.231382
v 0.474403 -0.380719 0.238237
v 0.290104 -0.301820 0.293084
v 0.307166 -0.234928 0.337645
v 0.407850 -0.267515 0.303368
v 0.460752 -0.248648 0.281086
v 0.433446 -0.387579 0.210816
v 0.423210 -0.469909 0.227953
v 0.430036 -0.192049 0.298227
v 0.375428 -0.212630 0.325647
v 0.387374 -0.080563 0.342788
v 0.375428 -0.015385 0.363357
v 0.406145 -0.135449 0.318792
v 0.353243 -0.156029 0.351359
v 0.278158 -0.185189 0.365070
v 0.247442 -0.250366 0.308511
v 0.269624 -0.305249 0.258804
v 0.327646 -0.375572 0.219385
v 0.378839 -0.392725 0.205674
v 0.423210 -0.469909 0.227953
v 0.433446 -0.387579 0.210816
v 0.372013 -0.334408 0.197102
v 0.431741 -0.317255 0.203958
v 0.372013 -0.279522 0.209100
v 0.298635 -0.294960 0.226240
v 0.337882 -0.221208 0.214243
v 0.375428 0.063514 0.366783
v 0.266213 0.216165 0.380493
v 0.387374 0.178431 0.341075
v 0.464163 0.205873 0.221098
v 0.447098 0.097819 0.258804
v 0.430036 0.066946 0.138830
v 0.419795 -0.003378 0.272518
v 0.413725 0.092206 0.072321
v 0.300308 0.061474 0.088627
v -0.812288 0.195584 0.421629
v -0.800342 0.085812 0.404489
v -0.730378 0.101248 0.373638
v -0.696247 0.092673 0.330790
v -0.737204 0.209305 0.383923
v -0.662115 0.087527 0.310224
v -0.694541 0.224740 0.371926
v -0.895906 0.096102 0.423342
v -0.912972 0.188720 0.431914
v -1.037543 0.245324 0.351359
v -1.061434 0.056654 0.251949
v -1.039252 -0.011952 0.217671
v -1.112630 0.171572 0.229669
v -0.877135 -0.451039 0.334220
v -0.897612 -0.452757 0.296513
v -0.878841 -0.526509 0.329077
v -0.912972 -0.344699 0.301656
v -0.880546 -0.452757 0.258804
v -0.885666 -0.341268 0.255378
v -0.931742 -0.260655 0.306795
v -0.902732 -0.258941 0.251949
v -0.916382 -0.195477 0.246806
v -0.771331 -0.315541 0.330790
v -0.774745 -0.216062 0.347930
v -0.824233 -0.325833 0.354785
v -0.779865 -0.447611 0.320508
v -0.747440 -0.313827 0.270801
v -0.740614 -0.197194 0.282799
v -0.778156 -0.161176 0.365070
v -0.831058 -0.231496 0.371926
v -0.887371 -0.339554 0.347930
v -0.822528 -0.449325 0.341075
v -0.778156 -0.536798 0.318792
v -0.762800 -0.449325 0.272518
v -0.778156 -0.322401 0.229669
v -0.778156 -0.222921 0.222814
v -0.783276 -0.168036 0.214242
v -0.764506 -0.538516 0.270801
v -0.788396 -0.452757 0.241667
v -0.824233 -0.543662 0.342788
v -0.899317 -0.252080 0.361640
v -0.839593 -0.169750 0.382210
v -0.776451 -0.120011 0.375355
v -0.737203 -0.137163 0.337645
v -0.709897 -0.087423 0.320508
v -0.726963 -0.137163 0.257091
v -0.713312 -0.044544 0.318792
v -0.725257 -0.087423 0.246806
v -0.945393 -0.193763 0.305082
v -0.911262 -0.183474 0.366783
v -0.848124 -0.114864 0.389066
v -0.774745 -0.054832 0.383923
v -0.786691 0.008628 0.392491
v -0.735494 0.025780 0.344504
v -0.728669 -0.013670 0.267375
v -0.803756 -0.066839 0.207387
v -0.791811 -0.120011 0.209100
v -0.919797 -0.114864 0.363357
v -0.863484 -0.046258 0.402776
v -0.924917 -0.157744 0.239951
v -0.957339 -0.120010 0.298227
v -0.930037 -0.058264 0.359928
v -0.877135 0.010342 0.411348
v -0.711607 -0.011952 0.243380
v -0.588737 0.217880 0.361640
v -0.778156 -0.322401 0.229669
v -0.788396 -0.452757 0.241667
v -0.843004 -0.336125 0.227953
v -0.848124 -0.246935 0.212530
v -0.778156 -0.222921 0.222814
v -0.783276 -0.168036 0.214242
v -0.860070 -0.190335 0.205674
v -0.832764 -0.454471 0.243380
v -0.897612 -0.523077 0.293084
v -0.880546 -0.526509 0.253665
v -0.831058 -0.536798 0.229669
v -0.781571 -0.548805 0.236525
v -0.781571 -0.548804 -0.236525
v -0.831058 -0.536798 -0.229669
v -0.880546 -0.526509 -0.253665
v -0.897612 -0.523077 -0.293084
v -0.887371 -0.339554 -0.347930
v -0.822528 -0.449325 -0.341075
v -0.824233 -0.325833 -0.354785
v -0.779865 -0.447611 -0.320509
v -0.771331 -0.315541 -0.330790
v -0.747440 -0.313827 -0.270801
v -0.762800 -0.449325 -0.272518
v -0.778156 -0.536798 -0.318792
v -0.824233 -0.543662 -0.342788
v -0.899317 -0.252080 -0.361641
v -0.831058 -0.231496 -0.371926
v -0.774745 -0.216061 -0.347930
v -0.740614 -0.197194 -0.282799
v -0.778156 -0.322401 -0.229669
v -0.788396 -0.452757 -0.241667
v -0.764506 -0.538516 -0.270801
v -0.778156 -0.222921 -0.222814
v -0.783276 -0.168036 -0.214243
v -0.737203 -0.137163 -0.337645
v -0.778156 -0.161175 -0.365070
v -0.839593 -0.169749 -0.382211
v -0.776451 -0.120010 -0.375355
v -0.709898 -0.087423 -0.320509
v -0.726963 -0.137163 -0.257091
v -0.713312 -0.044544 -0.318792
v -0.725257 -0.087423 -0.246806
v -0.791811 -0.120010 -0.209100
v -0.803756 -0.066838 -0.207387
v -0.728668 -0.013670 -0.267375
v -0.735494 0.025781 -0.344504
v -0.786691 0.008628 -0.392491
v -0.774745 -0.054832 -0.383923
v -0.848124 -0.114864 -0.389066
v -0.911262 -0.183474 -0.366783
v -0.945393 -0.193763 -0.305082
v -0.931742 -0.260655 -0.306795
v -0.916382 -0.195476 -0.246806
v -0.902732 -0.258941 -0.251949
v -0.919797 -0.114864 -0.363357
v -0.863484 -0.046258 -0.402776
v -0.924917 -0.157743 -0.239951
v -0.957339 -0.120010 -0.298227
v -0.930037 -0.058264 -0.359928
v -0.877135 0.010342 -0.411348
v -0.800342 0.085813 -0.404490
v -0.730378 0.101248 -0.373638
v -0.696246 0.092673 -0.330790
v -0.711607 -0.011952 -0.243380
v -0.860070 -0.190334 -0.205674
v -0.873721 -0.135448 -0.202244
v -0.947099 -0.106290 -0.227953
v -0.988055 -0.061696 -0.289658
v -0.952219 -0.006810 -0.359928
v -0.895906 0.096102 -0.423342
v -0.812287 0.195584 -0.421629
v -0.737203 0.209305 -0.383923
v -0.694541 0.224740 -0.371926
v -0.887371 -0.083991 -0.195389
v -0.791811 -0.120010 -0.209100
v -0.976110 -0.080563 -0.107980
v -0.875426 -0.097712 -0.101124
v -0.759386 -0.090851 -0.104550
v -0.802048 -0.041112 -0.186821
v -0.803756 -0.066838 -0.207387
v -1.039252 -0.011952 -0.217671
v -1.049489 -0.027391 -0.121690
v -0.984641 -0.114864 -0.000000
v -0.872015 -0.145737 -0.000000
v -0.744028 -0.142309 -0.000000
v -0.627988 -0.152597 -0.000000
v -0.650170 -0.089137 -0.111406
v -0.692832 -0.010238 -0.221098
v -0.711607 -0.011952 -0.243380
v -0.728668 -0.013670 -0.267375
v -1.170649 0.123546 -0.111406
v -1.191129 0.096102 -0.000000
v -1.204780 0.223026 -0.104550
v -1.061434 0.056654 -0.251949
v -1.061434 -0.053118 -0.000000
v -1.109216 0.053222 -0.138830
v -1.112630 0.171572 -0.229669
v -1.037543 0.245325 -0.351359
v -1.127987 0.018920 -0.000000
v -0.469286 0.065229 -0.301656
v -0.501707 0.221311 -0.346217
v -0.331059 0.065229 -0.298227
v -0.184302 0.087527 -0.286228
v -0.075087 0.125260 -0.262233
v -0.237200 0.243610 -0.325647
v -0.373722 0.229886 -0.346217
v 0.001706 0.156133 -0.231382
vt 0.8257 0.31633
vt 0.82785 0.27057
vt 0.84456 0.32178
vt 0.84082 0.38257
vt 0.86153 0.32053
vt 0.8618 0.38461
vt 0.88159 0.32251
vt 0.88235 0.38858
vt 0.90674 0.32497
vt 0.91014 0.40071
vt 0.881 0.44012
vt 0.90918 0.44731
vt 0.90192 0.48848
vt 1.79517 0.61941
vt 1.80307 0.66325
vt 1.82896 0.5999
vt 1.8257 0.57155
vt 1.85048 0.55984
vt 1.85494 0.57663
vt 1.8696 0.54742
vt 1.86702 0.53925
vt 1.88596 0.52612
vt 1.88788 0.51294
vt 1.87114 0.51065
vt 1.84497 0.53722
vt 1.82484 0.56236
vt 1.79294 0.5829
vt 1.91231 0.49988
vt 1.90573 0.49988
vt 1.89119 0.52931
vt 1.87264 0.55702
vt 1.9068 0.56519
vt 1.90004 0.58933
vt 1.95094 0.59494
vt 1.89607 0.61285
vt 1.95094 0.6167
vt 1.89432 0.6432
vt 1.95094 0.64015
vt 1.91388 0.67783
vt 1.95094 0.67065
vt 1.92479 0.72548
vt 1.95094 0.57269
vt 1.9182 0.53528
vt 1.95094 0.53474
vt 1.95222 0.49988
vt 1.93285 0.49988
vt 1.89621 0.53235
vt 1.91873 0.49988
vt 1.00145 0.3463
vt 1.00191 0.36592
vt 1.02657 0.36243
vt 1.02681 0.38293
vt 1.04756 0.38602
vt 1.03027 0.4202
vt 1.05409 0.42361
vt 1.03436 0.46071
vt 1.0613 0.46516
vt 1.0419 0.50656
vt 1.07048 0.50829
vt 1.04443 0.5466
vt 1.07344 0.54468
vt 1.04257 0.57611
vt 1.00212 0.54169
vt 1.00212 0.5775
vt 1.00212 0.60081
vt 1.04013 0.61777
vt 1.00212 0.64687
vt 1.00211 0.49782
vt 1.00207 0.45511
vt 1.00206 0.41238
vt 0.37994 0.60434
vt 0.40756 0.60675
vt 0.37326 0.6515
vt 0.35555 0.63946
vt 0.36913 0.60234
vt 0.34177 0.56398
vt 0.35858 0.57054
vt 0.36336 0.53445
vt 0.37456 0.57065
vt 0.37419 0.53979
vt 0.41109 0.56778
vt 0.39081 0.53777
vt 0.40991 0.53299
vt 0.43361 0.52544
vt 0.48659 0.51399
vt 0.47414 0.56072
vt 0.53221 0.50795
vt 0.52653 0.55037
vt 0.58235 0.49982
vt 0.57135 0.54517
vt 0.46018 0.60217
vt 0.51651 0.59518
vt 0.56514 0.58946
vt 0.61282 0.53429
vt 0.61467 0.58223
vt 0.63026 0.49745
vt 0.65596 0.49135
vt 0.64995 0.51961
vt 0.65588 0.55168
vt 0.62283 0.62842
vt 0.65608 0.61768
vt 0.62753 0.69391
vt 0.8696 0.54742
vt 0.89119 0.52931
vt 0.87264 0.55702
vt 0.85493 0.57663
vt 0.85048 0.55984
vt 0.82896 0.5999
vt 0.8257 0.57155
vt 0.79517 0.61941
vt 0.80307 0.66325
vt 0.75511 0.67032
vt 0.32239 0.48993
vt 0.29314 0.51813
vt 0.30406 0.45631
vt 0.26929 0.47008
vt 0.26917 0.41174
vt 0.26177 0.54356
vt 0.31178 0.55948
vt 0.32774 0.51324
vt 0.29126 0.59923
vt 0.26581 0.61385
vt 0.32655 0.57398
vt 0.33621 0.5119
vt 0.04013 0.61777
vt 0.08579 0.64397
vt 0.04337 0.67036
vt 0.08876 0.71109
vt 0.13205 0.66478
vt 0.12444 0.59924
vt 0.1839 0.67551
vt 0.16682 0.61
vt 0.21761 0.61397
vt 0.2426 0.67396
vt 0.29356 0.6591
vt 0.31708 0.63255
vt 0.33314 0.57529
vt 0.34137 0.51254
vt 0.34972 0.5146
vt 0.35838 0.52287
vt 0.01834 0.71283
vt 0.00212 0.70052
vt 0.00212 0.64687
vt 0.00212 0.60081
vt 0.04257 0.57611
vt 0.07726 0.58122
vt 0.11339 0.55099
vt 0.14868 0.55382
vt 0.19022 0.55397
vt 0.04756 0.38603
vt 0.06551 0.38556
vt 0.05411 0.42361
vt 0.07623 0.42441
vt 0.06129 0.46516
vt 0.02681 0.3829
vt 0.03027 0.42015
vt 0.00191 0.36617
vt 0.00203 0.41242
vt 0.00206 0.45511
vt 0.03436 0.46071
vt 0.00211 0.49782
vt 0.0419 0.50656
vt 0.04443 0.5466
vt 0.00212 0.54169
vt 0.00212 0.5775
vt 0.08699 0.46626
vt 0.09918 0.50728
vt 0.07048 0.50829
vt 0.07344 0.54468
vt 0.02664 0.36232
vt 0.0018 0.34604
vt 0.12941 0.50444
vt 0.11545 0.46001
vt 0.18526 0.44479
vt 0.21066 0.43994
vt 0.209 0.49313
vt 0.16582 0.4984
vt 0.14931 0.45122
vt 0.23529 0.55
vt 0.2343 0.48868
vt 0.23914 0.4274
vt 0.21407 0.39194
vt 0.1911 0.39916
vt 0.16809 0.40262
vt 0.13737 0.40956
vt 0.10519 0.41814
vt 0.09114 0.37691
vt 0.24384 0.3764
vt 0.19513 0.35402
vt 0.17197 0.35583
vt 0.14902 0.35713
vt 0.12013 0.36459
vt 0.07201 0.34558
vt 0.20918 0.32136
vt 0.23418 0.31851
vt 0.22987 0.34521
vt 0.21928 0.29323
vt 0.19722 0.29518
vt 0.20979 0.26183
vt 0.17937 0.30521
vt 0.05527 0.36099
vt 0.04202 0.36382
vt 0.05261 0.34216
vt 0.08914 0.30537
vt 0.12521 0.30125
vt 0.15071 0.30124
vt 0.1635 0.26634
vt 0.18778 0.26407
vt 0.15099 0.21764
vt 0.03528 0.34767
vt 0.03142 0.32112
vt 0.00182 0.32748
vt 0.03465 0.28452
vt 0.00206 0.28992
vt 0.05438 0.27896
vt 0.05365 0.30113
vt 0.11616 0.26587
vt 0.10678 0.21877
vt 0.14044 0.26497
vt 0.08586 0.26886
vt 1.33977 0.64612
vt 1.33315 0.57529
vt 1.31708 0.63255
vt 1.32655 0.57398
vt 1.33621 0.5119
vt 1.32774 0.51324
vt 1.31178 0.55948
vt 1.32239 0.48993
vt 1.29314 0.51813
vt 1.30405 0.45631
vt 1.26929 0.47008
vt 1.26917 0.41176
vt 1.23914 0.4274
vt 1.21407 0.39192
vt 1.21066 0.43993
vt 1.1911 0.39916
vt 1.21761 0.61397
vt 1.16682 0.61
vt 1.2426 0.67396
vt 1.14868 0.55382
vt 1.19022 0.55397
vt 1.12941 0.50444
vt 1.16582 0.4984
vt 1.209 0.49313
vt 1.18526 0.44479
vt 1.2343 0.48868
vt 1.26177 0.54356
vt 1.23531 0.55
vt 1.26581 0.61385
vt 1.29356 0.6591
vt 1.29126 0.59923
vt 1.34177 0.56398
vt 1.35555 0.63946
vt 1.36913 0.60234
vt 1.35858 0.57054
vt 1.37994 0.60434
vt 1.37326 0.6515
vt 1.34137 0.51254
vt 1.34972 0.5146
vt 1.35838 0.52287
vt 1.36336 0.53445
vt 1.37456 0.57065
vt 1.40756 0.60675
vt 1.40259 0.65378
vt 1.37419 0.53979
vt 1.41109 0.56778
vt 1.39081 0.53777
vt 1.40991 0.53299
vt 1.43361 0.52544
vt 1.48659 0.51399
vt 1.47414 0.56072
vt 1.46018 0.60217
vt 1.45546 0.64859
vt 1.4622 0.7168
vt 1.57593 0.6377
vt 1.58839 0.7039
vt 1.62283 0.62842
vt 1.61467 0.58223
vt 1.65588 0.55168
vt 1.64995 0.51961
vt 1.61282 0.53429
vt 1.65596 0.49135
vt 1.63026 0.49745
vt 1.57135 0.54517
vt 1.58235 0.49982
vt 1.52654 0.55037
vt 1.53221 0.50795
vt 1.51651 0.59518
vt 1.51813 0.64244
vt 1.52882 0.7135
vt 1.56514 0.58946
vt 0.96465 0.76849
vt 0.96991 0.78439
vt 0.97313 0.77437
vt 0.97217 0.73645
vt 0.96318 0.73788
vt 0.97395 0.70421
vt 0.96635 0.70471
vt 0.97456 0.66776
vt 0.96858 0.66815
vt 0.97642 0.64046
vt 0.97025 0.63966
vt 0.98233 0.62245
vt 0.98669 0.63625
vt 0.98256 0.66885
vt 0.98332 0.7043
vt 0.98154 0.73645
vt 0.97852 0.77152
vt 0.99757 0.67815
vt 0.99194 0.70677
vt 0.99776 0.71132
vt 0.99794 0.74362
vt 0.98966 0.7381
vt 0.99811 0.77245
vt 0.98486 0.77086
vt 0.99823 0.79285
vt 0.98518 0.78638
vt 0.99733 0.63441
vt 0.97971 0.78635
vt 0.97408 0.78711
vt 0.99699 0.57716
vt 0.9865 0.5934
vt 0.9785 0.59665
vt 0.9761 0.58945
vt 0.97305 0.59525
vt 0.96899 0.60524
vt 0.97299 0.61009
vt 0.96225 0.60812
vt 0.96443 0.62495
vt 0.97617 0.61395
vt 0.97009 0.63319
vt 0.96237 0.59148
vt 0.96883 0.59393
vt 0.97191 0.58408
vt 0.9666 0.5784
vt 0.98164 0.57855
vt 0.98383 0.58626
vt 0.99544 0.56163
vt 0.97588 0.56731
vt 1.05434 0.27924
vt 1.03458 0.28433
vt 1.05341 0.30129
vt 1.16341 0.26639
vt 1.18774 0.26408
vt 1.15091 0.21764
vt 1.14031 0.26498
vt 1.15059 0.30124
vt 1.12509 0.30118
vt 1.08581 0.26888
vt 1.08919 0.30542
vt 1.05278 0.34212
vt 1.11614 0.26588
vt 1.10677 0.21872
vt 1.12007 0.36458
vt 1.07214 0.3457
vt 1.05539 0.36104
vt 1.0421 0.36379
vt 1.0354 0.3477
vt 1.03148 0.32138
vt 1.14896 0.35713
vt 1.13737 0.40955
vt 1.09111 0.37689
vt 1.06541 0.38547
vt 1.00169 0.32752
vt 1.00174 0.28993
vt 1.0762 0.42439
vt 1.10519 0.41812
vt 1.09918 0.50728
vt 1.11339 0.55099
vt 1.08699 0.46626
vt 1.11545 0.46001
vt 1.14932 0.45122
vt 1.16808 0.40262
vt 1.17191 0.35594
vt 1.17943 0.30518
vt 1.19725 0.29526
vt 1.20979 0.26183
vt 1.21957 0.29318
vt 1.20937 0.32114
vt 1.23441 0.31828
vt 1.22984 0.34523
vt 1.1951 0.35396
vt 1.24387 0.3764
vt 1.12443 0.59924
vt 1.1839 0.67551
vt 1.13205 0.66478
vt 1.08876 0.71109
vt 1.08579 0.64397
vt 1.04337 0.67036
vt 1.07726 0.58122
vt 1.01834 0.71283
vt 1.00212 0.70052
vt 1.71384 0.66756
vt 1.70979 0.61598
vt 1.68599 0.61917
vt 1.66875 0.61499
vt 1.68654 0.67319
vt 1.65608 0.61768
vt 1.6707 0.6839
vt 1.75177 0.62775
vt 1.75511 0.67032
vt 1.81364 0.70569
vt 1.84752 0.63188
vt 1.85466 0.6053
vt 1.86699 0.68616
vt 1.8257 0.31633
vt 1.84456 0.32178
vt 1.82785 0.27057
vt 1.84082 0.38257
vt 1.86153 0.32053
vt 1.8618 0.38461
vt 1.83603 0.43249
vt 1.85783 0.43411
vt 1.8553 0.47436
vt 1.76842 0.39099
vt 1.7588 0.44336
vt 1.79347 0.38747
vt 1.77736 0.32451
vt 1.74144 0.38934
vt 1.72589 0.44692
vt 1.75308 0.47531
vt 1.78497 0.43938
vt 1.81995 0.38313
vt 1.8013 0.32362
vt 1.78053 0.27183
vt 1.7509 0.32494
vt 1.72197 0.37964
vt 1.70195 0.42389
vt 1.6823 0.45531
vt 1.75612 0.27461
vt 1.73831 0.32184
vt 1.80232 0.26286
vt 1.81253 0.43408
vt 1.77911 0.4752
vt 1.74434 0.49962
vt 1.72891 0.48521
vt 1.7068 0.50935
vt 1.69901 0.47879
vt 1.69421 0.53397
vt 1.68266 0.50546
vt 1.83243 0.47449
vt 1.80731 0.47429
vt 1.76961 0.50833
vt 1.72682 0.53818
vt 1.7151 0.57753
vt 1.68938 0.57608
vt 1.66501 0.54689
vt 1.66139 0.51952
vt 1.66313 0.489
vt 1.79669 0.51469
vt 1.76041 0.55199
vt 1.85156 0.49817
vt 1.82465 0.51845
vt 1.79283 0.54944
vt 1.75653 0.5842
vt 1.6604 0.5493
vt 1.62753 0.69391
vt 1.91014 0.40071
vt 1.90674 0.32497
vt 1.88235 0.38858
vt 1.881 0.44012
vt 1.90918 0.44731
vt 1.90192 0.48848
vt 1.87898 0.47694
vt 1.88159 0.32251
vt 1.84732 0.27322
vt 1.8665 0.26717
vt 1.88442 0.27309
vt 1.90234 0.26897
vt 0.90234 0.26897
vt 0.88441 0.27309
vt 0.8665 0.26717
vt 0.84732 0.27322
vt 0.81995 0.38313
vt 0.8013 0.32362
vt 0.79347 0.38747
vt 0.77736 0.32451
vt 0.76842 0.39099
vt 0.74144 0.38934
vt 0.7509 0.32494
vt 0.78053 0.27183
vt 0.80232 0.26286
vt 0.81253 0.43408
vt 0.78497 0.43938
vt 0.7588 0.44336
vt 0.72589 0.44692
vt 0.72197 0.37964
vt 0.73831 0.32184
vt 0.75612 0.27461
vt 0.70195 0.42389
vt 0.6823 0.45531
vt 0.72891 0.48521
vt 0.75308 0.47531
vt 0.77911 0.4752
vt 0.74434 0.49962
vt 0.7068 0.50935
vt 0.69901 0.47879
vt 0.69421 0.53397
vt 0.68266 0.50546
vt 0.66313 0.489
vt 0.66139 0.51952
vt 0.66501 0.54689
vt 0.68938 0.57608
vt 0.7151 0.57753
vt 0.72682 0.53818
vt 0.76961 0.50833
vt 0.80731 0.47429
vt 0.83243 0.47449
vt 0.83603 0.43249
vt 0.8553 0.47436
vt 0.85783 0.43411
vt 0.79669 0.51469
vt 0.76041 0.55199
vt 0.85156 0.49817
vt 0.82465 0.51845
vt 0.79283 0.54944
vt 0.75653 0.5842
vt 0.70979 0.61598
vt 0.68599 0.61917
vt 0.66875 0.61499
vt 0.6604 0.5493
vt 0.87898 0.47694
vt 0.87114 0.51065
vt 0.84497 0.53722
vt 0.82484 0.56236
vt 0.79294 0.5829
vt 0.75177 0.62775
vt 0.71384 0.66756
vt 0.68654 0.67319
vt 0.6707 0.6839
vt 0.86702 0.53925
vt 0.88788 0.51294
vt 0.90004 0.58933
vt 0.9068 0.56519
vt 0.9182 0.53528
vt 0.89621 0.53235
vt 0.88596 0.52612
vt 0.85466 0.6053
vt 0.89607 0.61285
vt 0.95094 0.59494
vt 0.95094 0.57269
vt 0.95094 0.53474
vt 0.95223 0.49988
vt 0.93285 0.49988
vt 0.91873 0.49988
vt 0.91231 0.49988
vt 0.90573 0.49988
vt 0.91388 0.67783
vt 0.95094 0.67065
vt 0.92479 0.72548
vt 0.84752 0.63188
vt 0.95094 0.6167
vt 0.89432 0.6432
vt 0.86699 0.68616
vt 0.81364 0.70569
vt 0.95094 0.64015
vt 0.57593 0.6377
vt 0.58839 0.7039
vt 0.51813 0.64244
vt 0.45546 0.64859
vt 0.40259 0.65378
vt 0.4622 0.7168
vt 0.52881 0.7135
vt 0.33977 0.64612
vn 0.0820 -0.5602 -0.8243
vn 0.0002 -0.7264 -0.6873
vn 0.0506 -0.9981 -0.0351
vn 0.1635 -0.9821 -0.0938
vn -0.0039 -0.6620 0.7495
vn 0.1365 -0.6659 0.7334
vn -0.0039 -0.1727 0.9850
vn 0.1523 -0.1924 0.9694
vn 0.0352 0.4619 0.8862
vn 0.0936 0.5595 0.8235
vn 0.1558 -0.1606 0.9747
vn 0.0662 0.5662 0.8216
vn 0.1364 0.4813 0.8659
vn 0.2378 -0.6543 0.7179
vn 0.1636 -0.6692 0.7249
vn 0.4625 -0.8005 0.3811
vn 0.4044 -0.8525 0.3313
vn 0.6702 -0.6381 -0.3791
vn 0.9049 -0.4248 0.0274
vn 0.6566 0.0028 -0.7542
vn 0.3743 -0.0703 -0.9247
vn 0.2492 0.4188 -0.8732
vn 0.0274 0.2435 -0.9695
vn 0.1909 -0.2424 -0.9512
vn 0.4868 -0.6655 -0.5658
vn 0.4597 -0.8499 0.2575
vn 0.2727 -0.6272 0.7296
vn 0.8028 0.5399 0.2531
vn 0.4252 0.9048 0.0238
vn 0.6876 0.4209 -0.5916
vn 0.9800 0.1255 -0.1547
vn 0.9194 -0.0393 0.3914
vn 0.9023 -0.3689 0.2228
vn 0.9117 -0.4108 -0.0000
vn 0.6871 -0.6941 0.2148
vn 0.7015 -0.7127 0.0001
vn 0.5421 -0.7721 0.3317
vn 0.6380 -0.7701 0.0001
vn 0.4516 -0.8136 0.3662
vn 0.4361 -0.8999 0.0001
vn 0.2600 -0.9192 0.2959
vn 0.9980 -0.0632 -0.0040
vn 0.8789 0.0118 0.4769
vn 0.9994 -0.0355 -0.0000
vn 0.9991 -0.0431 0.0000
vn 0.8439 -0.0354 0.5354
vn 0.9690 0.2358 0.0738
vn 0.8039 0.1566 0.5738
vn -0.0507 0.2980 -0.9532
vn -0.1832 0.0155 -0.9830
vn -0.2845 0.2936 -0.9126
vn -0.2419 0.2510 -0.9373
vn -0.5094 0.7037 -0.4954
vn -0.1324 0.2899 -0.9479
vn -0.4081 0.8711 -0.2731
vn -0.0975 0.4590 -0.8831
vn -0.2803 0.9545 -0.1020
vn -0.0780 0.6660 -0.7418
vn -0.1241 0.9875 -0.0974
vn 0.2070 0.6631 -0.7193
vn 0.1785 0.9683 -0.1747
vn 0.5019 0.5945 -0.6283
vn 0.4024 0.0904 -0.9110
vn 0.4108 -0.0372 -0.9110
vn 0.5481 -0.0494 -0.8350
vn 0.7690 0.4471 -0.4569
vn 0.8375 -0.0734 -0.5414
vn 0.2110 0.1491 -0.9660
vn 0.1635 0.0119 -0.9865
vn 0.0429 -0.0743 -0.9963
vn 0.4721 0.4940 -0.7302
vn 0.7306 0.3495 -0.5866
vn 0.3472 0.3667 -0.8631
vn 0.5084 0.2838 -0.8130
vn 0.4330 0.4653 -0.7720
vn 0.8310 0.0981 -0.5476
vn 0.5564 0.3876 -0.7349
vn 0.7044 0.2839 -0.6506
vn 0.7631 0.3264 -0.5579
vn 0.8912 0.1998 -0.4073
vn 0.9380 0.2281 -0.2609
vn 0.9285 0.0955 -0.3588
vn 0.9994 -0.0303 -0.0136
vn 0.9712 0.2383 -0.0001
vn 0.9305 0.3664 -0.0000
vn 0.9038 0.3184 -0.2859
vn 0.9521 0.3058 -0.0000
vn 0.9054 0.2196 -0.3633
vn 0.9843 0.1766 -0.0000
vn 0.8960 0.0737 -0.4379
vn 0.7687 0.2902 -0.5700
vn 0.7722 0.1371 -0.6205
vn 0.7504 -0.0079 -0.6609
vn 0.8631 -0.0353 -0.5038
vn 0.7340 -0.0666 -0.6759
vn 0.9991 0.0418 -0.0000
vn 0.9991 -0.0431 -0.0000
vn 0.8438 -0.0353 -0.5355
vn 0.8039 0.1566 -0.5738
vn 0.5159 0.0195 -0.8564
vn 0.5261 0.2427 -0.8151
vn 0.1955 0.1689 -0.9661
vn 0.6564 0.0037 0.7544
vn 0.6876 0.4209 0.5917
vn 0.9798 0.1216 0.1586
vn 0.9049 -0.4248 -0.0273
vn 0.6704 -0.6380 0.3789
vn 0.4624 -0.8007 -0.3809
vn 0.4046 -0.8524 -0.3313
vn 0.2378 -0.6542 -0.7179
vn 0.1635 -0.6692 -0.7248
vn 0.0858 -0.2507 -0.9643
vn 0.3689 0.1000 0.9241
vn 0.3860 -0.3174 0.8662
vn 0.2110 0.1491 0.9661
vn 0.3505 -0.3287 0.8770
vn 0.1636 0.0118 0.9865
vn 0.4584 -0.7809 0.4244
vn 0.3497 -0.4284 0.8331
vn 0.3382 -0.0140 0.9409
vn 0.3781 -0.8499 0.3669
vn 0.3462 -0.7545 -0.5576
vn 0.3416 -0.4542 0.8228
vn 0.4277 -0.0126 0.9038
vn 0.7649 0.4211 0.4874
vn 0.2682 0.9487 -0.1674
vn 0.6870 0.6375 0.3488
vn 0.0928 0.9753 -0.2005
vn -0.0975 0.6771 -0.7294
vn -0.0349 0.6448 -0.7636
vn -0.1915 0.2277 -0.9547
vn -0.0662 0.1684 -0.9835
vn 0.0507 -0.2156 -0.9752
vn -0.1054 -0.1413 -0.9843
vn 0.1478 -0.7507 -0.6439
vn 0.3459 -0.8518 0.3935
vn 0.7752 -0.4472 0.4462
vn 0.8126 -0.0550 0.5802
vn 0.9836 0.1449 0.1070
vn 0.7396 0.0754 -0.6689
vn 0.5414 0.7934 -0.2780
vn 0.9836 0.1450 0.1071
vn 0.8126 -0.0550 0.5802
vn 0.4278 -0.0126 0.9038
vn 0.4929 0.5852 0.6439
vn 0.2333 0.9693 -0.0779
vn 0.0546 0.7468 -0.6628
vn 0.0898 0.1922 -0.9772
vn 0.2105 -0.2544 -0.9439
vn -0.5094 0.7037 0.4953
vn -0.2727 0.6309 -0.7264
vn -0.4081 0.8711 0.2731
vn -0.1165 0.7631 -0.6357
vn -0.2802 0.9546 0.1017
vn -0.2419 0.2510 0.9373
vn -0.1326 0.2899 0.9478
vn -0.1831 0.0155 0.9830
vn 0.0429 -0.0743 0.9963
vn 0.1635 0.0119 0.9865
vn -0.0976 0.4590 0.8831
vn 0.2110 0.1491 0.9660
vn -0.0780 0.6661 0.7418
vn 0.2070 0.6632 0.7193
vn 0.3689 0.1001 0.9241
vn 0.3382 -0.0139 0.9410
vn -0.0193 0.7516 -0.6593
vn -0.0039 0.7715 -0.6362
vn -0.1241 0.9875 0.0974
vn 0.1787 0.9682 0.1752
vn -0.2845 0.2936 0.9126
vn -0.0507 0.2980 0.9532
vn 0.1717 0.2902 -0.9415
vn 0.2027 0.3724 -0.9056
vn 0.5839 -0.5790 -0.5691
vn 0.5840 -0.7477 0.3160
vn 0.4907 -0.6694 -0.5577
vn 0.2770 -0.1529 -0.9486
vn 0.3977 -0.0313 -0.9170
vn 0.4504 -0.7726 -0.4474
vn 0.5186 -0.7721 0.3674
vn 0.3425 -0.3674 0.8647
vn 0.2771 -0.3689 0.8872
vn 0.5993 -0.7573 0.2596
vn 0.6197 -0.5052 -0.6007
vn 0.4026 -0.0000 -0.9154
vn 0.2105 0.3650 -0.9069
vn 0.0350 0.2819 -0.9588
vn 0.0430 -0.0743 0.9963
vn 0.1287 -0.4512 0.8831
vn 0.4866 -0.8609 0.1484
vn 0.4173 -0.5565 -0.7184
vn 0.1446 -0.0276 -0.9891
vn -0.0427 0.3603 -0.9319
vn 0.0118 -0.1216 0.9925
vn -0.0507 0.2979 0.9532
vn -0.1831 0.0155 0.9830
vn 0.1714 0.3649 0.9152
vn 0.2144 -0.1369 0.9671
vn 0.1873 0.2405 0.9524
vn 0.2028 -0.5757 0.7921
vn -0.3074 0.8198 -0.4831
vn -0.2336 0.8783 0.4172
vn 0.1948 0.8800 -0.4333
vn 0.0823 0.2227 -0.9714
vn 0.0703 -0.5133 -0.8553
vn 0.2641 -0.9644 0.0155
vn 0.1792 -0.6297 0.7559
vn 0.1598 -0.2345 0.9589
vn -0.0234 -0.6453 0.7636
vn 0.0617 0.7535 0.6545
vn 0.2725 0.8648 0.4217
vn 0.1714 0.3649 0.9151
vn 0.2412 0.9033 0.3547
vn 0.1873 0.2406 0.9524
vn 0.0622 0.6770 -0.7334
vn 0.1983 0.7928 -0.5763
vn -0.1286 -0.4694 -0.8736
vn -0.1599 -0.6921 -0.7038
vn 0.0037 -0.9960 -0.0897
vn -0.0938 0.0748 -0.9928
vn 0.6138 -0.7581 -0.2204
vn 0.7617 -0.4709 -0.4450
vn 0.3459 -0.8518 -0.3935
vn 0.3360 -0.4627 -0.8204
vn 0.5480 -0.0495 -0.8350
vn 0.4108 -0.0373 -0.9110
vn 0.3515 -0.4357 -0.8286
vn 0.4024 0.0903 -0.9110
vn 0.3860 -0.3174 -0.8662
vn 0.2110 0.1490 -0.9660
vn 0.3505 -0.3287 -0.8770
vn 0.1636 0.0118 -0.9865
vn 0.3424 -0.3675 -0.8647
vn 0.2771 -0.3689 -0.8872
vn 0.5841 -0.7476 -0.3161
vn 0.5984 -0.7576 -0.2606
vn 0.0508 -0.2156 0.9752
vn -0.0663 0.1684 0.9835
vn -0.1055 -0.1413 0.9843
vn 0.0899 0.1922 0.9772
vn 0.2105 -0.2545 0.9439
vn 0.1716 0.2901 0.9415
vn 0.2770 -0.1530 0.9486
vn 0.4907 -0.6694 0.5577
vn 0.5840 -0.5789 0.5691
vn 0.5186 -0.7720 -0.3674
vn 0.4585 -0.7808 -0.4244
vn 0.4504 -0.7726 0.4474
vn 0.3462 -0.7545 0.5576
vn 0.1477 -0.7507 0.6440
vn 0.3784 -0.8499 -0.3668
vn 0.8142 0.0505 0.5784
vn 0.5063 0.2836 0.8144
vn 0.4326 0.4659 0.7719
vn 0.5584 0.3915 0.7313
vn 0.4722 0.4939 0.7302
vn 0.3469 0.3666 0.8633
vn 0.8375 -0.0735 -0.5414
vn 0.9898 0.1070 -0.0937
vn 0.7248 0.0625 0.6862
vn 0.7010 0.2523 0.6670
vn 0.7511 0.3207 0.5771
vn 0.7306 0.3494 0.5866
vn 0.3700 0.3484 0.8612
vn 0.8756 0.1931 0.4428
vn 0.9386 0.2229 0.2631
vn 0.9415 0.0260 0.3361
vn 0.9994 -0.0303 -0.0136
vn 0.9712 0.2382 0.0000
vn 0.9305 0.3664 0.0000
vn 0.9038 0.3184 0.2859
vn 0.7687 0.2902 0.5700
vn 0.4330 0.2196 0.8742
vn 0.0585 0.1845 0.9811
vn 0.4737 -0.0278 0.8803
vn 0.1443 0.0746 0.9867
vn 0.5159 0.0194 0.8565
vn 0.7340 -0.0667 0.6759
vn 0.8039 0.1567 0.5738
vn 0.8439 -0.0354 0.5354
vn 0.8629 -0.0353 0.5041
vn 0.9991 -0.0431 -0.0000
vn 0.9991 0.0418 0.0000
vn 0.8958 0.0745 0.4383
vn 0.9843 0.1766 0.0001
vn 0.9054 0.2198 0.3632
vn 0.9521 0.3058 0.0001
vn 0.7722 0.1371 0.6205
vn 0.5045 0.0668 0.8608
vn 0.1327 0.0784 0.9880
vn 0.7504 -0.0079 0.6609
vn 0.9774 0.1755 -0.1179
vn 0.9728 0.2283 -0.0401
vn 0.9483 0.0400 -0.3148
vn 0.9448 0.1358 -0.2982
vn 0.9844 0.1669 -0.0565
vn 0.9409 0.1233 -0.3154
vn 0.9854 0.1141 -0.1265
vn 0.9238 0.1268 -0.3611
vn 0.9692 0.2377 -0.0649
vn 0.9195 0.0971 -0.3809
vn 0.9815 0.1387 0.1320
vn 0.9762 0.1338 0.1708
vn 0.9543 0.1446 0.2616
vn 0.9772 0.0674 0.2014
vn 0.9725 0.2207 -0.0748
vn 0.9487 0.2141 -0.2327
vn 0.8876 0.2036 -0.4132
vn 0.8674 0.1548 -0.4729
vn 0.9002 0.1543 -0.4071
vn 0.9403 0.0957 -0.3268
vn 0.9731 0.1147 -0.1996
vn 0.7396 0.0754 -0.6688
vn 0.8631 0.1692 -0.4759
vn 0.7045 0.2838 -0.6505
vn 0.8912 0.1998 -0.4073
vn 0.9364 0.1505 -0.3172
vn 0.9285 0.0955 -0.3589
vn 0.9694 0.0760 -0.2333
vn 0.9994 -0.0303 -0.0136
vn 0.8398 0.1567 0.5198
vn 0.7248 0.0625 0.6861
vn 0.7011 0.2523 0.6670
vn 0.8756 0.1931 0.4428
vn 0.9452 0.0970 0.3117
vn 0.9415 0.0260 0.3361
vn 0.9863 0.0401 0.1600
vn 0.9582 -0.1876 -0.2160
vn 0.9836 0.1450 0.1070
vn 0.8694 0.1352 0.4752
vn 0.9156 0.1377 0.3778
vn 0.9597 0.0661 0.2733
vn 0.9953 0.0427 0.0867
vn 0.9959 -0.0442 0.0793
vn 0.9888 0.0198 -0.1479
vn 0.9841 0.1509 -0.0938
vn 0.8927 0.1904 0.4084
vn 0.9898 0.1071 -0.0937
vn 0.5100 0.8162 0.2715
vn 0.9717 0.1658 0.1682
vn 0.7858 0.1996 0.5854
vn 0.9994 -0.0025 0.0339
vn 0.9200 0.1409 0.3656
vn 0.9511 0.2343 -0.2013
vn 0.9350 0.2537 -0.2480
vn 0.9811 0.0768 -0.1776
vn 0.9779 0.0673 -0.1981
vn 0.9752 0.1550 -0.1581
vn 0.9936 -0.0113 -0.1129
vn 0.9943 0.0210 -0.1048
vn 0.9903 0.0887 -0.1066
vn 0.9734 0.1732 -0.1500
vn 0.9265 0.3073 -0.2173
vn 0.9382 0.1596 -0.3070
vn 0.8506 0.4335 -0.2975
vn 0.7427 0.6669 0.0602
vn 0.7385 0.6558 -0.1564
vn 0.8704 0.4573 -0.1822
vn 0.9436 0.3077 -0.1222
vn 0.9807 0.1168 -0.1570
vn 0.4491 0.8916 -0.0577
vn 0.8377 0.4763 -0.2673
vn 0.7061 0.6698 -0.2297
vn 0.9567 0.1788 -0.2298
vn 0.8181 0.3221 -0.4763
vn 0.5415 0.7934 -0.2780
vn 0.2262 0.9736 -0.0319
vn 0.4312 0.9007 -0.0536
vn 0.4144 0.9073 -0.0715
vn 0.6479 0.7266 0.2287
vn 0.0621 0.6770 0.7334
vn 0.2411 0.9034 -0.3545
vn 0.1983 0.7928 0.5763
vn 0.1791 -0.6297 -0.7559
vn 0.1598 -0.2346 -0.9589
vn -0.0233 -0.6453 -0.7636
vn 0.0038 -0.9960 0.0896
vn 0.2642 -0.9644 -0.0155
vn 0.0703 -0.5134 0.8553
vn -0.0939 0.0748 0.9928
vn 0.0819 0.2228 0.9714
vn 0.1949 0.8799 0.4333
vn -0.1286 -0.4694 0.8736
vn -0.1599 -0.6921 0.7039
vn 0.1446 -0.0276 0.9891
vn -0.0430 0.3603 0.9318
vn -0.3074 0.8198 0.4831
vn -0.2333 0.8783 -0.4173
vn 0.0621 0.7536 -0.6544
vn 0.2725 0.8648 -0.4217
vn 0.4173 -0.5565 0.7184
vn 0.4026 -0.0000 0.9154
vn 0.0350 0.2818 0.9588
vn -0.2726 0.6311 0.7262
vn 0.1713 0.3649 -0.9151
vn 0.1875 0.2406 -0.9524
vn -0.1165 0.7631 0.6357
vn 0.2105 0.3650 0.9069
vn -0.0039 0.7715 0.6362
vn 0.0548 0.7464 0.6632
vn -0.0192 0.7516 0.6593
vn 0.2027 0.3724 0.9057
vn 0.3977 -0.0313 0.9170
vn 0.6196 -0.5051 0.6007
vn 0.4865 -0.8610 -0.1482
vn 0.2028 -0.5757 -0.7921
vn 0.2144 -0.1369 -0.9671
vn 0.1875 0.2405 -0.9524
vn 0.1713 0.3649 -0.9152
vn 0.0118 -0.1216 -0.9925
vn -0.0507 0.2979 -0.9533
vn -0.1832 0.0154 -0.9830
vn 0.1287 -0.4512 -0.8831
vn 0.0429 -0.0744 -0.9963
vn -0.0350 0.6449 0.7635
vn -0.1915 0.2278 0.9547
vn -0.0975 0.6771 0.7294
vn 0.0879 0.9734 0.2114
vn 0.2681 0.9488 0.1672
vn 0.6817 0.6434 -0.3483
vn 0.2333 0.9692 0.0781
vn 0.5099 0.8163 0.2715
vn 0.9898 0.1071 -0.0938
vn 0.0584 0.2897 0.9553
vn 0.1369 0.3610 0.9225
vn 0.2102 0.6647 0.7169
vn 0.3893 0.5635 0.7286
vn 0.0742 0.4660 0.8817
vn 0.5261 0.2427 0.8151
vn 0.1952 0.2115 0.9577
vn 0.1640 -0.2001 0.9659
vn 0.0856 -0.2504 0.9644
vn 0.0740 -0.7047 0.7056
vn 0.3542 -0.8292 0.4324
vn 0.5887 -0.7636 0.2653
vn 0.3073 -0.7544 0.5800
vn 0.0823 -0.5603 0.8242
vn 0.0505 -0.9981 0.0351
vn 0.0003 -0.7264 0.6873
vn 0.1635 -0.9821 0.0938
vn -0.0040 -0.6618 -0.7497
vn 0.1365 -0.6659 -0.7334
vn 0.2134 -0.9634 -0.1622
vn 0.1990 -0.6982 -0.6877
vn 0.2375 -0.7668 -0.5963
vn 0.1011 0.7659 0.6349
vn 0.1367 0.6470 0.7502
vn 0.1324 0.2621 0.9559
vn 0.0703 0.7371 0.6722
vn 0.0854 0.9960 -0.0282
vn 0.2062 0.9782 -0.0234
vn 0.2571 0.5711 0.7796
vn 0.1833 0.1527 0.9711
vn 0.1712 -0.3810 0.9086
vn 0.0510 0.1759 0.9831
vn -0.0078 0.7660 0.6428
vn 0.0583 0.9848 -0.1637
vn 0.0937 0.5595 -0.8235
vn 0.0662 0.5663 -0.8216
vn 0.1365 0.4813 -0.8659
vn -0.0815 0.9873 -0.1363
vn 0.0351 0.4619 -0.8862
vn 0.0117 0.1099 0.9939
vn 0.1913 -0.5948 0.7807
vn 0.1559 0.0431 0.9868
vn 0.1636 0.4580 0.8738
vn 0.3118 0.7362 0.6006
vn 0.0934 0.8931 0.4402
vn 0.1752 0.9040 -0.3900
vn -0.1011 0.9849 0.1405
vn -0.0819 0.7895 -0.6082
vn 0.1905 -0.9732 0.1286
vn 0.1130 -0.5323 0.8390
vn 0.1330 -0.0588 0.9894
vn 0.0819 0.4075 0.9095
vn 0.0274 0.5128 0.8581
vn 0.0192 0.9070 0.4207
vn 0.4252 0.9048 0.0238
vn 0.2491 0.4188 -0.8732
vn 0.0273 0.2436 -0.9695
vn 0.1093 -0.6659 0.7379
vn 0.1520 -0.1370 0.9788
vn 0.3033 -0.7344 -0.6072
vn 0.2994 -0.9420 0.1518
vn 0.2144 -0.6581 0.7218
vn 0.1835 -0.1647 0.9691
vn 0.8027 0.5400 0.2531
vn 0.1954 0.1689 0.9661
vn 0.0937 0.5595 -0.8235
vn 0.0351 0.4619 -0.8862
vn 0.1524 -0.1924 -0.9694
vn 0.1559 -0.1605 -0.9746
vn 0.0662 0.5662 -0.8216
vn 0.1365 0.4812 -0.8659
vn 0.1559 -0.2777 -0.9479
vn -0.0038 -0.1727 -0.9850
vn -0.0429 -0.9980 -0.0471
vn -0.0625 -0.7522 -0.6560
vn -0.0899 -0.2115 -0.9732
vn -0.2028 0.4471 -0.8712
vn -0.2029 0.4470 0.8712
vn -0.0896 -0.2115 0.9733
vn -0.0624 -0.7522 0.6560
vn -0.0429 -0.9980 0.0468
vn 0.1715 -0.3810 -0.9085
vn 0.0506 0.1762 -0.9830
vn 0.1327 0.2621 -0.9559
vn 0.0703 0.7371 -0.6722
vn 0.1012 0.7659 -0.6349
vn 0.0854 0.9959 0.0285
vn 0.0583 0.9848 0.1638
vn -0.0079 0.7659 -0.6429
vn 0.0116 0.1099 -0.9939
vn 0.1911 -0.5949 -0.7808
vn 0.1832 0.1528 -0.9711
vn 0.1367 0.6470 -0.7501
vn 0.2062 0.9782 0.0234
vn 0.0936 0.5595 0.8235
vn 0.0351 0.4619 0.8862
vn -0.0814 0.9873 0.1363
vn 0.0662 0.5663 0.8216
vn 0.1364 0.4814 0.8658
vn 0.3118 0.7363 -0.6006
vn 0.2571 0.5710 -0.7796
vn 0.1560 0.0431 -0.9868
vn 0.1636 0.4580 -0.8738
vn 0.0934 0.8931 -0.4401
vn 0.1751 0.9040 0.3901
vn -0.1018 0.9848 -0.1404
vn -0.0818 0.7895 0.6082
vn 0.0274 0.2436 0.9695
vn 0.2491 0.4189 0.8732
vn 0.4248 0.9050 -0.0241
vn 0.0193 0.9070 -0.4207
vn 0.0274 0.5128 -0.8581
vn 0.0819 0.4075 -0.9095
vn 0.1328 -0.0589 -0.9894
vn 0.1130 -0.5323 -0.8390
vn 0.1905 -0.9732 -0.1287
vn 0.2134 -0.9634 0.1622
vn 0.2375 -0.7669 0.5963
vn 0.1991 -0.6982 0.6877
vn 0.1093 -0.6659 -0.7379
vn 0.1519 -0.1371 -0.9788
vn 0.3033 -0.7344 0.6072
vn 0.2994 -0.9420 -0.1518
vn 0.2144 -0.6581 -0.7218
vn 0.1835 -0.1647 -0.9691
vn 0.1368 0.3609 -0.9225
vn 0.2102 0.6647 -0.7169
vn 0.3894 0.5635 -0.7286
vn 0.8025 0.5401 -0.2533
vn 0.1561 -0.2777 0.9479
vn 0.1910 -0.2423 0.9512
vn 0.4868 -0.6655 0.5658
vn 0.4598 -0.8499 -0.2575
vn 0.2728 -0.6270 -0.7297
vn 0.1641 -0.2001 -0.9659
vn 0.0584 0.2897 -0.9553
vn 0.0742 0.4660 -0.8817
vn 0.1952 0.2115 -0.9577
vn 0.3743 -0.0703 0.9247
vn 0.0274 0.2435 0.9695
vn 0.9044 -0.3642 -0.2224
vn 0.9194 -0.0393 -0.3915
vn 0.8789 0.0078 -0.4770
vn 0.9690 0.2358 -0.0738
vn 0.2491 0.4189 0.8732
vn 0.5887 -0.7636 -0.2653
vn 0.6871 -0.6940 -0.2149
vn 0.9117 -0.4108 -0.0001
vn 0.9980 -0.0632 -0.0040
vn 0.9994 -0.0355 0.0000
vn 0.9991 -0.0432 -0.0000
vn 0.8438 -0.0353 -0.5355
vn 0.8039 0.1566 -0.5737
vn 0.8026 0.5401 -0.2533
vn 0.4248 0.9050 -0.0242
vn 0.4515 -0.8136 -0.3662
vn 0.4361 -0.8999 0.0001
vn 0.2601 -0.9191 -0.2959
vn 0.3541 -0.8292 -0.4324
vn 0.7015 -0.7127 -0.0000
vn 0.5421 -0.7721 -0.3317
vn 0.3073 -0.7545 -0.5800
vn 0.0741 -0.7046 -0.7058
vn 0.6380 -0.7701 -0.0000
vn 0.4733 -0.0276 -0.8804
vn 0.1442 0.0745 -0.9867
vn 0.5045 0.0668 -0.8608
vn 0.4330 0.2196 -0.8742
vn 0.3700 0.3484 -0.8612
vn 0.0586 0.1846 -0.9811
vn 0.1327 0.0784 -0.9880
vn 0.6136 -0.7583 0.2201
usemtl mat0
f 1/1/1 2/2/2 3/3/3
f 3/3/3 4/4/4 1/1/1
f 3/3/3 5/5/5 4/4/4
f 6/6/6 4/4/4 5/5/5
f 5/5/5 7/7/7 6/6/6
f 8/8/8 6/6/6 7/7/7
f 7/7/7 9/9/9 8/8/8
f 10/10/10 8/8/8 9/9/9
f 8/8/8 10/10/10 11/11/11
f 12/12/12 11/11/11 10/10/10
f 12/12/12 13/13/13 11/11/11
f 14/14/14 15/15/15 16/16/16
f 16/16/16 17/17/17 14/14/14
f 16/16/16 18/18/18 17/17/17
f 18/18/18 16/16/16 19/19/19
f 19/19/19 20/20/20 18/18/18
f 21/21/21 18/18/18 20/20/20
f 21/21/21 20/20/20 22/22/22
f 22/22/22 23/23/23 21/21/21
f 24/24/24 21/21/21 23/23/23
f 24/24/24 25/25/25 21/21/21
f 18/18/18 21/21/21 25/25/25
f 25/25/25 26/26/26 18/18/18
f 26/26/26 17/17/17 18/18/18
f 26/26/26 27/27/27 17/17/17
f 28/28/28 29/29/29 30/30/30
f 22/22/22 30/30/30 29/29/29
f 30/30/30 22/22/22 20/20/20
f 20/20/20 31/31/31 30/30/30
f 31/31/31 20/20/20 19/19/19
f 31/31/31 19/19/19 32/32/32
f 33/33/33 32/32/32 19/19/19
f 33/33/33 34/34/34 32/32/32
f 33/33/33 35/35/35 34/34/34
f 36/36/36 34/34/34 35/35/35
f 35/35/35 37/37/37 36/36/36
f 38/38/38 36/36/36 37/37/37
f 37/37/37 39/39/39 38/38/38
f 40/40/40 38/38/38 39/39/39
f 39/39/39 41/41/41 40/40/40
f 42/42/42 32/32/32 34/34/34
f 32/32/32 42/42/42 43/43/43
f 44/44/44 43/43/43 42/42/42
f 44/44/44 45/45/45 43/43/43
f 46/46/46 43/43/43 45/45/45
f 43/43/43 46/46/46 47/47/47
f 48/48/48 47/47/47 46/46/46
f 48/48/48 28/28/28 47/47/47
f 30/30/30 47/47/47 28/28/28
f 47/47/47 30/30/30 31/31/31
f 47/47/47 31/31/31 43/43/43
f 32/32/32 43/43/43 31/31/31
f 49/49/49 50/50/50 51/51/51
f 52/52/52 51/51/51 50/50/50
f 52/52/52 53/53/53 51/51/51
f 52/52/52 54/54/54 53/53/53
f 55/55/55 53/53/53 54/54/54
f 54/54/54 56/56/56 55/55/55
f 57/57/57 55/55/55 56/56/56
f 56/56/56 58/58/58 57/57/57
f 59/59/59 57/57/57 58/58/58
f 58/58/58 60/60/60 59/59/59
f 61/61/61 59/59/59 60/60/60
f 60/60/60 62/62/62 61/61/61
f 60/60/60 63/63/63 62/62/62
f 64/64/64 62/62/62 63/63/63
f 64/64/64 65/65/65 62/62/62
f 66/66/66 62/62/62 65/65/65
f 65/65/65 67/67/67 66/66/66
f 63/63/63 60/60/60 68/68/68
f 58/58/58 68/68/68 60/60/60
f 58/58/58 56/56/56 68/68/68
f 69/69/69 68/68/68 56/56/56
f 56/56/56 54/54/54 69/69/69
f 70/70/70 69/69/69 54/54/54
f 70/70/70 54/54/54 50/50/50
f 52/52/52 50/50/50 54/54/54
f 71/71/71 72/72/72 73/73/73
f 73/73/73 74/74/74 71/71/71
f 75/75/75 71/71/71 74/74/74
f 74/74/74 76/76/76 75/75/75
f 77/77/77 75/75/75 76/76/76
f 77/77/77 76/76/76 78/78/78
f 77/77/77 78/78/78 79/79/79
f 80/80/80 79/79/79 78/78/78
f 79/79/79 80/80/80 81/81/81
f 82/82/82 81/81/81 80/80/80
f 82/82/82 83/83/83 81/81/81
f 84/84/84 81/81/81 83/83/83
f 84/84/84 85/85/85 81/81/81
f 86/86/86 81/81/81 85/85/85
f 85/85/85 87/87/87 86/86/86
f 88/88/88 86/86/86 87/87/87
f 87/87/87 89/89/89 88/88/88
f 90/90/90 88/88/88 89/89/89
f 75/75/75 77/77/77 71/71/71
f 79/79/79 71/71/71 77/77/77
f 71/71/71 79/79/79 72/72/72
f 81/81/81 72/72/72 79/79/79
f 81/81/81 86/86/86 72/72/72
f 91/91/91 72/72/72 86/86/86
f 86/86/86 88/88/88 91/91/91
f 92/92/92 91/91/91 88/88/88
f 88/88/88 90/90/90 92/92/92
f 93/93/93 92/92/92 90/90/90
f 90/90/90 94/94/94 93/93/93
f 95/95/95 93/93/93 94/94/94
f 89/89/89 96/96/96 90/90/90
f 94/94/94 90/90/90 96/96/96
f 96/96/96 97/97/97 94/94/94
f 98/98/98 94/94/94 97/97/97
f 94/94/94 98/98/98 95/95/95
f 99/99/99 95/95/95 98/98/98
f 95/95/95 99/99/99 100/100/100
f 101/101/101 100/100/100 99/99/99
f 100/100/100 101/101/101 102/102/102
f 103/103/103 104/104/104 105/105/105
f 103/103/103 105/105/105 106/106/106
f 106/106/106 107/107/107 103/103/103
f 107/107/107 106/106/106 108/108/108
f 108/108/108 109/109/109 107/107/107
f 109/109/109 108/108/108 110/110/110
f 110/110/110 108/108/108 111/111/111
f 110/110/110 111/111/111 112/112/112
f 113/113/113 114/114/114 115/115/115
f 115/115/115 116/116/116 117/117/117
f 116/116/116 115/115/115 114/114/114
f 114/114/114 118/118/118 116/116/116
f 114/114/114 119/119/119 118/118/118
f 114/114/114 113/113/113 119/119/119
f 120/120/120 119/119/119 113/113/113
f 121/121/121 122/122/122 118/118/118
f 121/121/121 118/118/118 119/119/119
f 119/119/119 123/123/123 121/121/121
f 119/119/119 120/120/120 123/123/123
f 124/124/124 123/123/123 120/120/120
f 125/125/125 126/126/126 127/127/127
f 128/128/128 127/127/127 126/126/126
f 129/129/129 126/126/126 130/130/130
f 129/129/129 130/130/130 131/131/131
f 132/132/132 131/131/131 130/130/130
f 133/133/133 134/134/134 132/132/132
f 122/122/122 135/135/135 133/133/133
f 122/122/122 121/121/121 135/135/135
f 136/136/136 135/135/135 121/121/121
f 136/136/136 121/121/121 123/123/123
f 123/123/123 137/137/137 136/136/136
f 123/123/123 124/124/124 137/137/137
f 138/138/138 137/137/137 124/124/124
f 137/137/137 138/138/138 76/76/76
f 139/139/139 76/76/76 138/138/138
f 140/140/140 76/76/76 139/139/139
f 140/140/140 78/78/78 76/76/76
f 127/127/127 128/128/128 141/141/141
f 141/141/141 142/142/142 127/127/127
f 143/143/143 127/127/127 142/142/142
f 127/127/127 143/143/143 125/125/125
f 144/144/144 125/125/125 143/143/143
f 125/125/125 144/144/144 145/145/145
f 125/125/125 145/145/145 126/126/126
f 146/146/146 126/126/126 145/145/145
f 146/146/146 130/130/130 126/126/126
f 130/130/130 146/146/146 147/147/147
f 130/130/130 147/147/147 132/132/132
f 148/148/148 132/132/132 147/147/147
f 132/132/132 148/148/148 133/133/133
f 149/149/149 133/133/133 148/148/148
f 133/133/133 149/149/149 122/122/122
f 150/150/150 151/151/151 152/152/152
f 153/153/153 152/152/152 151/151/151
f 152/152/152 153/153/153 154/154/154
f 155/155/155 156/156/156 157/157/157
f 158/158/158 157/157/157 156/156/156
f 158/158/158 156/156/156 159/159/159
f 160/160/160 159/159/159 156/156/156
f 159/159/159 160/160/160 161/161/161
f 162/162/162 161/161/161 160/160/160
f 162/162/162 163/163/163 161/161/161
f 164/164/164 161/161/161 163/163/163
f 163/163/163 145/145/145 164/164/164
f 165/165/165 164/164/164 145/145/145
f 165/165/165 145/145/145 144/144/144
f 166/166/166 167/167/167 154/154/154
f 168/168/168 154/154/154 167/167/167
f 167/167/167 147/147/147 168/168/168
f 169/169/169 168/168/168 147/147/147
f 169/169/169 147/147/147 146/146/146
f 146/146/146 145/145/145 169/169/169
f 163/163/163 169/169/169 145/145/145
f 169/169/169 163/163/163 168/168/168
f 162/162/162 168/168/168 163/163/163
f 168/168/168 162/162/162 154/154/154
f 160/160/160 154/154/154 162/162/162
f 154/154/154 160/160/160 152/152/152
f 156/156/156 152/152/152 160/160/160
f 152/152/152 156/156/156 150/150/150
f 155/155/155 150/150/150 156/156/156
f 155/155/155 170/170/170 150/150/150
f 155/155/155 157/157/157 170/170/170
f 171/171/171 170/170/170 157/157/157
f 147/147/147 167/167/167 148/148/148
f 172/172/172 148/148/148 167/167/167
f 167/167/167 166/166/166 172/172/172
f 173/173/173 172/172/172 166/166/166
f 148/148/148 172/172/172 149/149/149
f 174/174/174 175/175/175 176/176/176
f 176/176/176 177/177/177 174/174/174
f 178/178/178 174/174/174 177/177/177
f 178/178/178 177/177/177 173/173/173
f 172/172/172 173/173/173 177/177/177
f 177/177/177 149/149/149 172/172/172
f 177/177/177 176/176/176 149/149/149
f 179/179/179 149/149/149 176/176/176
f 176/176/176 180/180/180 179/179/179
f 180/180/180 176/176/176 175/175/175
f 175/175/175 181/181/181 180/180/180
f 181/181/181 175/175/175 182/182/182
f 183/183/183 182/182/182 175/175/175
f 175/175/175 174/174/174 183/183/183
f 184/184/184 183/183/183 174/174/174
f 174/174/174 178/178/178 184/184/184
f 185/185/185 184/184/184 178/178/178
f 185/185/185 178/178/178 186/186/186
f 173/173/173 186/186/186 178/178/178
f 186/186/186 173/173/173 153/153/153
f 166/166/166 153/153/153 173/173/173
f 166/166/166 154/154/154 153/153/153
f 153/153/153 151/151/151 186/186/186
f 187/187/187 186/186/186 151/151/151
f 186/186/186 187/187/187 185/185/185
f 179/179/179 122/122/122 149/149/149
f 179/179/179 118/118/118 122/122/122
f 118/118/118 179/179/179 180/180/180
f 180/180/180 116/116/116 118/118/118
f 116/116/116 180/180/180 181/181/181
f 181/181/181 117/117/117 116/116/116
f 181/181/181 182/182/182 117/117/117
f 188/188/188 117/117/117 182/182/182
f 182/182/182 189/189/189 188/188/188
f 182/182/182 183/183/183 189/189/189
f 190/190/190 189/189/189 183/183/183
f 183/183/183 184/184/184 190/190/190
f 191/191/191 190/190/190 184/184/184
f 184/184/184 185/185/185 191/191/191
f 192/192/192 191/191/191 185/185/185
f 192/192/192 185/185/185 187/187/187
f 187/187/187 193/193/193 192/192/192
f 187/187/187 151/151/151 193/193/193
f 194/194/194 195/195/195 196/196/196
f 195/195/195 194/194/194 197/197/197
f 197/197/197 198/198/198 199/199/199
f 198/198/198 197/197/197 194/194/194
f 194/194/194 200/200/200 198/198/198
f 200/200/200 194/194/194 189/189/189
f 196/196/196 189/189/189 194/194/194
f 196/196/196 188/188/188 189/189/189
f 189/189/189 190/190/190 200/200/200
f 201/201/201 202/202/202 203/203/203
f 201/201/201 203/203/203 193/193/193
f 193/193/193 203/203/203 204/204/204
f 204/204/204 192/192/192 193/193/193
f 204/204/204 205/205/205 192/192/192
f 191/191/191 192/192/192 205/205/205
f 205/205/205 206/206/206 191/191/191
f 190/190/190 191/191/191 206/206/206
f 206/206/206 200/200/200 190/190/190
f 200/200/200 206/206/206 207/207/207
f 200/200/200 207/207/207 198/198/198
f 208/208/208 198/198/198 207/207/207
f 208/208/208 199/199/199 198/198/198
f 207/207/207 209/209/209 208/208/208
f 201/201/201 193/193/193 151/151/151
f 151/151/151 150/150/150 201/201/201
f 202/202/202 201/201/201 150/150/150
f 202/202/202 150/150/150 170/170/170
f 202/202/202 170/170/170 210/210/210
f 171/171/171 210/210/210 170/170/170
f 210/210/210 171/171/171 211/211/211
f 212/212/212 211/211/211 171/171/171
f 211/211/211 212/212/212 213/213/213
f 214/214/214 213/213/213 212/212/212
f 215/215/215 216/216/216 213/213/213
f 211/211/211 213/213/213 216/216/216
f 216/216/216 203/203/203 211/211/211
f 210/210/210 211/211/211 203/203/203
f 210/210/210 203/203/203 202/202/202
f 217/217/217 218/218/218 219/219/219
f 217/217/217 205/205/205 220/220/220
f 217/217/217 219/219/219 205/205/205
f 206/206/206 205/205/205 219/219/219
f 219/219/219 207/207/207 206/206/206
f 207/207/207 219/219/219 209/209/209
f 216/216/216 204/204/204 203/203/203
f 216/216/216 215/215/215 204/204/204
f 220/220/220 204/204/204 215/215/215
f 204/204/204 220/220/220 205/205/205
f 221/221/221 222/222/222 223/223/223
f 224/224/224 223/223/223 222/222/222
f 224/224/224 222/222/222 225/225/225
f 225/225/225 226/226/226 224/224/224
f 227/227/227 224/224/224 226/226/226
f 226/226/226 228/228/228 227/227/227
f 229/229/229 227/227/227 228/228/228
f 228/228/228 230/230/230 229/229/229
f 231/231/231 229/229/229 230/230/230
f 230/230/230 232/232/232 231/231/231
f 233/233/233 231/231/231 232/232/232
f 233/233/233 232/232/232 234/234/234
f 233/233/233 234/234/234 235/235/235
f 236/236/236 235/235/235 234/234/234
f 237/237/237 238/238/238 239/239/239
f 238/238/238 237/237/237 240/240/240
f 241/241/241 240/240/240 237/237/237
f 240/240/240 241/241/241 242/242/242
f 243/243/243 242/242/242 241/241/241
f 243/243/243 241/241/241 244/244/244
f 244/244/244 245/245/245 243/243/243
f 245/245/245 244/244/244 235/235/235
f 246/246/246 235/235/235 244/244/244
f 235/235/235 246/246/246 233/233/233
f 231/231/231 233/233/233 246/246/246
f 246/246/246 247/247/247 231/231/231
f 247/247/247 246/246/246 248/248/248
f 248/248/248 249/249/249 247/247/247
f 249/249/249 237/237/237 250/250/250
f 237/237/237 249/249/249 241/241/241
f 248/248/248 241/241/241 249/249/249
f 248/248/248 244/244/244 241/241/241
f 244/244/244 248/248/248 246/246/246
f 249/249/249 250/250/250 251/251/251
f 251/251/251 247/247/247 249/249/249
f 223/223/223 251/251/251 250/250/250
f 223/223/223 224/224/224 251/251/251
f 227/227/227 251/251/251 224/224/224
f 251/251/251 227/227/227 247/247/247
f 229/229/229 247/247/247 227/227/227
f 229/229/229 231/231/231 247/247/247
f 222/222/222 221/221/221 252/252/252
f 253/253/253 252/252/252 221/221/221
f 253/253/253 254/254/254 252/252/252
f 255/255/255 252/252/252 254/254/254
f 254/254/254 256/256/256 255/255/255
f 254/254/254 253/253/253 256/256/256
f 257/257/257 256/256/256 253/253/253
f 258/258/258 225/225/225 222/222/222
f 222/222/222 252/252/252 258/258/258
f 259/259/259 258/258/258 252/252/252
f 252/252/252 260/260/260 259/259/259
f 260/260/260 252/252/252 261/261/261
f 255/255/255 261/261/261 252/252/252
f 255/255/255 262/262/262 261/261/261
f 262/262/262 255/255/255 256/256/256
f 256/256/256 263/263/263 262/262/262
f 256/256/256 257/257/257 263/263/263
f 264/264/264 263/263/263 257/257/257
f 265/265/265 261/261/261 262/262/262
f 262/262/262 266/266/266 265/265/265
f 267/267/267 265/265/265 266/266/266
f 267/267/267 266/266/266 268/268/268
f 269/269/269 268/268/268 266/266/266
f 269/269/269 266/266/266 270/270/270
f 271/271/271 270/270/270 266/266/266
f 266/266/266 263/263/263 271/271/271
f 272/272/272 271/271/271 263/263/263
f 266/266/266 262/262/262 263/263/263
f 263/263/263 264/264/264 272/272/272
f 273/273/273 272/272/272 264/264/264
f 273/273/273 264/264/264 274/274/274
f 275/275/275 276/276/276 277/277/277
f 277/277/277 278/278/278 275/275/275
f 278/278/278 277/277/277 279/279/279
f 279/279/279 280/280/280 278/278/278
f 281/281/281 278/278/278 280/280/280
f 280/280/280 282/282/282 281/281/281
f 283/283/283 281/281/281 282/282/282
f 281/281/281 283/283/283 284/284/284
f 285/285/285 284/284/284 283/283/283
f 284/284/284 285/285/285 286/286/286
f 287/287/287 286/286/286 285/285/285
f 270/270/270 271/271/271 287/287/287
f 286/286/286 287/287/287 271/271/271
f 271/271/271 272/272/272 286/286/286
f 288/288/288 286/286/286 272/272/272
f 272/272/272 273/273/273 288/288/288
f 289/289/289 288/288/288 273/273/273
f 289/289/289 273/273/273 290/290/290
f 289/289/289 290/290/290 275/275/275
f 275/275/275 291/291/291 289/289/289
f 291/291/291 275/275/275 278/278/278
f 278/278/278 281/281/281 291/291/291
f 284/284/284 291/291/291 281/281/281
f 286/286/286 288/288/288 284/284/284
f 291/291/291 284/284/284 288/288/288
f 288/288/288 289/289/289 291/291/291
f 292/292/292 293/293/293 294/294/294
f 294/294/294 295/295/295 292/292/292
f 296/296/296 292/292/292 295/295/295
f 295/295/295 297/297/297 296/296/296
f 298/298/298 296/296/296 297/297/297
f 297/297/297 299/299/299 298/298/298
f 300/300/300 298/298/298 299/299/299
f 299/299/299 301/301/301 300/300/300
f 296/296/296 302/295/302 292/292/292
f 302/295/302 296/296/296 303/297/303
f 298/298/298 303/297/303 296/296/296
f 303/297/303 298/298/298 304/299/304
f 300/300/300 304/299/304 298/298/298
f 304/299/304 300/300/300 305/301/305
f 306/302/306 305/301/305 300/300/300
f 306/302/306 300/300/300 301/301/301
f 306/302/306 301/301/301 307/303/307
f 301/301/301 308/304/308 307/303/307
f 301/301/301 299/299/299 308/304/308
f 309/305/309 308/304/308 299/299/299
f 299/299/299 297/297/297 309/305/309
f 310/306/310 309/305/309 297/297/297
f 297/297/297 295/295/295 310/306/310
f 311/307/311 310/306/310 295/295/295
f 295/295/295 294/294/294 311/307/311
f 312/308/312 311/307/311 294/294/294
f 313/309/313 314/310/314 315/311/315
f 315/311/315 314/310/314 316/312/316
f 317/313/317 316/312/316 314/310/314
f 316/312/316 317/313/317 318/314/318
f 319/315/319 318/314/318 317/313/317
f 318/314/318 319/315/319 320/316/320
f 321/310/321 322/309/322 323/311/323
f 323/311/323 324/312/324 321/310/321
f 325/313/325 321/310/321 324/312/324
f 324/312/324 326/314/326 325/313/325
f 327/315/327 325/313/325 326/314/326
f 326/314/326 320/316/320 327/315/327
f 328/317/328 327/315/327 320/316/320
f 328/317/328 320/316/320 319/315/319
f 319/315/319 312/308/312 328/317/328
f 312/308/312 319/315/319 311/307/311
f 317/313/317 311/307/311 319/315/319
f 311/307/311 317/313/317 310/306/310
f 314/310/314 310/306/310 317/313/317
f 310/306/310 314/310/314 309/305/309
f 313/309/313 309/305/309 314/310/314
f 309/305/309 313/309/313 308/304/308
f 329/318/329 308/304/308 313/309/313
f 304/299/304 330/305/330 303/297/303
f 331/306/331 303/297/303 330/305/330
f 303/297/303 331/306/331 302/295/302
f 332/307/332 302/295/302 331/306/331
f 302/295/302 332/307/332 333/294/333
f 334/308/334 333/294/333 332/307/332
f 334/308/334 335/319/335 333/294/333
f 336/320/336 333/294/333 335/319/335
f 336/320/336 335/319/335 294/294/294
f 294/294/294 293/293/293 336/320/336
f 293/293/293 333/294/333 336/320/336
f 293/293/293 292/292/292 333/294/333
f 333/294/333 292/292/292 302/295/302
f 312/308/312 294/294/294 335/319/335
f 335/319/335 328/317/328 312/308/312
f 335/319/335 334/308/334 328/317/328
f 327/315/327 328/317/328 334/308/334
f 334/308/334 332/307/332 327/315/327
f 325/313/325 327/315/327 332/307/332
f 332/307/332 331/306/331 325/313/325
f 321/310/321 325/313/325 331/306/331
f 331/306/331 330/305/330 321/310/321
f 322/309/322 321/310/321 330/305/330
f 330/305/330 337/304/337 322/309/322
f 338/318/338 322/309/322 337/304/337
f 338/318/338 337/304/337 339/321/339
f 337/304/337 340/303/340 339/321/339
f 340/303/340 341/322/341 339/321/339
f 341/322/341 340/303/340 342/323/342
f 342/323/342 343/324/343 341/322/341
f 343/324/343 342/323/342 344/325/344
f 345/326/345 346/327/346 347/328/347
f 348/329/348 347/328/347 346/327/346
f 346/327/346 349/330/349 348/329/348
f 348/329/348 349/330/349 350/331/350
f 348/329/348 350/331/350 351/330/351
f 351/330/351 352/327/352 348/329/348
f 348/329/348 352/327/352 347/328/347
f 353/326/353 347/328/347 352/327/352
f 347/328/347 353/326/353 354/332/354
f 347/328/347 354/332/354 345/326/345
f 355/333/355 345/326/345 354/332/354
f 355/333/355 344/325/344 345/326/345
f 346/327/346 345/326/345 344/325/344
f 344/325/344 342/323/342 346/327/346
f 349/330/349 346/327/346 342/323/342
f 349/330/349 342/323/342 340/303/340
f 340/303/340 350/331/350 349/330/349
f 343/324/343 344/325/344 356/334/356
f 355/333/355 356/334/356 344/325/344
f 356/334/356 355/333/355 357/335/357
f 354/332/354 357/335/357 355/333/355
f 354/332/354 358/333/358 357/335/357
f 358/333/358 354/332/354 353/326/353
f 358/333/358 353/326/353 359/325/359
f 352/327/352 359/325/359 353/326/353
f 359/325/359 352/327/352 360/323/360
f 351/330/351 360/323/360 352/327/352
f 351/330/351 307/303/307 360/323/360
f 307/303/307 351/330/351 350/331/350
f 350/331/350 306/302/306 307/303/307
f 306/302/306 350/331/350 340/303/340
f 305/301/305 306/302/306 340/303/340
f 337/304/337 305/301/305 340/303/340
f 305/301/305 337/304/337 304/299/304
f 330/305/330 304/299/304 337/304/337
f 361/336/361 362/334/362 363/337/363
f 364/324/364 363/337/363 362/334/362
f 363/337/363 364/324/364 365/322/365
f 365/322/365 366/321/366 363/337/363
f 361/336/361 363/337/363 366/321/366
f 366/321/366 367/338/367 361/336/361
f 308/304/308 329/318/329 366/321/366
f 307/303/307 308/304/308 366/321/366
f 365/322/365 307/303/307 366/321/366
f 365/322/365 360/323/360 307/303/307
f 360/323/360 365/322/365 364/324/364
f 360/323/360 364/324/364 359/325/359
f 364/324/364 362/334/362 359/325/359
f 358/333/358 359/325/359 362/334/362
f 362/334/362 357/335/357 358/333/358
f 362/334/362 361/336/361 357/335/357
f 368/339/368 357/335/357 361/336/361
f 368/339/368 361/336/361 367/338/367
f 368/339/368 367/338/367 369/336/369
f 339/321/339 369/336/369 367/338/367
f 369/336/369 339/321/339 370/337/370
f 341/322/341 370/337/370 339/321/339
f 370/337/370 341/322/341 343/324/343
f 343/324/343 356/334/356 370/337/370
f 368/339/368 369/336/369 357/335/357
f 356/334/356 357/335/357 369/336/369
f 369/336/369 370/337/370 356/334/356
f 371/340/371 372/341/372 373/342/373
f 374/343/374 375/344/375 376/345/376
f 374/343/374 376/345/376 377/346/377
f 377/346/377 378/347/378 374/343/374
f 378/347/378 377/346/377 379/348/379
f 380/349/380 371/340/371 381/350/381
f 373/342/373 381/350/381 371/340/371
f 373/342/373 382/351/382 381/350/381
f 383/352/383 379/348/379 377/346/377
f 383/352/383 377/346/377 384/353/384
f 383/352/383 380/349/380 379/348/379
f 381/350/381 379/348/379 380/349/380
f 381/350/381 385/354/385 379/348/379
f 381/350/381 386/355/386 385/354/385
f 386/355/386 381/350/381 382/351/382
f 382/351/382 387/356/387 386/355/386
f 387/356/387 382/351/382 388/357/388
f 389/358/389 388/357/388 382/351/382
f 389/358/389 382/351/382 390/359/390
f 373/342/373 390/359/390 382/351/382
f 390/359/390 373/342/373 372/341/372
f 379/348/379 391/360/391 378/347/378
f 391/360/391 379/348/379 385/354/385
f 385/354/385 392/361/392 391/360/391
f 385/354/385 393/362/393 392/361/392
f 393/362/393 385/354/385 386/355/386
f 393/362/393 386/355/386 394/363/394
f 387/356/387 394/363/394 386/355/386
f 394/363/394 387/356/387 53/53/53
f 388/357/388 53/53/53 387/356/387
f 388/357/388 51/51/51 53/53/53
f 388/357/388 389/358/389 51/51/51
f 49/49/49 51/51/51 389/358/389
f 389/358/389 390/359/390 49/49/49
f 395/364/395 49/49/49 390/359/390
f 390/359/390 372/341/372 395/364/395
f 396/365/396 395/364/395 372/341/372
f 53/53/53 55/55/55 394/363/394
f 397/366/397 394/363/394 55/55/55
f 55/55/55 57/57/57 397/366/397
f 398/367/398 392/361/392 393/362/393
f 393/362/393 394/363/394 398/367/398
f 397/366/397 398/367/398 394/363/394
f 399/368/399 59/59/59 400/369/400
f 59/59/59 399/368/399 57/57/57
f 401/370/401 57/57/57 399/368/399
f 401/370/401 397/366/397 57/57/57
f 401/370/401 402/371/402 397/366/397
f 398/367/398 397/366/397 402/371/402
f 402/371/402 403/372/403 398/367/398
f 392/361/392 398/367/398 403/372/403
f 392/361/392 403/372/403 404/373/404
f 404/373/404 391/360/391 392/361/392
f 391/360/391 404/373/404 405/374/405
f 405/374/405 378/347/378 391/360/391
f 378/347/378 405/374/405 406/375/406
f 406/375/406 374/343/374 378/347/378
f 406/375/406 407/376/407 374/343/374
f 375/344/375 374/343/374 407/376/407
f 375/344/375 407/376/407 408/377/408
f 409/378/409 408/377/408 407/376/407
f 407/376/407 410/379/410 409/378/409
f 411/380/411 409/378/409 410/379/410
f 411/380/411 410/379/410 412/381/412
f 412/381/412 410/379/410 413/382/413
f 412/381/412 413/382/413 414/383/414
f 234/234/234 414/383/414 413/382/413
f 414/383/414 234/234/234 232/232/232
f 236/236/236 405/374/405 404/373/404
f 405/374/405 236/236/236 413/382/413
f 413/382/413 406/375/406 405/374/405
f 406/375/406 413/382/413 410/379/410
f 406/375/406 410/379/410 407/376/407
f 234/234/234 413/382/413 236/236/236
f 235/235/235 236/236/236 245/245/245
f 404/373/404 245/245/245 236/236/236
f 245/245/245 404/373/404 403/372/403
f 403/372/403 243/243/243 245/245/245
f 403/372/403 402/371/402 243/243/243
f 242/242/242 243/243/243 402/371/402
f 402/371/402 401/370/401 242/242/242
f 399/368/399 242/242/242 401/370/401
f 242/242/242 399/368/399 240/240/240
f 400/369/400 240/240/240 399/368/399
f 240/240/240 400/369/400 238/238/238
f 415/384/415 238/238/238 400/369/400
f 238/238/238 415/384/415 416/385/416
f 417/386/417 416/385/416 415/384/415
f 418/387/418 419/388/419 420/389/420
f 417/386/417 415/384/415 419/388/419
f 421/390/421 419/388/419 415/384/415
f 415/384/415 400/369/400 421/390/421
f 420/389/420 422/391/422 418/387/418
f 422/391/422 420/389/420 423/392/423
f 67/67/67 423/392/423 420/389/420
f 420/389/420 66/66/66 67/67/67
f 66/66/66 420/389/420 419/388/419
f 66/66/66 419/388/419 62/62/62
f 421/390/421 62/62/62 419/388/419
f 421/390/421 61/61/61 62/62/62
f 61/61/61 421/390/421 400/369/400
f 61/61/61 400/369/400 59/59/59
f 424/393/424 425/394/425 426/395/426
f 426/395/426 427/396/427 428/397/428
f 427/396/427 429/398/429 430/399/430
f 17/17/17 27/27/27 14/14/14
f 27/27/27 431/400/431 14/14/14
f 432/401/432 14/14/14 431/400/431
f 14/14/14 432/401/432 15/15/15
f 15/15/15 433/402/433 434/403/434
f 434/403/434 16/16/16 15/15/15
f 434/403/434 435/404/435 16/16/16
f 435/404/435 19/19/19 16/16/16
f 435/404/435 35/35/35 19/19/19
f 33/33/33 19/19/19 35/35/35
f 436/405/436 434/403/434 433/402/433
f 37/37/37 436/405/436 39/39/39
f 434/403/434 436/405/436 37/37/37
f 37/37/37 35/35/35 434/403/434
f 435/404/435 434/403/434 35/35/35
f 437/406/437 438/407/438 439/408/439
f 438/407/438 437/406/437 440/409/440
f 438/407/438 440/409/440 441/410/441
f 442/411/442 441/410/441 440/409/440
f 440/409/440 443/412/443 442/411/442
f 444/413/444 442/411/442 443/412/443
f 444/413/444 443/412/443 445/414/445
f 446/415/446 447/416/447 448/417/448
f 446/415/446 448/417/448 449/418/449
f 446/415/446 449/418/449 450/419/450
f 450/419/450 451/420/451 446/415/446
f 447/416/447 446/415/446 451/420/451
f 447/416/447 451/420/451 452/421/452
f 447/416/447 452/421/452 453/422/453
f 453/422/453 448/417/448 447/416/447
f 448/417/448 453/422/453 454/423/454
f 448/417/448 454/423/454 455/424/455
f 455/424/455 449/418/449 448/417/448
f 449/418/449 455/424/455 456/425/456
f 449/418/449 456/425/456 457/426/457
f 457/426/457 450/419/450 449/418/449
f 450/419/450 457/426/457 458/427/458
f 450/419/450 458/427/458 451/420/451
f 459/428/459 451/420/451 458/427/458
f 459/428/459 460/429/460 451/420/451
f 457/426/457 461/430/461 462/431/462
f 462/431/462 458/427/458 457/426/457
f 455/424/455 437/406/437 463/432/463
f 437/406/437 455/424/455 454/423/454
f 454/423/454 440/409/440 437/406/437
f 454/423/454 464/433/464 440/409/440
f 464/433/464 454/423/454 453/422/453
f 453/422/453 465/434/465 464/433/464
f 465/434/465 453/422/453 452/421/452
f 452/421/452 466/435/466 465/434/465
f 466/435/466 452/421/452 467/436/467
f 467/436/467 452/421/452 451/420/451
f 467/436/467 451/420/451 468/437/468
f 469/438/469 468/437/468 451/420/451
f 469/438/469 470/439/470 468/437/468
f 469/438/469 471/440/471 470/439/470
f 443/412/443 440/409/440 464/433/464
f 467/436/467 468/437/468 466/435/466
f 472/441/472 445/414/445 443/412/443
f 443/412/443 464/433/464 472/441/472
f 473/442/473 472/441/472 464/433/464
f 473/442/473 464/433/464 465/434/465
f 465/434/465 474/443/474 473/442/473
f 474/443/474 465/434/465 466/435/466
f 466/435/466 475/444/475 474/443/474
f 475/444/475 466/435/466 468/437/468
f 475/444/475 468/437/468 476/445/476
f 470/439/470 476/445/476 468/437/468
f 470/439/470 477/446/477 476/445/476
f 477/446/477 470/439/470 471/440/471
f 478/447/478 477/446/477 471/440/471
f 478/447/478 471/440/471 479/448/479
f 480/449/480 479/448/479 471/440/471
f 480/449/480 471/440/471 460/429/460
f 469/438/469 460/429/460 471/440/471
f 469/438/469 451/420/451 460/429/460
f 473/442/473 481/450/481 472/441/472
f 481/450/481 473/442/473 474/443/474
f 474/443/474 482/451/482 481/450/481
f 482/451/482 474/443/474 475/444/475
f 475/444/475 476/445/476 482/451/482
f 445/414/445 472/441/472 483/452/483
f 484/453/484 483/452/483 472/441/472
f 484/453/484 472/441/472 481/450/481
f 481/450/481 485/454/485 484/453/484
f 485/454/485 481/450/481 482/451/482
f 482/451/482 486/455/486 485/454/485
f 486/455/486 482/451/482 476/445/476
f 476/445/476 425/394/425 486/455/486
f 425/394/425 476/445/476 477/446/477
f 477/446/477 426/395/426 425/394/425
f 478/447/478 426/395/426 477/446/477
f 427/396/427 426/395/426 478/447/478
f 478/447/478 487/456/487 427/396/427
f 427/396/427 487/456/487 429/398/429
f 279/279/279 429/398/429 487/456/487
f 429/398/429 279/279/279 277/277/277
f 277/277/277 488/457/488 429/398/429
f 489/458/489 490/459/490 491/460/491
f 491/460/491 492/461/492 489/458/489
f 493/462/493 489/458/489 492/461/492
f 493/462/493 492/461/492 494/463/494
f 495/464/495 494/463/494 492/461/492
f 494/463/494 495/464/495 23/23/23
f 24/24/24 23/23/23 495/464/495
f 495/464/495 483/452/483 24/24/24
f 25/25/25 24/24/24 483/452/483
f 483/452/483 484/453/484 25/25/25
f 26/26/26 25/25/25 484/453/484
f 484/453/484 485/454/485 26/26/26
f 27/27/27 26/26/26 485/454/485
f 485/454/485 486/455/486 27/27/27
f 431/400/431 27/27/27 486/455/486
f 431/400/431 486/455/486 425/394/425
f 425/394/425 424/393/424 431/400/431
f 441/410/441 442/411/442 496/465/496
f 497/466/497 439/408/439 438/407/438
f 497/466/497 438/407/438 498/467/498
f 441/410/441 498/467/498 438/407/438
f 496/465/496 499/468/499 441/410/441
f 490/459/490 500/469/500 496/465/496
f 496/465/496 491/460/491 490/459/490
f 491/460/491 496/465/496 442/411/442
f 491/460/491 442/411/442 492/461/492
f 444/413/444 492/461/492 442/411/442
f 492/461/492 444/413/444 495/464/495
f 445/414/445 495/464/495 444/413/444
f 445/414/445 483/452/483 495/464/495
f 9/9/9 7/7/7 501/470/501
f 7/7/7 5/5/5 502/471/502
f 5/5/5 3/3/3 503/472/503
f 504/473/504 503/472/503 3/3/3
f 504/473/504 3/3/3 2/2/2
f 505/474/505 1/1/1 4/4/4
f 1/1/1 505/474/505 506/475/506
f 507/476/507 506/475/506 505/474/505
f 506/475/506 507/476/507 508/477/508
f 509/478/509 508/477/508 507/476/507
f 509/478/509 510/479/510 508/477/508
f 511/480/511 508/477/508 510/479/510
f 508/477/508 511/480/511 512/481/512
f 508/477/508 512/481/512 506/475/506
f 506/475/506 513/482/513 1/1/1
f 514/483/514 515/484/515 505/474/505
f 507/476/507 505/474/505 515/484/515
f 515/484/515 516/485/516 507/476/507
f 509/478/509 507/476/507 516/485/516
f 516/485/516 517/486/517 509/478/509
f 510/479/510 509/478/509 517/486/517
f 510/479/510 517/486/517 518/487/518
f 510/479/510 518/487/518 511/480/511
f 519/488/519 511/480/511 518/487/518
f 511/480/511 519/488/519 520/489/520
f 521/490/521 517/486/517 522/491/522
f 521/490/521 518/487/518 517/486/517
f 523/492/523 517/486/517 524/493/524
f 516/485/516 524/493/524 517/486/517
f 516/485/516 515/484/515 524/493/524
f 515/484/515 514/483/514 525/494/525
f 525/494/525 524/493/524 515/484/515
f 524/493/524 525/494/525 526/495/526
f 524/493/524 526/495/526 523/492/523
f 523/492/523 526/495/526 527/496/527
f 523/492/523 527/496/527 517/486/517
f 528/497/528 517/486/517 527/496/527
f 528/497/528 522/491/522 517/486/517
f 529/498/529 528/497/528 527/496/527
f 528/497/528 529/498/529 530/499/530
f 528/497/528 530/499/530 522/491/522
f 531/500/531 522/491/522 530/499/530
f 531/500/531 530/499/530 532/501/532
f 533/502/533 532/501/532 530/499/530
f 534/503/534 533/502/533 530/499/530
f 534/503/534 530/499/530 529/498/529
f 529/498/529 535/504/535 534/503/534
f 529/498/529 527/496/527 535/504/535
f 536/505/536 535/504/535 527/496/527
f 536/505/536 527/496/527 526/495/526
f 526/495/526 537/506/537 536/505/536
f 537/506/537 526/495/526 525/494/525
f 525/494/525 538/507/538 537/506/537
f 538/507/538 525/494/525 514/483/514
f 538/507/538 514/483/514 539/508/539
f 540/509/540 539/508/539 514/483/514
f 539/508/539 540/509/540 541/510/541
f 542/511/542 541/510/541 540/509/540
f 538/507/538 539/508/539 543/512/543
f 543/512/543 537/506/537 538/507/538
f 537/506/537 543/512/543 544/513/544
f 544/513/544 536/505/536 537/506/537
f 536/505/536 544/513/544 535/504/535
f 541/510/541 545/514/545 539/508/539
f 546/515/546 539/508/539 545/514/545
f 546/515/546 543/512/543 539/508/539
f 547/516/547 543/512/543 546/515/546
f 547/516/547 544/513/544 543/512/543
f 548/517/548 544/513/544 547/516/547
f 548/517/548 535/504/535 544/513/544
f 535/504/535 548/517/548 549/518/549
f 549/518/549 534/503/534 535/504/535
f 534/503/534 549/518/549 550/519/550
f 550/519/550 533/502/533 534/503/534
f 550/519/550 551/520/551 533/502/533
f 552/521/552 533/502/533 551/520/551
f 551/520/551 101/101/101 552/521/552
f 99/99/99 552/521/552 101/101/101
f 541/510/541 542/511/542 553/522/553
f 545/514/545 541/510/541 553/522/553
f 553/522/553 554/523/554 545/514/545
f 555/524/555 545/514/545 554/523/554
f 545/514/545 555/524/555 546/515/546
f 556/525/556 546/515/546 555/524/555
f 546/515/546 556/525/556 547/516/547
f 557/526/557 547/516/547 556/525/556
f 547/516/547 557/526/557 548/517/548
f 558/527/558 548/517/548 557/526/557
f 558/527/558 549/518/549 548/517/548
f 549/518/549 558/527/558 559/528/559
f 559/528/559 550/519/550 549/518/549
f 551/520/551 550/519/550 560/529/560
f 101/101/101 551/520/551 561/530/561
f 8/8/8 11/11/11 6/6/6
f 112/112/112 558/527/558 110/110/110
f 557/526/557 110/110/110 558/527/558
f 557/526/557 109/109/109 110/110/110
f 556/525/556 109/109/109 557/526/557
f 556/525/556 107/107/107 109/109/109
f 556/525/556 555/524/555 107/107/107
f 562/531/562 107/107/107 555/524/555
f 555/524/555 554/523/554 562/531/562
f 554/523/554 563/532/563 562/531/562
f 554/523/554 553/522/553 563/532/563
f 13/13/13 563/532/563 553/522/553
f 553/522/553 11/11/11 13/13/13
f 11/11/11 553/522/553 542/511/542
f 542/511/542 6/6/6 11/11/11
f 542/511/542 540/509/540 6/6/6
f 4/4/4 6/6/6 540/509/540
f 540/509/540 514/483/514 4/4/4
f 505/474/505 4/4/4 514/483/514
f 564/533/564 106/106/106 565/534/565
f 105/105/105 565/534/565 106/106/106
f 565/534/565 105/105/105 566/535/566
f 567/536/567 566/535/566 105/105/105
f 567/536/567 105/105/105 104/104/104
f 568/537/568 562/531/562 563/532/563
f 569/538/569 106/106/106 570/539/570
f 564/533/564 570/539/570 106/106/106
f 564/533/564 571/540/571 570/539/570
f 564/533/564 565/534/565 571/540/571
f 572/541/572 571/540/571 565/534/565
f 565/534/565 566/535/566 572/541/572
f 573/542/573 572/541/572 566/535/566
f 573/542/573 566/535/566 574/543/574
f 575/544/575 574/543/574 566/535/566
f 566/535/566 567/536/567 575/544/575
f 576/545/576 575/544/575 567/536/567
f 576/545/576 567/536/567 577/546/577
f 104/104/104 577/546/577 567/536/567
f 577/546/577 104/104/104 578/547/578
f 568/537/568 578/547/578 104/104/104
f 104/104/104 103/103/103 568/537/568
f 562/531/562 568/537/568 103/103/103
f 562/531/562 103/103/103 107/107/107
f 579/548/579 580/549/580 581/550/581
f 569/538/569 570/539/570 582/551/582
f 583/552/583 570/539/570 571/540/571
f 570/539/570 583/552/583 584/553/584
f 584/553/584 582/551/582 570/539/570
f 585/554/585 582/551/582 584/553/584
f 585/554/585 586/555/586 582/551/582
f 587/556/587 584/553/584 583/552/583
f 580/549/580 579/548/579 587/556/587
f 584/553/584 587/556/587 579/548/579
f 585/554/585 584/553/584 579/548/579
f 111/111/111 582/551/582 586/555/586
f 582/551/582 111/111/111 108/108/108
f 569/538/569 582/551/582 108/108/108
f 569/538/569 108/108/108 106/106/106
f 588/557/588 100/100/100 589/558/589
f 100/100/100 588/557/588 95/95/95
f 93/93/93 95/95/95 588/557/588
f 588/557/588 590/559/590 93/93/93
f 92/92/92 93/93/93 590/559/590
f 590/559/590 591/560/591 92/92/92
f 91/91/91 92/92/92 591/560/591
f 591/560/591 592/561/592 91/91/91
f 72/72/72 91/91/91 592/561/592
f 592/561/592 73/73/73 72/72/72
f 591/560/591 593/562/593 592/561/592
f 590/559/590 588/557/588 594/563/594
f 590/559/590 594/563/594 591/560/591
f 74/74/74 595/564/595 76/76/76
f 137/137/137 76/76/76 595/564/595
f 595/564/595 136/136/136 137/137/137
